<?xml version="1.0" encoding="UTF-8"?>
<!--Generator: Apple Native CoreSVG 175-->
<!DOCTYPE svg
PUBLIC "-//W3C//DTD SVG 1.1//EN"
       "http://www.w3.org/Graphics/SVG/1.1/DTD/svg11.dtd">
<svg version="1.1" xmlns="http://www.w3.org/2000/svg" xmlns:xlink="http://www.w3.org/1999/xlink" width="3300" height="2200">
 <!--glyph: "uni1003C6.medium", point size: 100.0, font version: "17.0d12e1", template writer version: "65.1"-->
 <g id="Notes">
  <rect height="2200" id="artboard" style="fill:white;opacity:1" width="3300" x="0" y="0"/>
  <line style="fill:none;stroke:black;opacity:1;stroke-width:0.5;" x1="263" x2="3036" y1="292" y2="292"/>
  <text style="stroke:none;fill:black;font-family:sans-serif;font-size:13;font-weight:bold;" transform="matrix(1 0 0 1 263 322)">Weight/Scale Variations</text>
  <text style="stroke:none;fill:black;font-family:sans-serif;font-size:13;text-anchor:middle;" transform="matrix(1 0 0 1 559.711 322)">Ultralight</text>
  <text style="stroke:none;fill:black;font-family:sans-serif;font-size:13;text-anchor:middle;" transform="matrix(1 0 0 1 856.422 322)">Thin</text>
  <text style="stroke:none;fill:black;font-family:sans-serif;font-size:13;text-anchor:middle;" transform="matrix(1 0 0 1 1153.13 322)">Light</text>
  <text style="stroke:none;fill:black;font-family:sans-serif;font-size:13;text-anchor:middle;" transform="matrix(1 0 0 1 1449.84 322)">Regular</text>
  <text style="stroke:none;fill:black;font-family:sans-serif;font-size:13;text-anchor:middle;" transform="matrix(1 0 0 1 1746.56 322)">Medium</text>
  <text style="stroke:none;fill:black;font-family:sans-serif;font-size:13;text-anchor:middle;" transform="matrix(1 0 0 1 2043.27 322)">Semibold</text>
  <text style="stroke:none;fill:black;font-family:sans-serif;font-size:13;text-anchor:middle;" transform="matrix(1 0 0 1 2339.98 322)">Bold</text>
  <text style="stroke:none;fill:black;font-family:sans-serif;font-size:13;text-anchor:middle;" transform="matrix(1 0 0 1 2636.69 322)">Heavy</text>
  <text style="stroke:none;fill:black;font-family:sans-serif;font-size:13;text-anchor:middle;" transform="matrix(1 0 0 1 2933.4 322)">Black</text>
  <line style="fill:none;stroke:black;opacity:1;stroke-width:0.5;" x1="263" x2="3036" y1="1903" y2="1903"/>
  <g transform="matrix(1 0 0 1 263 1933)">
   <path d="M9.24805 0.830078Q10.8691 0.830078 12.2949 0.214844Q13.7207-0.400391 14.8096-1.49414Q15.8984-2.58789 16.5186-4.01367Q17.1387-5.43945 17.1387-7.05078Q17.1387-8.66211 16.5186-10.0879Q15.8984-11.5137 14.8047-12.6074Q13.7109-13.7012 12.2852-14.3164Q10.8594-14.9316 9.23828-14.9316Q7.62695-14.9316 6.20117-14.3164Q4.77539-13.7012 3.69141-12.6074Q2.60742-11.5137 1.9873-10.0879Q1.36719-8.66211 1.36719-7.05078Q1.36719-5.43945 1.9873-4.01367Q2.60742-2.58789 3.69629-1.49414Q4.78516-0.400391 6.21094 0.214844Q7.63672 0.830078 9.24805 0.830078ZM9.24805-0.654297Q7.91992-0.654297 6.7627-1.14746Q5.60547-1.64062 4.73145-2.51953Q3.85742-3.39844 3.36426-4.56055Q2.87109-5.72266 2.87109-7.05078Q2.87109-8.37891 3.35938-9.54102Q3.84766-10.7031 4.72168-11.582Q5.5957-12.4609 6.75293-12.9541Q7.91016-13.4473 9.23828-13.4473Q10.5762-13.4473 11.7334-12.9541Q12.8906-12.4609 13.7695-11.582Q14.6484-10.7031 15.1465-9.54102Q15.6445-8.37891 15.6445-7.05078Q15.6445-5.72266 15.1514-4.56055Q14.6582-3.39844 13.7842-2.51953Q12.9102-1.64062 11.748-1.14746Q10.5859-0.654297 9.24805-0.654297ZM5.6543-7.05078Q5.6543-6.72852 5.85938-6.52832Q6.06445-6.32812 6.40625-6.32812L8.51562-6.32812L8.51562-4.20898Q8.51562-3.88672 8.71094-3.67676Q8.90625-3.4668 9.23828-3.4668Q9.56055-3.4668 9.77051-3.67676Q9.98047-3.88672 9.98047-4.20898L9.98047-6.32812L12.0898-6.32812Q12.4219-6.32812 12.627-6.52832Q12.832-6.72852 12.832-7.05078Q12.832-7.38281 12.627-7.58789Q12.4219-7.79297 12.0898-7.79297L9.98047-7.79297L9.98047-9.90234Q9.98047-10.2344 9.77051-10.4443Q9.56055-10.6543 9.23828-10.6543Q8.90625-10.6543 8.71094-10.4443Q8.51562-10.2344 8.51562-9.90234L8.51562-7.79297L6.40625-7.79297Q6.06445-7.79297 5.85938-7.58789Q5.6543-7.38281 5.6543-7.05078Z"/>
  </g>
  <g transform="matrix(1 0 0 1 281.867 1933)">
   <path d="M11.709 2.91016Q13.75 2.91016 15.5518 2.12891Q17.3535 1.34766 18.7305-0.0292969Q20.1074-1.40625 20.8887-3.20801Q21.6699-5.00977 21.6699-7.05078Q21.6699-9.0918 20.8887-10.8936Q20.1074-12.6953 18.7305-14.0723Q17.3535-15.4492 15.5469-16.2305Q13.7402-17.0117 11.6992-17.0117Q9.6582-17.0117 7.85645-16.2305Q6.05469-15.4492 4.68262-14.0723Q3.31055-12.6953 2.5293-10.8936Q1.74805-9.0918 1.74805-7.05078Q1.74805-5.00977 2.5293-3.20801Q3.31055-1.40625 4.6875-0.0292969Q6.06445 1.34766 7.86621 2.12891Q9.66797 2.91016 11.709 2.91016ZM11.709 1.25Q9.98047 1.25 8.47656 0.605469Q6.97266-0.0390625 5.83496-1.17676Q4.69727-2.31445 4.05762-3.81836Q3.41797-5.32227 3.41797-7.05078Q3.41797-8.7793 4.05762-10.2832Q4.69727-11.7871 5.83008-12.9297Q6.96289-14.0723 8.4668-14.7119Q9.9707-15.3516 11.6992-15.3516Q13.4277-15.3516 14.9316-14.7119Q16.4355-14.0723 17.5781-12.9297Q18.7207-11.7871 19.3652-10.2832Q20.0098-8.7793 20.0098-7.05078Q20.0098-5.32227 19.3701-3.81836Q18.7305-2.31445 17.5928-1.17676Q16.4551-0.0390625 14.9463 0.605469Q13.4375 1.25 11.709 1.25ZM7.17773-7.05078Q7.17773-6.69922 7.41211-6.47461Q7.64648-6.25 8.01758-6.25L10.8887-6.25L10.8887-3.36914Q10.8887-2.99805 11.1133-2.76855Q11.3379-2.53906 11.6895-2.53906Q12.0605-2.53906 12.29-2.76855Q12.5195-2.99805 12.5195-3.36914L12.5195-6.25L15.4004-6.25Q15.7715-6.25 16.001-6.47461Q16.2305-6.69922 16.2305-7.05078Q16.2305-7.42188 16.001-7.65137Q15.7715-7.88086 15.4004-7.88086L12.5195-7.88086L12.5195-10.752Q12.5195-11.1328 12.29-11.3623Q12.0605-11.5918 11.6895-11.5918Q11.3379-11.5918 11.1133-11.3574Q10.8887-11.123 10.8887-10.752L10.8887-7.88086L8.01758-7.88086Q7.63672-7.88086 7.40723-7.65137Q7.17773-7.42188 7.17773-7.05078Z"/>
  </g>
  <g transform="matrix(1 0 0 1 305.646 1933)">
   <path d="M14.9707 5.66406Q17.0605 5.66406 18.96 5.01465Q20.8594 4.36523 22.4512 3.19336Q24.043 2.02148 25.2197 0.429688Q26.3965-1.16211 27.0459-3.06641Q27.6953-4.9707 27.6953-7.05078Q27.6953-9.14062 27.0459-11.04Q26.3965-12.9395 25.2197-14.5312Q24.043-16.123 22.4512-17.2998Q20.8594-18.4766 18.9551-19.126Q17.0508-19.7754 14.9609-19.7754Q12.8711-19.7754 10.9717-19.126Q9.07227-18.4766 7.48535-17.2998Q5.89844-16.123 4.72168-14.5312Q3.54492-12.9395 2.90039-11.04Q2.25586-9.14062 2.25586-7.05078Q2.25586-4.9707 2.90527-3.06641Q3.55469-1.16211 4.72656 0.429688Q5.89844 2.02148 7.49023 3.19336Q9.08203 4.36523 10.9814 5.01465Q12.8809 5.66406 14.9707 5.66406ZM14.9707 3.84766Q13.1641 3.84766 11.5283 3.2959Q9.89258 2.74414 8.53516 1.74805Q7.17773 0.751953 6.17676-0.610352Q5.17578-1.97266 4.62891-3.6084Q4.08203-5.24414 4.08203-7.05078Q4.08203-8.86719 4.62891-10.5029Q5.17578-12.1387 6.17188-13.501Q7.16797-14.8633 8.52539-15.8594Q9.88281-16.8555 11.5186-17.4023Q13.1543-17.9492 14.9609-17.9492Q16.7773-17.9492 18.4131-17.4023Q20.0488-16.8555 21.4111-15.8594Q22.7734-14.8633 23.7695-13.501Q24.7656-12.1387 25.3174-10.5029Q25.8691-8.86719 25.8691-7.05078Q25.8789-5.24414 25.332-3.6084Q24.7852-1.97266 23.7842-0.610352Q22.7832 0.751953 21.4209 1.74805Q20.0586 2.74414 18.4229 3.2959Q16.7871 3.84766 14.9707 3.84766ZM9.19922-7.05078Q9.19922-6.66992 9.45801-6.4209Q9.7168-6.17188 10.1172-6.17188L14.0625-6.17188L14.0625-2.2168Q14.0625-1.81641 14.3115-1.55762Q14.5605-1.29883 14.9512-1.29883Q15.3516-1.29883 15.6104-1.55273Q15.8691-1.80664 15.8691-2.2168L15.8691-6.17188L19.8242-6.17188Q20.2246-6.17188 20.4785-6.4209Q20.7324-6.66992 20.7324-7.05078Q20.7324-7.46094 20.4785-7.71484Q20.2246-7.96875 19.8242-7.96875L15.8691-7.96875L15.8691-11.9141Q15.8691-12.3242 15.6104-12.583Q15.3516-12.8418 14.9512-12.8418Q14.5605-12.8418 14.3115-12.583Q14.0625-12.3242 14.0625-11.9141L14.0625-7.96875L10.1172-7.96875Q9.70703-7.96875 9.45312-7.71484Q9.19922-7.46094 9.19922-7.05078Z"/>
  </g>
  <text style="stroke:none;fill:black;font-family:sans-serif;font-size:13;font-weight:bold;" transform="matrix(1 0 0 1 263 1953)">Design Variations</text>
  <text style="stroke:none;fill:black;font-family:sans-serif;font-size:13;" transform="matrix(1 0 0 1 263 1971)">Symbols are supported in up to nine weights and three scales.</text>
  <text style="stroke:none;fill:black;font-family:sans-serif;font-size:13;" transform="matrix(1 0 0 1 263 1989)">For optimal layout with text and other symbols, vertically align</text>
  <text style="stroke:none;fill:black;font-family:sans-serif;font-size:13;" transform="matrix(1 0 0 1 263 2007)">symbols with the adjacent text.</text>
  <line style="fill:none;stroke:#00AEEF;stroke-width:0.5;opacity:1.0;" x1="776" x2="776" y1="1919" y2="1933"/>
  <g transform="matrix(1 0 0 1 776 1933)">
   <path d="M3.31055 0.15625Q3.70117 0.15625 3.91602-0.00976562Q4.13086-0.175781 4.26758-0.585938L5.52734-4.0332L11.2891-4.0332L12.5488-0.585938Q12.6855-0.175781 12.9004-0.00976562Q13.1152 0.15625 13.4961 0.15625Q13.8867 0.15625 14.1162-0.0585938Q14.3457-0.273438 14.3457-0.644531Q14.3457-0.869141 14.2383-1.17188L9.6582-13.3691Q9.48242-13.8184 9.17969-14.043Q8.87695-14.2676 8.4082-14.2676Q7.5-14.2676 7.17773-13.3789L2.59766-1.16211Q2.49023-0.859375 2.49023-0.634766Q2.49023-0.263672 2.70996-0.0537109Q2.92969 0.15625 3.31055 0.15625ZM6.00586-5.51758L8.37891-12.0898L8.42773-12.0898L10.8008-5.51758Z"/>
  </g>
  <line style="fill:none;stroke:#00AEEF;stroke-width:0.5;opacity:1.0;" x1="793.197" x2="793.197" y1="1919" y2="1933"/>
  <text style="stroke:none;fill:black;font-family:sans-serif;font-size:13;font-weight:bold;" transform="matrix(1 0 0 1 776 1953)">Margins</text>
  <text style="stroke:none;fill:black;font-family:sans-serif;font-size:13;" transform="matrix(1 0 0 1 776 1971)">Leading and trailing margins on the left and right side of each symbol</text>
  <text style="stroke:none;fill:black;font-family:sans-serif;font-size:13;" transform="matrix(1 0 0 1 776 1989)">can be adjusted by modifying the x-location of the margin guidelines.</text>
  <text style="stroke:none;fill:black;font-family:sans-serif;font-size:13;" transform="matrix(1 0 0 1 776 2007)">Modifications are automatically applied proportionally to all</text>
  <text style="stroke:none;fill:black;font-family:sans-serif;font-size:13;" transform="matrix(1 0 0 1 776 2025)">scales and weights.</text>
  <g transform="matrix(1 0 0 1 1289 1933)">
   <path d="M2.8418 1.86523L4.54102 3.57422Q5.18555 4.22852 5.90332 4.17969Q6.62109 4.13086 7.31445 3.35938L18.0078-8.42773L17.041-9.4043L6.42578 2.27539Q6.16211 2.57812 5.89355 2.61719Q5.625 2.65625 5.27344 2.30469L4.10156 1.14258Q3.75 0.791016 3.79395 0.522461Q3.83789 0.253906 4.14062-0.0195312L15.6152-10.8203L14.6387-11.7871L3.04688-0.898438Q2.30469-0.214844 2.25098 0.498047Q2.19727 1.21094 2.8418 1.86523ZM9.25781-16.3281Q8.94531-16.0254 8.90625-15.6348Q8.86719-15.2441 9.04297-14.9512Q9.21875-14.6777 9.55566-14.541Q9.89258-14.4043 10.3809-14.5215Q11.4746-14.7754 12.5977-14.7314Q13.7207-14.6875 14.7949-13.9844L14.209-12.5293Q13.9551-11.9043 14.0674-11.4404Q14.1797-10.9766 14.5801-10.5664L16.875-8.25195Q17.2363-7.88086 17.5781-7.82227Q17.9199-7.76367 18.3398-7.8418L19.4043-8.03711L20.0684-7.36328L20.0293-6.80664Q20-6.43555 20.1221-6.12305Q20.2441-5.81055 20.6055-5.44922L21.3672-4.70703Q21.7285-4.3457 22.1533-4.33105Q22.5781-4.31641 22.9297-4.66797L25.8398-7.58789Q26.1914-7.93945 26.1816-8.35449Q26.1719-8.76953 25.8105-9.13086L25.0391-9.89258Q24.6875-10.2539 24.3799-10.3857Q24.0723-10.5176 23.7109-10.4883L23.1348-10.4395L22.4902-11.0742L22.7344-12.1973Q22.832-12.6172 22.6953-12.9834Q22.5586-13.3496 22.1191-13.7891L19.9219-15.9766Q18.6719-17.2168 17.2607-17.8369Q15.8496-18.457 14.4189-18.4814Q12.9883-18.5059 11.665-17.959Q10.3418-17.4121 9.25781-16.3281ZM10.752-15.957Q11.6602-16.6211 12.7002-16.9043Q13.7402-17.1875 14.8047-17.085Q15.8691-16.9824 16.8701-16.5137Q17.8711-16.0449 18.7012-15.2051L21.1328-12.793Q21.3086-12.6172 21.3525-12.4512Q21.3965-12.2852 21.3379-12.0312L21.0156-10.5469L22.5195-9.0625L23.5059-9.12109Q23.6914-9.13086 23.7891-9.09668Q23.8867-9.0625 24.0332-8.91602L24.6094-8.33984L22.168-5.89844L21.5918-6.47461Q21.4453-6.62109 21.4062-6.71875Q21.3672-6.81641 21.377-7.01172L21.4453-7.98828L19.9512-9.47266L18.4277-9.21875Q18.1836-9.16992 18.042-9.2041Q17.9004-9.23828 17.7148-9.41406L15.7129-11.416Q15.5176-11.5918 15.4932-11.7529Q15.4688-11.9141 15.5859-12.1875L16.4648-14.2773Q15.293-15.3711 13.8281-15.791Q12.3633-16.2109 10.8398-15.7617Q10.7227-15.7324 10.6885-15.8057Q10.6543-15.8789 10.752-15.957Z"/>
  </g>
  <text style="stroke:none;fill:black;font-family:sans-serif;font-size:13;font-weight:bold;" transform="matrix(1 0 0 1 1289 1953)">Exporting</text>
  <text style="stroke:none;fill:black;font-family:sans-serif;font-size:13;" transform="matrix(1 0 0 1 1289 1971)">Symbols should be outlined when exporting to ensure the</text>
  <text style="stroke:none;fill:black;font-family:sans-serif;font-size:13;" transform="matrix(1 0 0 1 1289 1989)">design is preserved when submitting to Xcode.</text>
  <text id="template-version" style="stroke:none;fill:black;font-family:sans-serif;font-size:13;text-anchor:end;" transform="matrix(1 0 0 1 3036 1933)">Template v.3.0</text>
  <text style="stroke:none;fill:black;font-family:sans-serif;font-size:13;text-anchor:end;" transform="matrix(1 0 0 1 3036 1951)">Requires Xcode 13 or greater</text>
  <text id="descriptive-name" style="stroke:none;fill:black;font-family:sans-serif;font-size:13;text-anchor:end;" transform="matrix(1 0 0 1 3036 1969)">Generated from photo.fill</text>
  <text style="stroke:none;fill:black;font-family:sans-serif;font-size:13;text-anchor:end;" transform="matrix(1 0 0 1 3036 1987)">Typeset at 100 points</text>
  <text style="stroke:none;fill:black;font-family:sans-serif;font-size:13;" transform="matrix(1 0 0 1 263 726)">Small</text>
  <text style="stroke:none;fill:black;font-family:sans-serif;font-size:13;" transform="matrix(1 0 0 1 263 1156)">Medium</text>
  <text style="stroke:none;fill:black;font-family:sans-serif;font-size:13;" transform="matrix(1 0 0 1 263 1586)">Large</text>
 </g>
 <g id="Guides">
  <g id="H-reference" style="fill:#27AAE1;stroke:none;" transform="matrix(1 0 0 1 339 696)">
   <path d="M0.993347 0L3.6377 0L29.3282-67.1326L30.0301-67.1326L30.0301-70.459L28.1227-70.459ZM11.6882-24.4797L46.9818-24.4797L46.2311-26.7288L12.4382-26.7288ZM55.1193 0L57.7637 0L30.6381-70.459L29.4327-70.459L29.4327-67.1326Z"/>
  </g>
  <line id="Baseline-S" style="fill:none;stroke:#27AAE1;opacity:1;stroke-width:0.5;" x1="263" x2="3036" y1="696" y2="696"/>
  <line id="Capline-S" style="fill:none;stroke:#27AAE1;opacity:1;stroke-width:0.5;" x1="263" x2="3036" y1="625.541" y2="625.541"/>
  <g id="H-reference" style="fill:#27AAE1;stroke:none;" transform="matrix(1 0 0 1 339 1126)">
   <path d="M0.993347 0L3.6377 0L29.3282-67.1326L30.0301-67.1326L30.0301-70.459L28.1227-70.459ZM11.6882-24.4797L46.9818-24.4797L46.2311-26.7288L12.4382-26.7288ZM55.1193 0L57.7637 0L30.6381-70.459L29.4327-70.459L29.4327-67.1326Z"/>
  </g>
  <line id="Baseline-M" style="fill:none;stroke:#27AAE1;opacity:1;stroke-width:0.5;" x1="263" x2="3036" y1="1126" y2="1126"/>
  <line id="Capline-M" style="fill:none;stroke:#27AAE1;opacity:1;stroke-width:0.5;" x1="263" x2="3036" y1="1055.54" y2="1055.54"/>
  <g id="H-reference" style="fill:#27AAE1;stroke:none;" transform="matrix(1 0 0 1 339 1556)">
   <path d="M0.993347 0L3.6377 0L29.3282-67.1326L30.0301-67.1326L30.0301-70.459L28.1227-70.459ZM11.6882-24.4797L46.9818-24.4797L46.2311-26.7288L12.4382-26.7288ZM55.1193 0L57.7637 0L30.6381-70.459L29.4327-70.459L29.4327-67.1326Z"/>
  </g>
  <line id="Baseline-L" style="fill:none;stroke:#27AAE1;opacity:1;stroke-width:0.5;" x1="263" x2="3036" y1="1556" y2="1556"/>
  <line id="Capline-L" style="fill:none;stroke:#27AAE1;opacity:1;stroke-width:0.5;" x1="263" x2="3036" y1="1485.54" y2="1485.54"/>
  <line id="left-margin-Ultralight-S" style="fill:none;stroke:#00AEEF;stroke-width:0.5;opacity:1.0;" x1="505.702" x2="505.702" y1="600.785" y2="720.121"/>
  <line id="right-margin-Ultralight-S" style="fill:none;stroke:#00AEEF;stroke-width:0.5;opacity:1.0;" x1="613.72" x2="613.72" y1="600.785" y2="720.121"/>
  <line id="left-margin-Thin-S" style="fill:none;stroke:#00AEEF;stroke-width:0.5;opacity:1.0;" x1="802.177" x2="802.177" y1="600.785" y2="720.121"/>
  <line id="right-margin-Thin-S" style="fill:none;stroke:#00AEEF;stroke-width:0.5;opacity:1.0;" x1="910.667" x2="910.667" y1="600.785" y2="720.121"/>
  <line id="left-margin-Light-S" style="fill:none;stroke:#00AEEF;stroke-width:0.5;opacity:1.0;" x1="1098.43" x2="1098.43" y1="600.785" y2="720.121"/>
  <line id="right-margin-Light-S" style="fill:none;stroke:#00AEEF;stroke-width:0.5;opacity:1.0;" x1="1207.84" x2="1207.84" y1="600.785" y2="720.121"/>
  <line id="left-margin-Regular-S" style="fill:none;stroke:#00AEEF;stroke-width:0.5;opacity:1.0;" x1="1394.79" x2="1394.79" y1="600.785" y2="720.121"/>
  <line id="right-margin-Regular-S" style="fill:none;stroke:#00AEEF;stroke-width:0.5;opacity:1.0;" x1="1504.9" x2="1504.9" y1="600.785" y2="720.121"/>
  <line id="left-margin-Medium-S" style="fill:none;stroke:#00AEEF;stroke-width:0.5;opacity:1.0;" x1="1691.32" x2="1691.32" y1="600.785" y2="720.121"/>
  <line id="right-margin-Medium-S" style="fill:none;stroke:#00AEEF;stroke-width:0.5;opacity:1.0;" x1="1801.79" x2="1801.79" y1="600.785" y2="720.121"/>
  <line id="left-margin-Semibold-S" style="fill:none;stroke:#00AEEF;stroke-width:0.5;opacity:1.0;" x1="1987.89" x2="1987.89" y1="600.785" y2="720.121"/>
  <line id="right-margin-Semibold-S" style="fill:none;stroke:#00AEEF;stroke-width:0.5;opacity:1.0;" x1="2098.64" x2="2098.64" y1="600.785" y2="720.121"/>
  <line id="left-margin-Bold-S" style="fill:none;stroke:#00AEEF;stroke-width:0.5;opacity:1.0;" x1="2284.42" x2="2284.42" y1="600.785" y2="720.121"/>
  <line id="right-margin-Bold-S" style="fill:none;stroke:#00AEEF;stroke-width:0.5;opacity:1.0;" x1="2395.53" x2="2395.53" y1="600.785" y2="720.121"/>
  <line id="left-margin-Heavy-S" style="fill:none;stroke:#00AEEF;stroke-width:0.5;opacity:1.0;" x1="2580.87" x2="2580.87" y1="600.785" y2="720.121"/>
  <line id="right-margin-Heavy-S" style="fill:none;stroke:#00AEEF;stroke-width:0.5;opacity:1.0;" x1="2692.51" x2="2692.51" y1="600.785" y2="720.121"/>
  <line id="left-margin-Black-S" style="fill:none;stroke:#00AEEF;stroke-width:0.5;opacity:1.0;" x1="2877.35" x2="2877.35" y1="600.785" y2="720.121"/>
  <line id="right-margin-Black-S" style="fill:none;stroke:#00AEEF;stroke-width:0.5;opacity:1.0;" x1="2989.45" x2="2989.45" y1="600.785" y2="720.121"/>
  <line id="left-margin-Ultralight-M" style="fill:none;stroke:#00AEEF;stroke-width:0.5;opacity:1.0;" x1="490.872" x2="490.872" y1="1030.79" y2="1150.12"/>
  <line id="right-margin-Ultralight-M" style="fill:none;stroke:#00AEEF;stroke-width:0.5;opacity:1.0;" x1="628.55" x2="628.55" y1="1030.79" y2="1150.12"/>
  <line id="left-margin-Thin-M" style="fill:none;stroke:#00AEEF;stroke-width:0.5;opacity:1.0;" x1="787.317" x2="787.317" y1="1030.79" y2="1150.12"/>
  <line id="right-margin-Thin-M" style="fill:none;stroke:#00AEEF;stroke-width:0.5;opacity:1.0;" x1="925.528" x2="925.528" y1="1030.79" y2="1150.12"/>
  <line id="left-margin-Light-M" style="fill:none;stroke:#00AEEF;stroke-width:0.5;opacity:1.0;" x1="1083.51" x2="1083.51" y1="1030.79" y2="1150.12"/>
  <line id="right-margin-Light-M" style="fill:none;stroke:#00AEEF;stroke-width:0.5;opacity:1.0;" x1="1222.76" x2="1222.76" y1="1030.79" y2="1150.12"/>
  <line id="left-margin-Regular-M" style="fill:none;stroke:#00AEEF;stroke-width:0.5;opacity:1.0;" x1="1379.82" x2="1379.82" y1="1030.79" y2="1150.12"/>
  <line id="right-margin-Regular-M" style="fill:none;stroke:#00AEEF;stroke-width:0.5;opacity:1.0;" x1="1519.86" x2="1519.86" y1="1030.79" y2="1150.12"/>
  <line id="left-margin-Medium-M" style="fill:none;stroke:#00AEEF;stroke-width:0.5;opacity:1.0;" x1="1676.28" x2="1676.28" y1="1030.79" y2="1150.12"/>
  <line id="right-margin-Medium-M" style="fill:none;stroke:#00AEEF;stroke-width:0.5;opacity:1.0;" x1="1816.83" x2="1816.83" y1="1030.79" y2="1150.12"/>
  <line id="left-margin-Semibold-M" style="fill:none;stroke:#00AEEF;stroke-width:0.5;opacity:1.0;" x1="1972.8" x2="1972.8" y1="1030.79" y2="1150.12"/>
  <line id="right-margin-Semibold-M" style="fill:none;stroke:#00AEEF;stroke-width:0.5;opacity:1.0;" x1="2113.74" x2="2113.74" y1="1030.79" y2="1150.12"/>
  <line id="left-margin-Bold-M" style="fill:none;stroke:#00AEEF;stroke-width:0.5;opacity:1.0;" x1="2269.25" x2="2269.25" y1="1030.79" y2="1150.12"/>
  <line id="right-margin-Bold-M" style="fill:none;stroke:#00AEEF;stroke-width:0.5;opacity:1.0;" x1="2410.71" x2="2410.71" y1="1030.79" y2="1150.12"/>
  <line id="left-margin-Heavy-M" style="fill:none;stroke:#00AEEF;stroke-width:0.5;opacity:1.0;" x1="2565.59" x2="2565.59" y1="1030.79" y2="1150.12"/>
  <line id="right-margin-Heavy-M" style="fill:none;stroke:#00AEEF;stroke-width:0.5;opacity:1.0;" x1="2707.79" x2="2707.79" y1="1030.79" y2="1150.12"/>
  <line id="left-margin-Black-M" style="fill:none;stroke:#00AEEF;stroke-width:0.5;opacity:1.0;" x1="2861.96" x2="2861.96" y1="1030.79" y2="1150.12"/>
  <line id="right-margin-Black-M" style="fill:none;stroke:#00AEEF;stroke-width:0.5;opacity:1.0;" x1="3004.84" x2="3004.84" y1="1030.79" y2="1150.12"/>
  <line id="left-margin-Ultralight-L" style="fill:none;stroke:#00AEEF;stroke-width:0.5;opacity:1.0;" x1="471.012" x2="471.012" y1="1460.79" y2="1580.12"/>
  <line id="right-margin-Ultralight-L" style="fill:none;stroke:#00AEEF;stroke-width:0.5;opacity:1.0;" x1="648.411" x2="648.411" y1="1460.79" y2="1580.12"/>
  <line id="left-margin-Thin-L" style="fill:none;stroke:#00AEEF;stroke-width:0.5;opacity:1.0;" x1="767.42" x2="767.42" y1="1460.79" y2="1580.12"/>
  <line id="right-margin-Thin-L" style="fill:none;stroke:#00AEEF;stroke-width:0.5;opacity:1.0;" x1="945.424" x2="945.424" y1="1460.79" y2="1580.12"/>
  <line id="left-margin-Light-L" style="fill:none;stroke:#00AEEF;stroke-width:0.5;opacity:1.0;" x1="1063.54" x2="1063.54" y1="1460.79" y2="1580.12"/>
  <line id="right-margin-Light-L" style="fill:none;stroke:#00AEEF;stroke-width:0.5;opacity:1.0;" x1="1242.73" x2="1242.73" y1="1460.79" y2="1580.12"/>
  <line id="left-margin-Regular-L" style="fill:none;stroke:#00AEEF;stroke-width:0.5;opacity:1.0;" x1="1359.81" x2="1359.81" y1="1460.79" y2="1580.12"/>
  <line id="right-margin-Regular-L" style="fill:none;stroke:#00AEEF;stroke-width:0.5;opacity:1.0;" x1="1539.88" x2="1539.88" y1="1460.79" y2="1580.12"/>
  <line id="left-margin-Medium-L" style="fill:none;stroke:#00AEEF;stroke-width:0.5;opacity:1.0;" x1="1656.18" x2="1656.18" y1="1460.79" y2="1580.12"/>
  <line id="right-margin-Medium-L" style="fill:none;stroke:#00AEEF;stroke-width:0.5;opacity:1.0;" x1="1836.93" x2="1836.93" y1="1460.79" y2="1580.12"/>
  <line id="left-margin-Semibold-L" style="fill:none;stroke:#00AEEF;stroke-width:0.5;opacity:1.0;" x1="1952.64" x2="1952.64" y1="1460.79" y2="1580.12"/>
  <line id="right-margin-Semibold-L" style="fill:none;stroke:#00AEEF;stroke-width:0.5;opacity:1.0;" x1="2133.9" x2="2133.9" y1="1460.79" y2="1580.12"/>
  <line id="left-margin-Bold-L" style="fill:none;stroke:#00AEEF;stroke-width:0.5;opacity:1.0;" x1="2249.01" x2="2249.01" y1="1460.79" y2="1580.12"/>
  <line id="right-margin-Bold-L" style="fill:none;stroke:#00AEEF;stroke-width:0.5;opacity:1.0;" x1="2430.94" x2="2430.94" y1="1460.79" y2="1580.12"/>
  <line id="left-margin-Heavy-L" style="fill:none;stroke:#00AEEF;stroke-width:0.5;opacity:1.0;" x1="2545.23" x2="2545.23" y1="1460.79" y2="1580.12"/>
  <line id="right-margin-Heavy-L" style="fill:none;stroke:#00AEEF;stroke-width:0.5;opacity:1.0;" x1="2728.15" x2="2728.15" y1="1460.79" y2="1580.12"/>
  <line id="left-margin-Black-L" style="fill:none;stroke:#00AEEF;stroke-width:0.5;opacity:1.0;" x1="2841.51" x2="2841.51" y1="1460.79" y2="1580.12"/>
  <line id="right-margin-Black-L" style="fill:none;stroke:#00AEEF;stroke-width:0.5;opacity:1.0;" x1="3025.29" x2="3025.29" y1="1460.79" y2="1580.12"/>
 </g>
 <g id="Symbols">
  <g id="Black-L" transform="matrix(1 0 0 1 2841.51 1556)">
   <path d="M43.5059 6.29883Q40.1367 6.29883 38.2324 4.37012Q36.3281 2.44141 36.3281-0.927734L36.3281-9.7168L48.877-20.8008Q50.8789-22.5586 52.7832-23.4375Q54.6875-24.3164 57.0801-24.3164Q61.6699-24.3164 65.7227-20.752L77.3926-10.2539L106.201-36.0352Q110.352-39.6973 115.674-39.6973Q118.115-39.6973 120.581-38.7695Q123.047-37.8418 125.049-35.9375L147.461-15.1855L147.461-0.976562Q147.461 2.44141 145.361 4.37012Q143.262 6.29883 140.283 6.29883ZM71.6797-34.9609Q67.2363-34.9609 63.5498-37.1582Q59.8633-39.3555 57.666-43.042Q55.4688-46.7285 55.4688-51.2207Q55.4688-55.6152 57.666-59.3018Q59.8633-62.9883 63.5498-65.21Q67.2363-67.4316 71.6797-67.4316Q76.123-67.4316 79.7852-65.21Q83.4473-62.9883 85.6445-59.3018Q87.8418-55.6152 87.8418-51.2207Q87.8418-46.7285 85.6445-43.042Q83.4473-39.3555 79.7852-37.1582Q76.123-34.9609 71.6797-34.9609ZM39.9902 26.5137L143.799 26.5137Q155.225 26.5137 161.475 20.3125Q167.725 14.1113 167.725 2.68555L167.725-73.0957Q167.725-84.4727 161.475-90.6738Q155.225-96.875 143.799-96.875L39.9902-96.875Q28.5645-96.875 22.3145-90.6738Q16.0645-84.4727 16.0645-73.0957L16.0645 2.68555Q16.0645 14.1113 22.3145 20.3125Q28.5645 26.5137 39.9902 26.5137Z"/>
  </g>
  <g id="Heavy-L" transform="matrix(1 0 0 1 2545.23 1556)">
   <path d="M41.5237 8.0162Q37.7975 8.0162 35.6915 5.89142Q33.5854 3.76663 33.5854 0.0404358L33.5854-7.51572L47.9782-20.1439Q50.0145-21.9246 51.9878-22.8268Q53.9612-23.7289 56.2965-23.7289Q60.9436-23.7289 65.0429-20.0836L76.77-9.51614L105.89-35.4935Q110.202-39.2822 115.559-39.2822Q118.046-39.2822 120.558-38.3202Q123.07-37.3581 125.153-35.3958L149.316-13.0768L149.316 0.0259399Q149.316 3.77808 147.061 5.89714Q144.806 8.0162 141.401 8.0162ZM69.4321-34.6962Q65.0352-34.6962 61.3949-36.8645Q57.7545-39.0327 55.5801-42.6788Q53.4058-46.3249 53.4058-50.7599Q53.4058-55.1079 55.5801-58.7543Q57.7545-62.4008 61.3949-64.5935Q65.0352-66.7862 69.4321-66.7862Q73.8182-66.7862 77.4399-64.5935Q81.0616-62.4008 83.2302-58.7543Q85.3989-55.1079 85.3989-50.7599Q85.3989-46.3249 83.2302-42.6788Q81.0616-39.0327 77.4399-36.8645Q73.8182-34.6962 69.4321-34.6962ZM38.826 25.4883L144.076 25.4883Q155.04 25.4883 160.944 19.6327Q166.849 13.7772 166.849 2.84653L166.849-73.2567Q166.849-84.1499 160.944-90.0112Q155.04-95.8725 144.076-95.8725L38.826-95.8725Q27.8732-95.8725 21.9688-90.0169Q16.0645-84.1614 16.0645-73.2567L16.0645 2.84653Q16.0645 13.7886 21.9688 19.6384Q27.8732 25.4883 38.826 25.4883Z"/>
  </g>
  <g id="Bold-L" transform="matrix(1 0 0 1 2249.01 1556)">
   <path d="M39.3066 9.93652Q35.1807 9.93652 32.8491 7.59277Q30.5176 5.24902 30.5176 1.12305L30.5176-5.05371L46.9727-19.4092Q49.0479-21.2158 51.0986-22.1436Q53.1494-23.0713 55.4199-23.0713Q60.1318-23.0713 64.2822-19.3359L76.0742-8.69141L105.542-34.8877Q110.034-38.8184 115.43-38.8184Q117.969-38.8184 120.532-37.8174Q123.096-36.8164 125.269-34.79L151.392-10.7178L151.392 1.14746Q151.392 5.27344 148.962 7.60498Q146.533 9.93652 142.651 9.93652ZM66.9189-34.3994Q62.5732-34.3994 58.9844-36.5356Q55.3955-38.6719 53.2471-42.2729Q51.0986-45.874 51.0986-50.2441Q51.0986-54.541 53.2471-58.1421Q55.3955-61.7432 58.9844-63.9038Q62.5732-66.0645 66.9189-66.0645Q71.2402-66.0645 74.8169-63.9038Q78.3936-61.7432 80.5298-58.1421Q82.666-54.541 82.666-50.2441Q82.666-45.874 80.5298-42.2729Q78.3936-38.6719 74.8169-36.5356Q71.2402-34.3994 66.9189-34.3994ZM37.5244 24.3408L144.385 24.3408Q154.834 24.3408 160.352 18.8721Q165.869 13.4033 165.869 3.02734L165.869-73.4375Q165.869-83.7891 160.352-89.27Q154.834-94.751 144.385-94.751L37.5244-94.751Q27.0996-94.751 21.582-89.2822Q16.0645-83.8135 16.0645-73.4375L16.0645 3.02734Q16.0645 13.4277 21.582 18.8843Q27.0996 24.3408 37.5244 24.3408Z"/>
  </g>
  <g id="Semibold-L" transform="matrix(1 0 0 1 1952.64 1556)">
   <path d="M37.7777 11.261Q33.3763 11.261 30.8895 8.76617Q28.4027 6.27136 28.4027 1.8692L28.4027-3.35617L46.2791-18.9026Q48.381-20.7268 50.4852-21.6724Q52.5894-22.6181 54.8157-22.6181Q59.5718-22.6181 63.7581-18.8202L75.5943-8.12302L105.302-34.4704Q109.919-38.4987 115.341-38.4987Q117.915-38.4987 120.514-37.471Q123.113-36.4433 125.349-34.3727L152.822-9.09119L152.822 1.92032Q152.822 6.30417 150.273 8.78258Q147.724 11.261 143.513 11.261ZM65.1863-34.1949Q60.8757-34.1949 57.3223-36.3091Q53.7689-38.4232 51.6384-41.993Q49.5079-45.5627 49.5079-49.8886Q49.5079-54.1496 51.6384-57.7198Q53.7689-61.29 57.3223-63.4285Q60.8757-65.567 65.1863-65.567Q69.4626-65.567 73.0083-63.4285Q76.5541-61.29 78.6682-57.7198Q80.7823-54.1496 80.7823-49.8886Q80.7823-45.5627 78.6682-41.993Q76.5541-38.4232 73.0083-36.3091Q69.4626-34.1949 65.1863-34.1949ZM36.6272 23.5497L144.598 23.5497Q154.692 23.5497 159.943 18.3475Q165.194 13.1454 165.194 3.1517L165.194-73.5619Q165.194-83.5403 159.943-88.7592Q154.692-93.9781 144.598-93.9781L36.6272-93.9781Q26.5663-93.9781 21.3154-88.7756Q16.0645-83.5732 16.0645-73.5619L16.0645 3.1517Q16.0645 13.179 21.3154 18.3643Q26.5663 23.5497 36.6272 23.5497Z"/>
  </g>
  <g id="Medium-L" transform="matrix(1 0 0 1 1656.18 1556)">
   <path d="M36.6188 12.265Q32.0084 12.265 29.4037 9.65538Q26.799 7.04575 26.799 2.4353L26.799-2.06909L45.7542-18.5188Q47.876-20.3568 50.0206-21.3154Q52.1652-22.274 54.3571-22.274Q59.1476-22.274 63.3606-18.4296L75.2304-7.69119L105.12-34.153Q109.831-38.2561 115.273-38.2561Q117.875-38.2561 120.501-37.2082Q123.127-36.1603 125.409-34.0553L153.907-7.85828L153.907 2.50702Q153.907 7.08618 151.267 9.6756Q148.627 12.265 144.167 12.265ZM63.8718-34.0401Q59.5886-34.0401 56.0623-36.1374Q52.536-38.2347 50.4189-41.7809Q48.3017-45.327 48.3017-49.6193Q48.3017-53.8536 50.4189-57.4001Q52.536-60.9467 56.0623-63.068Q59.5886-65.1894 63.8718-65.1894Q68.1152-65.1894 71.6373-63.068Q75.1595-60.9467 77.2564-57.4001Q79.3533-53.8536 79.3533-49.6193Q79.3533-45.327 77.2564-41.7809Q75.1595-38.2347 71.6373-36.1374Q68.1152-34.0401 63.8718-34.0401ZM35.9459 22.95L144.76 22.95Q154.584 22.95 159.632 17.9501Q164.681 12.9501 164.681 3.24631L164.681-73.6565Q164.681-83.3519 159.632-88.3717Q154.584-93.3914 144.76-93.3914L35.9459-93.3914Q26.162-93.3914 21.1132-88.3915Q16.0645-83.3916 16.0645-73.6565L16.0645 3.24631Q16.0645 12.9906 21.1132 17.9703Q26.162 22.95 35.9459 22.95Z"/>
  </g>
  <g id="Regular-L" transform="matrix(1 0 0 1 1359.81 1556)">
   <path d="M35.1074 13.5742Q30.2246 13.5742 27.4658 10.8154Q24.707 8.05664 24.707 3.17383L24.707-0.390625L45.0684-18.0176Q47.2168-19.873 49.4141-20.8496Q51.6113-21.8262 53.7598-21.8262Q58.5938-21.8262 62.8418-17.9199L74.7559-7.12891L104.883-33.7402Q109.717-37.9395 115.186-37.9395Q117.822-37.9395 120.483-36.8652Q123.145-35.791 125.488-33.6426L155.322-6.25L155.322 3.27148Q155.322 8.10547 152.563 10.8398Q149.805 13.5742 145.02 13.5742ZM62.1582-33.8379Q57.9102-33.8379 54.4189-35.9131Q50.9277-37.9883 48.8281-41.5039Q46.7285-45.0195 46.7285-49.2676Q46.7285-53.4668 48.8281-56.9824Q50.9277-60.498 54.4189-62.5977Q57.9102-64.6973 62.1582-64.6973Q66.3574-64.6973 69.8486-62.5977Q73.3398-60.498 75.415-56.9824Q77.4902-53.4668 77.4902-49.2676Q77.4902-45.0195 75.415-41.5039Q73.3398-37.9883 69.8486-35.9131Q66.3574-33.8379 62.1582-33.8379ZM35.0586 22.168L144.971 22.168Q154.443 22.168 159.229 17.4316Q164.014 12.6953 164.014 3.36914L164.014-73.7793Q164.014-83.1055 159.229-87.8662Q154.443-92.627 144.971-92.627L35.0586-92.627Q25.6348-92.627 20.8496-87.8906Q16.0645-83.1543 16.0645-73.7793L16.0645 3.36914Q16.0645 12.7441 20.8496 17.4561Q25.6348 22.168 35.0586 22.168Z"/>
  </g>
  <g id="Light-L" transform="matrix(1 0 0 1 1063.54 1556)">
   <path d="M33.8814 14.8003Q28.6354 14.8003 25.6569 11.8298Q22.6784 8.85925 22.6784 3.59802L22.6784 0.426483L44.4481-18.2449Q46.6263-20.1302 48.8464-21.1296Q51.0666-22.1291 53.1998-22.1291Q57.9735-22.1291 62.3421-18.1168L74.0746-7.43179L104.292-33.8615Q109.429-38.2721 114.777-38.2721Q117.474-38.2721 120.211-37.1376Q122.948-36.0031 125.413-33.7639L156.473-5.61447L156.473 3.6499Q156.473 8.89282 153.494 11.8465Q150.516 14.8003 145.338 14.8003ZM60.5843-34.1255Q56.3965-34.1255 52.9507-36.1778Q49.5049-38.2301 47.4354-41.7004Q45.3659-45.1706 45.3659-49.3584Q45.3659-53.4973 47.4354-56.9675Q49.5049-60.4378 52.9507-62.5069Q56.3965-64.576 60.5843-64.576Q64.7377-64.576 68.1759-62.5069Q71.6141-60.4378 73.6668-56.9675Q75.7195-53.4973 75.7195-49.3584Q75.7195-45.1706 73.6668-41.7004Q71.6141-38.2301 68.1759-36.1778Q64.7377-34.1255 60.5843-34.1255ZM34.0294 21.3203L145.122 21.3203Q154.034 21.3203 158.577 16.7809Q163.12 12.2414 163.12 3.47519L163.12-73.9304Q163.12-82.6965 158.577-87.2532Q154.034-91.8098 145.122-91.8098L34.0294-91.8098Q25.1503-91.8098 20.6074-87.2929Q16.0645-82.7759 16.0645-73.9304L16.0645 3.47519Q16.0645 12.3199 20.6074 16.8201Q25.1503 21.3203 34.0294 21.3203Z"/>
  </g>
  <g id="Thin-L" transform="matrix(1 0 0 1 767.42 1556)">
   <path d="M32.2601 16.4215Q26.5335 16.4215 23.2651 13.1706Q19.9966 9.91974 19.9966 4.15802L19.9966 1.50757L43.6272-18.5448Q45.8458-20.4704 48.0957-21.5Q50.3456-22.5296 52.459-22.5296Q57.1526-22.5296 61.6814-18.3769L73.1735-7.83234L103.512-34.0218Q109.049-38.7131 114.236-38.7131Q117.014-38.7131 119.851-37.4981Q122.688-36.2831 125.313-33.9241L157.994-4.77371L157.994 4.15039Q157.994 9.93347 154.726 13.1775Q151.457 16.4215 145.758 16.4215ZM58.5022-34.5055Q54.3945-34.5055 51.009-36.528Q47.6234-38.5506 45.594-41.9609Q43.5646-45.3712 43.5646-49.4781Q43.5646-53.537 45.594-56.9473Q47.6234-60.3577 51.009-62.3867Q54.3945-64.4157 58.5022-64.4157Q62.5961-64.4157 65.9641-62.3867Q69.3321-60.3577 71.3547-56.9473Q73.3772-53.537 73.3772-49.4781Q73.3772-45.3712 71.3547-41.9609Q69.3321-38.5506 65.9641-36.528Q62.5961-34.5055 58.5022-34.5055ZM32.6683 20.1996L145.322 20.1996Q153.494 20.1996 157.717 15.9203Q161.939 11.6409 161.939 3.61557L161.939-74.131Q161.939-82.1564 157.717-86.4426Q153.494-90.7288 145.322-90.7288L32.6683-90.7288Q24.5102-90.7288 20.2873-86.5021Q16.0645-82.2754 16.0645-74.131L16.0645 3.61557Q16.0645 11.7599 20.2873 15.9798Q24.5102 20.1996 32.6683 20.1996Z"/>
  </g>
  <g id="Ultralight-L" transform="matrix(1 0 0 1 471.012 1556)">
   <path d="M31.4293 17.2523Q25.4562 17.2523 22.039 13.858Q18.6218 10.4637 18.6218 4.44565L18.6218 2.06146L43.2068-18.6989Q45.446-20.6451 47.7112-21.6896Q49.9763-22.7341 52.0798-22.7341Q56.7322-22.7341 61.3434-18.5104L72.7127-8.0368L103.112-34.1034Q108.854-38.9381 113.96-38.9381Q116.778-38.9381 119.666-37.6823Q122.554-36.4265 125.261-34.0057L158.773-4.34265L158.773 4.40674Q158.773 10.4668 155.356 13.8596Q151.939 17.2523 145.973 17.2523ZM57.4356-34.7008Q53.3691-34.7008 50.0141-36.7077Q46.6591-38.7146 44.6503-42.094Q42.6414-45.4735 42.6414-49.5399Q42.6414-53.5576 44.6503-56.937Q46.6591-60.3165 50.0141-62.3253Q53.3691-64.3341 57.4356-64.3341Q61.4983-64.3341 64.8308-62.3253Q68.1633-60.3165 70.1702-56.937Q72.1771-53.5576 72.1771-49.5399Q72.1771-45.4735 70.1702-42.094Q68.1633-38.7146 64.8308-36.7077Q61.4983-34.7008 57.4356-34.7008ZM31.971 19.6251L145.425 19.6251Q153.217 19.6251 157.276 15.4789Q161.334 11.3327 161.334 3.68729L161.334-74.2332Q161.334-81.8794 157.276-86.0271Q153.217-90.1749 145.425-90.1749L31.971-90.1749Q24.1814-90.1749 20.1229-86.097Q16.0645-82.019 16.0645-74.2332L16.0645 3.68729Q16.0645 11.4723 20.1229 15.5487Q24.1814 19.6251 31.971 19.6251Z"/>
  </g>
  <g id="Black-M" transform="matrix(1 0 0 1 2861.96 1126)">
   <path d="M35.0098-4.10156Q32.5684-4.10156 31.1768-5.51758Q29.7852-6.93359 29.7852-9.32617L29.7852-17.0898L38.4277-24.707Q39.9902-26.0742 41.4062-26.7334Q42.8223-27.3926 44.7266-27.3926Q48.2422-27.3926 51.3672-24.6094L60.3027-16.6016L82.373-36.3281Q85.5469-39.1602 89.6484-39.1602Q91.5039-39.1602 93.3838-38.4521Q95.2637-37.7441 96.8262-36.2793L113.086-21.2891L113.086-9.375Q113.086-6.93359 111.523-5.51758Q109.961-4.10156 107.861-4.10156ZM56.9336-35.3516Q53.4668-35.3516 50.5859-37.085Q47.7051-38.8184 45.9961-41.6748Q44.2871-44.5312 44.2871-48.0469Q44.2871-51.4648 45.9961-54.3457Q47.7051-57.2266 50.5859-58.96Q53.4668-60.6934 56.9336-60.6934Q60.4004-60.6934 63.2568-58.96Q66.1133-57.2266 67.8467-54.3457Q69.5801-51.4648 69.5801-48.0469Q69.5801-44.5312 67.8467-41.6748Q66.1133-38.8184 63.2568-37.085Q60.4004-35.3516 56.9336-35.3516ZM31.5918 13.2324L111.279 13.2324Q120.312 13.2324 125.366 8.17871Q130.42 3.125 130.42-5.9082L130.42-64.4531Q130.42-73.5352 125.366-78.5645Q120.312-83.5938 111.279-83.5938L31.5918-83.5938Q22.5586-83.5938 17.5049-78.5645Q12.4512-73.5352 12.4512-64.4531L12.4512-5.9082Q12.4512 3.125 17.5049 8.17871Q22.5586 13.2324 31.5918 13.2324Z"/>
  </g>
  <g id="Heavy-M" transform="matrix(1 0 0 1 2565.59 1126)">
   <path d="M33.3275-2.68402Q30.632-2.68402 29.0909-4.24423Q27.5497-5.80444 27.5497-8.47321L27.5497-15.1077L37.69-24.0158Q39.2639-25.3944 40.7494-26.0708Q42.2348-26.7471 44.0697-26.7471Q47.6547-26.7471 50.8026-23.9182L59.8305-15.818L82.1999-35.775Q85.466-38.6765 89.6141-38.6765Q91.5039-38.6765 93.4185-37.9509Q95.3331-37.2253 96.9299-35.7262L114.653-19.3642L114.653-8.4877Q114.653-5.793 112.981-4.23851Q111.309-2.68402 108.887-2.68402ZM55.0781-35.0288Q51.6457-35.0288 48.7995-36.7393Q45.9534-38.4499 44.2616-41.2773Q42.5697-44.1048 42.5697-47.5746Q42.5697-50.9689 44.2616-53.8155Q45.9534-56.662 48.7995-58.3721Q51.6457-60.0822 55.0781-60.0822Q58.4991-60.0822 61.3266-58.3721Q64.1541-56.662 65.8646-53.8155Q67.5751-50.9689 67.5751-47.5746Q67.5751-44.1048 65.8646-41.2773Q64.1541-38.4499 61.3266-36.7393Q58.4991-35.0288 55.0781-35.0288ZM30.6931 12.4023L111.51 12.4023Q120.232 12.4023 124.992 7.64847Q129.752 2.89459 129.752-5.78156L129.752-64.5912Q129.752-73.3047 124.992-78.046Q120.232-82.7873 111.51-82.7873L30.6931-82.7873Q21.9826-82.7873 17.2169-78.0518Q12.4512-73.3162 12.4512-64.5912L12.4512-5.78156Q12.4512 2.89459 17.2169 7.64847Q21.9826 12.4023 30.6931 12.4023Z"/>
  </g>
  <g id="Bold-M" transform="matrix(1 0 0 1 2269.25 1126)">
   <path d="M31.4453-1.09863Q28.4668-1.09863 26.7578-2.81982Q25.0488-4.54102 25.0488-7.51953L25.0488-12.8906L36.8652-23.2422Q38.4521-24.6338 40.0146-25.3296Q41.5771-26.0254 43.335-26.0254Q46.9971-26.0254 50.1709-23.1445L59.3018-14.9414L82.0068-35.1562Q85.376-38.1348 89.5752-38.1348Q91.5039-38.1348 93.457-37.3901Q95.4102-36.6455 97.0459-35.1074L116.406-17.2119L116.406-7.49512Q116.406-4.5166 114.612-2.80762Q112.817-1.09863 110.034-1.09863ZM53.0029-34.668Q49.6094-34.668 46.8018-36.3525Q43.9941-38.0371 42.3218-40.8325Q40.6494-43.6279 40.6494-47.0459Q40.6494-50.415 42.3218-53.2227Q43.9941-56.0303 46.8018-57.7148Q49.6094-59.3994 53.0029-59.3994Q56.3721-59.3994 59.1675-57.7148Q61.9629-56.0303 63.6475-53.2227Q65.332-50.415 65.332-47.0459Q65.332-43.6279 63.6475-40.8325Q61.9629-38.0371 59.1675-36.3525Q56.3721-34.668 53.0029-34.668ZM29.6875 11.4746L111.768 11.4746Q120.142 11.4746 124.573 7.05566Q129.004 2.63672 129.004-5.63965L129.004-64.7461Q129.004-73.0469 124.573-77.4658Q120.142-81.8848 111.768-81.8848L29.6875-81.8848Q21.3379-81.8848 16.8945-77.478Q12.4512-73.0713 12.4512-64.7461L12.4512-5.63965Q12.4512 2.63672 16.8945 7.05566Q21.3379 11.4746 29.6875 11.4746Z"/>
  </g>
  <g id="Semibold-M" transform="matrix(1 0 0 1 1972.8 1126)">
   <path d="M30.1476-0.00534058Q26.9737-0.00534058 25.1492-1.83754Q23.3246-3.66974 23.3246-6.86188L23.3246-11.3617L36.2968-22.7089Q37.8922-24.1096 39.5081-24.8188Q41.124-25.528 42.8284-25.528Q46.5439-25.528 49.7353-22.6112L58.9371-14.3372L81.8733-34.7298Q85.3134-37.7617 89.5485-37.7617Q91.5039-37.7617 93.4837-37.0037Q95.4636-36.2457 97.126-34.6809L117.615-15.728L117.615-6.81076Q117.615-3.63693 115.736-1.82114Q113.857-0.00534058 110.825-0.00534058ZM51.5724-34.4193Q48.2056-34.4193 45.4243-36.0859Q42.643-37.7525 40.984-40.5258Q39.325-43.2991 39.325-46.6812Q39.325-50.0328 40.984-52.8137Q42.643-55.5946 45.4243-57.2617Q48.2056-58.9287 51.5724-58.9287Q54.9057-58.9287 57.679-57.2617Q60.4523-55.5946 62.1189-52.8137Q63.7856-50.0328 63.7856-46.6812Q63.7856-43.2991 62.1189-40.5258Q60.4523-37.7525 57.679-36.0859Q54.9057-34.4193 51.5724-34.4193ZM28.994 10.8345L111.945 10.8345Q120.079 10.8345 124.284 6.64673Q128.488 2.45895 128.488-5.54199L128.488-64.8529Q128.488-72.8691 124.284-77.066Q120.079-81.263 111.945-81.263L28.994-81.263Q20.8939-81.263 16.6725-77.0828Q12.4512-72.9027 12.4512-64.8529L12.4512-5.54199Q12.4512 2.45895 16.6725 6.64673Q20.8939 10.8345 28.994 10.8345Z"/>
  </g>
  <g id="Medium-M" transform="matrix(1 0 0 1 1676.28 1126)">
   <path d="M29.1641 0.823212Q25.8415 0.823212 23.9296-1.09329Q22.0177-3.0098 22.0177-6.36292L22.0177-10.2028L35.865-22.3045Q37.468-23.7122 39.1239-24.4312Q40.7799-25.1503 42.4446-25.1503Q46.1998-25.1503 49.4049-22.2069L58.6609-13.8786L81.7726-34.4063Q85.2669-37.4786 89.5287-37.4786Q91.5039-37.4786 93.504-36.7104Q95.504-35.9421 97.1863-34.3575L118.531-14.6027L118.531-6.29196Q118.531-2.96936 116.588-1.07307Q114.645 0.823212 111.425 0.823212ZM50.4875-34.2308Q47.1405-34.2308 44.3798-35.8841Q41.6191-37.5374 39.97-40.2935Q38.3209-43.0496 38.3209-46.405Q38.3209-49.7429 39.97-52.5036Q41.6191-55.2643 44.3798-56.918Q47.1405-58.5716 50.4875-58.5716Q53.7941-58.5716 56.5502-56.918Q59.3063-55.2643 60.9596-52.5036Q62.6129-49.7429 62.6129-46.405Q62.6129-43.0496 60.9596-40.2935Q59.3063-37.5374 56.5502-35.8841Q53.7941-34.2308 50.4875-34.2308ZM28.4691 10.3493L112.08 10.3493Q120.033 10.3493 124.065 6.33659Q128.098 2.32391 128.098-5.46799L128.098-64.9338Q128.098-72.7341 124.065-76.7624Q120.033-80.7907 112.08-80.7907L28.4691-80.7907Q20.5566-80.7907 16.5039-76.7826Q12.4512-72.7745 12.4512-64.9338L12.4512-5.46799Q12.4512 2.32391 16.5039 6.33659Q20.5566 10.3493 28.4691 10.3493Z"/>
  </g>
  <g id="Regular-M" transform="matrix(1 0 0 1 1379.82 1126)">
   <path d="M27.8809 1.9043Q24.3652 1.9043 22.3389-0.12207Q20.3125-2.14844 20.3125-5.71289L20.3125-8.69141L35.3027-21.7773Q36.9141-23.1934 38.623-23.9258Q40.332-24.6582 41.9434-24.6582Q45.752-24.6582 48.9746-21.6797L58.3008-13.2812L81.6406-33.9844Q85.2051-37.1094 89.502-37.1094Q91.5039-37.1094 93.5303-36.3281Q95.5566-35.5469 97.2656-33.9355L119.727-13.1348L119.727-5.61523Q119.727-2.09961 117.7-0.0976562Q115.674 1.9043 112.207 1.9043ZM49.0723-33.9844Q45.752-33.9844 43.0176-35.6201Q40.2832-37.2559 38.6475-39.9902Q37.0117-42.7246 37.0117-46.0449Q37.0117-49.3652 38.6475-52.0996Q40.2832-54.834 43.0176-56.4697Q45.752-58.1055 49.0723-58.1055Q52.3438-58.1055 55.0781-56.4697Q57.8125-54.834 59.4482-52.0996Q61.084-49.3652 61.084-46.0449Q61.084-42.7246 59.4482-39.9902Q57.8125-37.2559 55.0781-35.6201Q52.3438-33.9844 49.0723-33.9844ZM27.7832 9.7168L112.256 9.7168Q119.971 9.7168 123.779 5.93262Q127.588 2.14844 127.588-5.37109L127.588-65.0391Q127.588-72.5586 123.779-76.3672Q119.971-80.1758 112.256-80.1758L27.7832-80.1758Q20.1172-80.1758 16.2842-76.3916Q12.4512-72.6074 12.4512-65.0391L12.4512-5.37109Q12.4512 2.14844 16.2842 5.93262Q20.1172 9.7168 27.7832 9.7168Z"/>
  </g>
  <g id="Light-M" transform="matrix(1 0 0 1 1083.51 1126)">
   <path d="M26.7914 2.99377Q22.9271 2.99377 20.7115 0.785828Q18.4959-1.42212 18.4959-5.33447L18.4959-7.96509L34.7427-21.9742Q36.3846-23.4207 38.1084-24.1756Q39.8323-24.9306 41.4589-24.9306Q45.2072-24.9306 48.5359-21.8613L57.695-13.5536L81.1111-34.1057Q84.948-37.4123 89.1388-37.4123Q91.1858-37.4123 93.2804-36.5704Q95.3751-35.7285 97.2054-34.0416L120.756-12.5595L120.756-5.26733Q120.756-1.38855 118.54 0.802612Q116.325 2.99377 112.495 2.99377ZM47.6646-34.2415Q44.3893-34.2415 41.6931-35.8547Q38.9969-37.468 37.3913-40.1646Q35.7857-42.8612 35.7857-46.1357Q35.7857-49.3958 37.3913-52.092Q38.9969-54.7882 41.6931-56.4014Q44.3893-58.0147 47.6646-58.0147Q50.8904-58.0147 53.5793-56.4014Q56.2683-54.7882 57.8815-52.092Q59.4948-49.3958 59.4948-46.1357Q59.4948-42.8612 57.8815-40.1646Q56.2683-37.468 53.5793-35.8547Q50.8904-34.2415 47.6646-34.2415ZM26.8448 8.95996L112.392 8.95996Q119.592 8.95996 123.196 5.35736Q126.801 1.75476 126.801-5.2803L126.801-65.1756Q126.801-72.1954 123.196-75.8224Q119.592-79.4495 112.392-79.4495L26.8448-79.4495Q19.693-79.4495 16.0721-75.8545Q12.4512-72.2595 12.4512-65.1756L12.4512-5.2803Q12.4512 1.78528 16.0721 5.37262Q19.693 8.95996 26.8448 8.95996Z"/>
  </g>
  <g id="Thin-M" transform="matrix(1 0 0 1 787.317 1126)">
   <path d="M25.3494 4.43573Q21.0258 4.43573 18.56 1.98746Q16.0942-0.460815 16.0942-4.83398L16.0942-7.00378L34.0019-22.2343Q35.6834-23.7206 37.4275-24.5056Q39.1716-25.2907 40.8188-25.2907Q44.4862-25.2907 47.9553-22.1016L56.8947-13.9137L80.41-34.2659Q84.6077-37.8128 88.6581-37.8128Q90.7654-37.8128 92.9501-36.8908Q95.1347-35.9688 97.1252-34.182L122.117-11.7989L122.117-4.80652Q122.117-0.447083 119.651 1.99432Q117.185 4.43573 112.875 4.43573ZM45.8031-34.5818Q42.588-34.5818 39.9414-36.1649Q37.2948-37.748 35.7296-40.3946Q34.1644-43.0412 34.1644-46.2555Q34.1644-49.4354 35.7296-52.0821Q37.2948-54.7287 39.9414-56.3118Q42.588-57.8949 45.8031-57.8949Q48.9693-57.8949 51.598-56.3118Q54.2267-54.7287 55.8098-52.0821Q57.3929-49.4354 57.3929-46.2555Q57.3929-43.0412 55.8098-40.3946Q54.2267-37.748 51.598-36.1649Q48.9693-34.5818 45.8031-34.5818ZM25.6035 7.95898L112.572 7.95898Q119.092 7.95898 122.426 4.59671Q125.76 1.23444 125.76-5.16052L125.76-65.3557Q125.76-71.7148 122.426-75.1015Q119.092-78.4882 112.572-78.4882L25.6035-78.4882Q19.133-78.4882 15.7921-75.1434Q12.4512-71.7987 12.4512-65.3557L12.4512-5.16052Q12.4512 1.30463 15.7921 4.63181Q19.133 7.95898 25.6035 7.95898Z"/>
  </g>
  <g id="Ultralight-M" transform="matrix(1 0 0 1 490.872 1126)">
   <path d="M24.6117 5.17349Q20.0516 5.17349 17.4576 2.60239Q14.8636 0.0312805 14.8636-4.57764L14.8636-6.51169L33.6227-22.3679Q35.3249-23.8747 37.0792-24.675Q38.8336-25.4753 40.49-25.4753Q44.117-25.4753 47.6578-22.2244L56.4842-14.0984L80.0514-34.3475Q84.433-38.0173 88.4125-38.0173Q90.5502-38.0173 92.7811-37.0544Q95.0119-36.0916 97.084-34.2537L122.814-11.409L122.814-4.57077Q122.814 0.0343323 120.22 2.60391Q117.626 5.17349 113.07 5.17349ZM44.8494-34.7565Q41.6649-34.7565 39.0442-36.3239Q36.4235-37.8914 34.8785-40.5125Q33.3336-43.1335 33.3336-46.3173Q33.3336-49.456 34.8785-52.0767Q36.4235-54.6974 39.0442-56.2653Q41.6649-57.8331 44.8494-57.8331Q47.9843-57.8331 50.5825-56.2653Q53.1807-54.6974 54.7482-52.0767Q56.3156-49.456 56.3156-46.3173Q56.3156-43.1335 54.7482-40.5125Q53.1807-37.8914 50.5825-36.3239Q47.9843-34.7565 44.8494-34.7565ZM24.968 7.44629L112.665 7.44629Q118.835 7.44629 122.031 4.20685Q125.227 0.967407 125.227-5.09872L125.227-65.448Q125.227-71.4691 122.031-74.7326Q118.835-77.9961 112.665-77.9961L24.968-77.9961Q18.8454-77.9961 15.6483-74.7795Q12.4512-71.563 12.4512-65.448L12.4512-5.09872Q12.4512 1.05896 15.6483 4.25262Q18.8454 7.44629 24.968 7.44629Z"/>
  </g>
  <g id="Black-S" transform="matrix(1 0 0 1 2877.35 696)">
   <path d="M27.8809-11.2305Q26.0742-11.2305 25-12.3047Q23.9258-13.3789 23.9258-15.1855L23.9258-21.582L30.3223-27.1973Q31.543-28.2715 32.6172-28.7842Q33.6914-29.2969 35.2051-29.2969Q37.9395-29.2969 40.3809-27.1484L47.3633-20.8984L64.5508-36.2793Q67.041-38.4766 70.2148-38.4766Q73.4375-38.4766 75.8301-36.2305L88.1836-24.8535L88.1836-15.2344Q88.1836-13.3789 86.9873-12.3047Q85.791-11.2305 84.2285-11.2305ZM45.1172-35.4492Q41.0156-35.4492 38.0859-38.3789Q35.1562-41.3086 35.1562-45.4102Q35.1562-49.4629 38.0859-52.417Q41.0156-55.3711 45.1172-55.3711Q49.1699-55.3711 52.0996-52.417Q55.0293-49.4629 55.0293-45.4102Q55.0293-41.3086 52.0996-38.3789Q49.1699-35.4492 45.1172-35.4492ZM25 2.92969L87.1094 2.92969Q94.2871 2.92969 98.3154-1.09863Q102.344-5.12695 102.344-12.3047L102.344-58.1055Q102.344-65.2832 98.3154-69.3115Q94.2871-73.3398 87.1094-73.3398L25-73.3398Q17.8223-73.3398 13.7939-69.3115Q9.76562-65.2832 9.76562-58.1055L9.76562-12.3047Q9.76562-5.12695 13.7939-1.09863Q17.8223 2.92969 25 2.92969Z"/>
  </g>
  <g id="Heavy-S" transform="matrix(1 0 0 1 2580.87 696)">
   <path d="M26.59-10.1585Q24.5872-10.1585 23.4154-11.3251Q22.2435-12.4916 22.2435-14.5058L22.2435-19.9799L29.7577-26.5862Q30.9898-27.6604 32.1217-28.1849Q33.2535-28.7094 34.7092-28.7094Q37.513-28.7094 39.9658-26.5373L47.0406-20.1958L64.4699-35.7834Q67.0067-38.0272 70.2377-38.0272Q73.4955-38.0272 75.9338-35.7346L89.3936-23.275L89.3936-14.5195Q89.3936-12.4916 88.1283-11.3251Q86.8629-10.1585 85.07-10.1585ZM43.7111-35.1379Q39.6439-35.1379 36.7432-38.039Q33.8425-40.9401 33.8425-44.9951Q33.8425-49.0135 36.7432-51.9386Q39.6439-54.8637 43.7111-54.8637Q47.7295-54.8637 50.6245-51.9386Q53.5194-49.0135 53.5194-44.9951Q53.5194-40.9401 50.6245-38.039Q47.7295-35.1379 43.7111-35.1379ZM24.3431 2.33078L87.294 2.33078Q94.2642 2.33078 98.0679-1.47285Q101.871-5.27649 101.871-12.2124L101.871-58.1978Q101.871-65.1337 98.0679-68.9373Q94.2642-72.7409 87.294-72.7409L24.3431-72.7409Q17.3958-72.7409 13.5807-68.9373Q9.76562-65.1337 9.76562-58.1978L9.76562-12.2124Q9.76562-5.27649 13.5807-1.47285Q17.3958 2.33078 24.3431 2.33078Z"/>
  </g>
  <g id="Bold-S" transform="matrix(1 0 0 1 2284.42 696)">
   <path d="M25.1465-8.95996Q22.9248-8.95996 21.6431-10.2295Q20.3613-11.499 20.3613-13.7451L20.3613-18.1885L29.126-25.9033Q30.3711-26.9775 31.5674-27.5146Q32.7637-28.0518 34.1553-28.0518Q37.0361-28.0518 39.502-25.8545L46.6797-19.4092L64.3799-35.2295Q66.9678-37.5244 70.2637-37.5244Q73.5596-37.5244 76.0498-35.1807L90.7471-21.5088L90.7471-13.7207Q90.7471-11.499 89.4043-10.2295Q88.0615-8.95996 86.0107-8.95996ZM42.1387-34.79Q38.1104-34.79 35.2417-37.6587Q32.373-40.5273 32.373-44.5312Q32.373-48.5107 35.2417-51.4038Q38.1104-54.2969 42.1387-54.2969Q46.1182-54.2969 48.9746-51.4038Q51.8311-48.5107 51.8311-44.5312Q51.8311-40.5273 48.9746-37.6587Q46.1182-34.79 42.1387-34.79ZM23.6084 1.66016L87.5 1.66016Q94.2383 1.66016 97.7905-1.89209Q101.343-5.44434 101.343-12.1094L101.343-58.3008Q101.343-64.9658 97.7905-68.5181Q94.2383-72.0703 87.5-72.0703L23.6084-72.0703Q16.9189-72.0703 13.3423-68.5181Q9.76562-64.9658 9.76562-58.3008L9.76562-12.1094Q9.76562-5.44434 13.3423-1.89209Q16.9189 1.66016 23.6084 1.66016Z"/>
  </g>
  <g id="Semibold-S" transform="matrix(1 0 0 1 1987.89 696)">
   <path d="M24.1508-8.1337Q21.7781-8.1337 20.4208-9.47418Q19.0636-10.8147 19.0636-13.221L19.0636-16.9533L28.6903-25.4326Q29.9446-26.5068 31.1852-27.0527Q32.4257-27.5986 33.773-27.5986Q36.7073-27.5986 39.1823-25.3838L46.431-18.8667L64.3173-34.8473Q66.9411-37.178 70.2812-37.178Q73.6038-37.178 76.1299-34.7984L91.6801-20.2911L91.6801-13.1699Q91.6801-10.8147 90.284-9.47418Q88.8878-8.1337 86.6592-8.1337ZM41.0545-34.5497Q37.0529-34.5497 34.2064-37.3962Q31.3599-40.2428 31.3599-44.2116Q31.3599-48.1644 34.2064-51.0349Q37.0529-53.9055 41.0545-53.9055Q45.0073-53.9055 47.8371-51.0349Q50.6668-48.1644 50.6668-44.2116Q50.6668-40.2428 47.8371-37.3962Q45.0073-34.5497 41.0545-34.5497ZM23.1018 1.19781L87.6419 1.19781Q94.2207 1.19781 97.5994-2.18086Q100.978-5.55954 100.978-12.0384L100.978-58.3717Q100.978-64.8506 97.5994-68.2293Q94.2207-71.608 87.6419-71.608L23.1018-71.608Q16.5901-71.608 13.1779-68.2293Q9.76562-64.8506 9.76562-58.3717L9.76562-12.0384Q9.76562-5.55954 13.1779-2.18086Q16.5901 1.19781 23.1018 1.19781Z"/>
  </g>
  <g id="Medium-S" transform="matrix(1 0 0 1 1691.32 696)">
   <path d="M23.3963-7.50656Q20.9091-7.50656 19.4946-8.90121Q18.0801-10.2959 18.0801-12.8235L18.0801-16.0164L28.36-25.0755Q29.6211-26.1497 30.8956-26.7021Q32.1701-27.2545 33.4831-27.2545Q36.4578-27.2545 38.9397-25.0267L46.2425-18.4563L64.2708-34.5573Q66.9212-36.9148 70.295-36.9148Q73.6374-36.9148 76.1902-34.5085L92.3874-19.368L92.3874-12.7518Q92.3874-10.2959 90.9512-8.90121Q89.5149-7.50656 87.1513-7.50656ZM40.2321-34.3681Q36.2511-34.3681 33.4213-37.1979Q30.5916-40.0276 30.5916-43.969Q30.5916-47.9012 33.4213-50.7553Q36.2511-53.6095 40.2321-53.6095Q44.165-53.6095 46.9746-50.7553Q49.7841-47.9012 49.7841-43.969Q49.7841-40.0276 46.9746-37.1979Q44.165-34.3681 40.2321-34.3681ZM22.718 0.847626L87.7502 0.847626Q94.207 0.847626 97.4545-2.39983Q100.702-5.64728 100.702-11.9843L100.702-58.4259Q100.702-64.7629 97.4545-68.0103Q94.207-71.2578 87.7502-71.2578L22.718-71.2578Q16.3406-71.2578 13.0531-68.0103Q9.76562-64.7629 9.76562-58.4259L9.76562-11.9843Q9.76562-5.64728 13.0531-2.39983Q16.3406 0.847626 22.718 0.847626Z"/>
  </g>
  <g id="Regular-S" transform="matrix(1 0 0 1 1394.79 696)">
   <path d="M22.4121-6.68945Q19.7754-6.68945 18.2861-8.1543Q16.7969-9.61914 16.7969-12.3047L16.7969-14.7949L27.9297-24.6094Q29.1992-25.6836 30.5176-26.2451Q31.8359-26.8066 33.1055-26.8066Q36.1328-26.8066 38.623-24.5605L45.9961-17.9199L64.209-34.1797Q66.8945-36.5723 70.3125-36.5723Q73.6816-36.5723 76.2695-34.1309L93.3105-18.1641L93.3105-12.207Q93.3105-9.61914 91.8213-8.1543Q90.332-6.68945 87.793-6.68945ZM39.1602-34.1309Q35.2051-34.1309 32.3975-36.9385Q29.5898-39.7461 29.5898-43.6523Q29.5898-47.5586 32.3975-50.3906Q35.2051-53.2227 39.1602-53.2227Q43.0664-53.2227 45.8496-50.3906Q48.6328-47.5586 48.6328-43.6523Q48.6328-39.7461 45.8496-36.9385Q43.0664-34.1309 39.1602-34.1309ZM22.2168 0.390625L87.8906 0.390625Q94.1895 0.390625 97.2656-2.68555Q100.342-5.76172 100.342-11.9141L100.342-58.4961Q100.342-64.6484 97.2656-67.7246Q94.1895-70.8008 87.8906-70.8008L22.2168-70.8008Q16.0156-70.8008 12.8906-67.7246Q9.76562-64.6484 9.76562-58.4961L9.76562-11.9141Q9.76562-5.76172 12.8906-2.68555Q16.0156 0.390625 22.2168 0.390625Z"/>
  </g>
  <g id="Light-S" transform="matrix(1 0 0 1 1098.43 696)">
   <path d="M21.4432-5.72052Q18.5036-5.72052 16.848-7.3597Q15.1924-8.99887 15.1924-11.972L15.1924-14.1441L27.43-24.7757Q28.73-25.8804 30.0636-26.4645Q31.3972-27.0485 32.6668-27.0485Q35.6483-27.0485 38.2141-24.7116L45.4514-18.1473L63.7398-34.2857Q66.6672-36.8294 69.9944-36.8294Q73.394-36.8294 76.2093-34.2369L94.2184-17.6643L94.2184-11.9041Q94.2184-8.99887 92.5629-7.3597Q90.9073-5.72052 88.0348-5.72052ZM37.9036-34.3582Q34.024-34.3582 31.2622-37.1204Q28.5004-39.8827 28.5004-43.7279Q28.5004-47.5739 31.2622-50.3529Q34.024-53.1319 37.9036-53.1319Q41.7496-53.1319 44.4874-50.3529Q47.2252-47.5739 47.2252-43.7279Q47.2252-39.8827 44.4874-37.1204Q41.7496-34.3582 37.9036-34.3582ZM21.3997-0.29068L88.0119-0.29068Q93.8568-0.29068 96.751-3.20015Q99.6452-6.10962 99.6452-11.8233L99.6452-58.6174Q99.6452-64.3303 96.751-67.2401Q93.8568-70.15 88.0119-70.15L21.3997-70.15Q15.6219-70.15 12.6938-67.2554Q9.76562-64.3608 9.76562-58.6174L9.76562-11.8233Q9.76562-6.07986 12.6938-3.18527Q15.6219-0.29068 21.3997-0.29068Z"/>
  </g>
  <g id="Thin-S" transform="matrix(1 0 0 1 802.177 696)">
   <path d="M20.1622-4.43954Q16.8221-4.43954 14.9464-6.30875Q13.0707-8.17795 13.0707-11.5311L13.0707-13.2835L26.7693-24.9962Q28.1097-26.1406 29.4632-26.7548Q30.8167-27.3689 32.0862-27.3689Q35.0082-27.3689 37.674-24.9123L44.7304-18.4471L63.1195-34.4261Q66.3673-37.1696 69.574-37.1696Q73.0141-37.1696 76.1292-34.3773L95.4201-17.0036L95.4201-11.5036Q95.4201-8.17795 93.544-6.30875Q91.6679-4.43954 88.3553-4.43954ZM36.2427-34.6581Q32.4631-34.6581 29.7607-37.3604Q27.0584-40.0627 27.0584-43.8278Q27.0584-47.5937 29.7607-50.3029Q32.4631-53.0121 36.2427-53.0121Q40.0078-53.0121 42.6857-50.3029Q45.3636-47.5937 45.3636-43.8278Q45.3636-40.0627 42.6857-37.3604Q40.0078-34.6581 36.2427-34.6581ZM20.3186-1.19171L88.1721-1.19171Q93.4158-1.19171 96.0701-3.88107Q98.7244-6.57043 98.7244-11.7035L98.7244-58.7776Q98.7244-63.9099 96.0701-66.5997Q93.4158-69.2894 88.1721-69.2894L20.3186-69.2894Q15.1016-69.2894 12.4336-66.6351Q9.76562-63.9809 9.76562-58.7776L9.76562-11.7035Q9.76562-6.50024 12.4336-3.84598Q15.1016-1.19171 20.3186-1.19171Z"/>
  </g>
  <g id="Ultralight-S" transform="matrix(1 0 0 1 505.702 696)">
   <path d="M19.5061-3.78342Q15.9607-3.78342 13.9721-5.77049Q11.9835-7.75757 11.9835-11.306L11.9835-12.8426L26.4313-25.1091Q27.7916-26.2741 29.1553-26.9035Q30.5191-27.533 31.7886-27.533Q34.6794-27.533 37.397-25.0145L44.3611-18.6012L62.8014-34.4978Q66.2132-37.3444 69.3588-37.3444Q72.8188-37.3444 76.088-34.449L96.035-16.6656L96.035-11.2991Q96.035-7.75757 94.0464-5.77049Q92.0578-3.78342 88.5193-3.78342ZM35.3912-34.8122Q31.6628-34.8122 28.9917-37.4836Q26.3206-40.155 26.3206-43.8797Q26.3206-47.6044 28.9917-50.2773Q31.6628-52.9503 35.3912-52.9503Q39.1159-52.9503 41.7629-50.2773Q44.4099-47.6044 44.4099-43.8797Q44.4099-40.155 41.7629-37.4836Q39.1159-34.8122 35.3912-34.8122ZM19.7647-1.65253L88.2538-1.65253Q93.1908-1.65253 95.7218-4.22935Q98.2529-6.80618 98.2529-11.6417L98.2529-58.8593Q98.2529-63.6948 95.7218-66.2716Q93.1908-68.8484 88.2538-68.8484L19.7647-68.8484Q14.8346-68.8484 12.3001-66.317Q9.76562-63.7856 9.76562-58.8593L9.76562-11.6417Q9.76562-6.71539 12.3001-4.18396Q14.8346-1.65253 19.7647-1.65253Z"/>
  </g>
 </g>
</svg>
