<?xml version="1.0" encoding="UTF-8"?>
<!--Generator: Apple Native CoreSVG 175-->
<!DOCTYPE svg
PUBLIC "-//W3C//DTD SVG 1.1//EN"
       "http://www.w3.org/Graphics/SVG/1.1/DTD/svg11.dtd">
<svg version="1.1" xmlns="http://www.w3.org/2000/svg" xmlns:xlink="http://www.w3.org/1999/xlink" width="3300" height="2200">
 <!--glyph: "uni100184.medium", point size: 100.0, font version: "17.0d12e1", template writer version: "65.1"-->
 <style>.multicolor-0:systemRedColor {fill:#FF3B30;opacity:1.0}

.SFSymbolsPreviewFF3B30 {fill:#FF3B30;opacity:1.0}
</style>
 <g id="Notes">
  <rect height="2200" id="artboard" style="fill:white;opacity:1" width="3300" x="0" y="0"/>
  <line style="fill:none;stroke:black;opacity:1;stroke-width:0.5;" x1="263" x2="3036" y1="292" y2="292"/>
  <text style="stroke:none;fill:black;font-family:sans-serif;font-size:13;font-weight:bold;" transform="matrix(1 0 0 1 263 322)">Weight/Scale Variations</text>
  <text style="stroke:none;fill:black;font-family:sans-serif;font-size:13;text-anchor:middle;" transform="matrix(1 0 0 1 559.711 322)">Ultralight</text>
  <text style="stroke:none;fill:black;font-family:sans-serif;font-size:13;text-anchor:middle;" transform="matrix(1 0 0 1 856.422 322)">Thin</text>
  <text style="stroke:none;fill:black;font-family:sans-serif;font-size:13;text-anchor:middle;" transform="matrix(1 0 0 1 1153.13 322)">Light</text>
  <text style="stroke:none;fill:black;font-family:sans-serif;font-size:13;text-anchor:middle;" transform="matrix(1 0 0 1 1449.84 322)">Regular</text>
  <text style="stroke:none;fill:black;font-family:sans-serif;font-size:13;text-anchor:middle;" transform="matrix(1 0 0 1 1746.56 322)">Medium</text>
  <text style="stroke:none;fill:black;font-family:sans-serif;font-size:13;text-anchor:middle;" transform="matrix(1 0 0 1 2043.27 322)">Semibold</text>
  <text style="stroke:none;fill:black;font-family:sans-serif;font-size:13;text-anchor:middle;" transform="matrix(1 0 0 1 2339.98 322)">Bold</text>
  <text style="stroke:none;fill:black;font-family:sans-serif;font-size:13;text-anchor:middle;" transform="matrix(1 0 0 1 2636.69 322)">Heavy</text>
  <text style="stroke:none;fill:black;font-family:sans-serif;font-size:13;text-anchor:middle;" transform="matrix(1 0 0 1 2933.4 322)">Black</text>
  <line style="fill:none;stroke:black;opacity:1;stroke-width:0.5;" x1="263" x2="3036" y1="1903" y2="1903"/>
  <g transform="matrix(1 0 0 1 263 1933)">
   <path d="M9.24805 0.830078Q10.8691 0.830078 12.2949 0.214844Q13.7207-0.400391 14.8096-1.49414Q15.8984-2.58789 16.5186-4.01367Q17.1387-5.43945 17.1387-7.05078Q17.1387-8.66211 16.5186-10.0879Q15.8984-11.5137 14.8047-12.6074Q13.7109-13.7012 12.2852-14.3164Q10.8594-14.9316 9.23828-14.9316Q7.62695-14.9316 6.20117-14.3164Q4.77539-13.7012 3.69141-12.6074Q2.60742-11.5137 1.9873-10.0879Q1.36719-8.66211 1.36719-7.05078Q1.36719-5.43945 1.9873-4.01367Q2.60742-2.58789 3.69629-1.49414Q4.78516-0.400391 6.21094 0.214844Q7.63672 0.830078 9.24805 0.830078ZM9.24805-0.654297Q7.91992-0.654297 6.7627-1.14746Q5.60547-1.64062 4.73145-2.51953Q3.85742-3.39844 3.36426-4.56055Q2.87109-5.72266 2.87109-7.05078Q2.87109-8.37891 3.35938-9.54102Q3.84766-10.7031 4.72168-11.582Q5.5957-12.4609 6.75293-12.9541Q7.91016-13.4473 9.23828-13.4473Q10.5762-13.4473 11.7334-12.9541Q12.8906-12.4609 13.7695-11.582Q14.6484-10.7031 15.1465-9.54102Q15.6445-8.37891 15.6445-7.05078Q15.6445-5.72266 15.1514-4.56055Q14.6582-3.39844 13.7842-2.51953Q12.9102-1.64062 11.748-1.14746Q10.5859-0.654297 9.24805-0.654297ZM5.6543-7.05078Q5.6543-6.72852 5.85938-6.52832Q6.06445-6.32812 6.40625-6.32812L8.51562-6.32812L8.51562-4.20898Q8.51562-3.88672 8.71094-3.67676Q8.90625-3.4668 9.23828-3.4668Q9.56055-3.4668 9.77051-3.67676Q9.98047-3.88672 9.98047-4.20898L9.98047-6.32812L12.0898-6.32812Q12.4219-6.32812 12.627-6.52832Q12.832-6.72852 12.832-7.05078Q12.832-7.38281 12.627-7.58789Q12.4219-7.79297 12.0898-7.79297L9.98047-7.79297L9.98047-9.90234Q9.98047-10.2344 9.77051-10.4443Q9.56055-10.6543 9.23828-10.6543Q8.90625-10.6543 8.71094-10.4443Q8.51562-10.2344 8.51562-9.90234L8.51562-7.79297L6.40625-7.79297Q6.06445-7.79297 5.85938-7.58789Q5.6543-7.38281 5.6543-7.05078Z"/>
  </g>
  <g transform="matrix(1 0 0 1 281.867 1933)">
   <path d="M11.709 2.91016Q13.75 2.91016 15.5518 2.12891Q17.3535 1.34766 18.7305-0.0292969Q20.1074-1.40625 20.8887-3.20801Q21.6699-5.00977 21.6699-7.05078Q21.6699-9.0918 20.8887-10.8936Q20.1074-12.6953 18.7305-14.0723Q17.3535-15.4492 15.5469-16.2305Q13.7402-17.0117 11.6992-17.0117Q9.6582-17.0117 7.85645-16.2305Q6.05469-15.4492 4.68262-14.0723Q3.31055-12.6953 2.5293-10.8936Q1.74805-9.0918 1.74805-7.05078Q1.74805-5.00977 2.5293-3.20801Q3.31055-1.40625 4.6875-0.0292969Q6.06445 1.34766 7.86621 2.12891Q9.66797 2.91016 11.709 2.91016ZM11.709 1.25Q9.98047 1.25 8.47656 0.605469Q6.97266-0.0390625 5.83496-1.17676Q4.69727-2.31445 4.05762-3.81836Q3.41797-5.32227 3.41797-7.05078Q3.41797-8.7793 4.05762-10.2832Q4.69727-11.7871 5.83008-12.9297Q6.96289-14.0723 8.4668-14.7119Q9.9707-15.3516 11.6992-15.3516Q13.4277-15.3516 14.9316-14.7119Q16.4355-14.0723 17.5781-12.9297Q18.7207-11.7871 19.3652-10.2832Q20.0098-8.7793 20.0098-7.05078Q20.0098-5.32227 19.3701-3.81836Q18.7305-2.31445 17.5928-1.17676Q16.4551-0.0390625 14.9463 0.605469Q13.4375 1.25 11.709 1.25ZM7.17773-7.05078Q7.17773-6.69922 7.41211-6.47461Q7.64648-6.25 8.01758-6.25L10.8887-6.25L10.8887-3.36914Q10.8887-2.99805 11.1133-2.76855Q11.3379-2.53906 11.6895-2.53906Q12.0605-2.53906 12.29-2.76855Q12.5195-2.99805 12.5195-3.36914L12.5195-6.25L15.4004-6.25Q15.7715-6.25 16.001-6.47461Q16.2305-6.69922 16.2305-7.05078Q16.2305-7.42188 16.001-7.65137Q15.7715-7.88086 15.4004-7.88086L12.5195-7.88086L12.5195-10.752Q12.5195-11.1328 12.29-11.3623Q12.0605-11.5918 11.6895-11.5918Q11.3379-11.5918 11.1133-11.3574Q10.8887-11.123 10.8887-10.752L10.8887-7.88086L8.01758-7.88086Q7.63672-7.88086 7.40723-7.65137Q7.17773-7.42188 7.17773-7.05078Z"/>
  </g>
  <g transform="matrix(1 0 0 1 305.646 1933)">
   <path d="M14.9707 5.66406Q17.0605 5.66406 18.96 5.01465Q20.8594 4.36523 22.4512 3.19336Q24.043 2.02148 25.2197 0.429688Q26.3965-1.16211 27.0459-3.06641Q27.6953-4.9707 27.6953-7.05078Q27.6953-9.14062 27.0459-11.04Q26.3965-12.9395 25.2197-14.5312Q24.043-16.123 22.4512-17.2998Q20.8594-18.4766 18.9551-19.126Q17.0508-19.7754 14.9609-19.7754Q12.8711-19.7754 10.9717-19.126Q9.07227-18.4766 7.48535-17.2998Q5.89844-16.123 4.72168-14.5312Q3.54492-12.9395 2.90039-11.04Q2.25586-9.14062 2.25586-7.05078Q2.25586-4.9707 2.90527-3.06641Q3.55469-1.16211 4.72656 0.429688Q5.89844 2.02148 7.49023 3.19336Q9.08203 4.36523 10.9814 5.01465Q12.8809 5.66406 14.9707 5.66406ZM14.9707 3.84766Q13.1641 3.84766 11.5283 3.2959Q9.89258 2.74414 8.53516 1.74805Q7.17773 0.751953 6.17676-0.610352Q5.17578-1.97266 4.62891-3.6084Q4.08203-5.24414 4.08203-7.05078Q4.08203-8.86719 4.62891-10.5029Q5.17578-12.1387 6.17188-13.501Q7.16797-14.8633 8.52539-15.8594Q9.88281-16.8555 11.5186-17.4023Q13.1543-17.9492 14.9609-17.9492Q16.7773-17.9492 18.4131-17.4023Q20.0488-16.8555 21.4111-15.8594Q22.7734-14.8633 23.7695-13.501Q24.7656-12.1387 25.3174-10.5029Q25.8691-8.86719 25.8691-7.05078Q25.8789-5.24414 25.332-3.6084Q24.7852-1.97266 23.7842-0.610352Q22.7832 0.751953 21.4209 1.74805Q20.0586 2.74414 18.4229 3.2959Q16.7871 3.84766 14.9707 3.84766ZM9.19922-7.05078Q9.19922-6.66992 9.45801-6.4209Q9.7168-6.17188 10.1172-6.17188L14.0625-6.17188L14.0625-2.2168Q14.0625-1.81641 14.3115-1.55762Q14.5605-1.29883 14.9512-1.29883Q15.3516-1.29883 15.6104-1.55273Q15.8691-1.80664 15.8691-2.2168L15.8691-6.17188L19.8242-6.17188Q20.2246-6.17188 20.4785-6.4209Q20.7324-6.66992 20.7324-7.05078Q20.7324-7.46094 20.4785-7.71484Q20.2246-7.96875 19.8242-7.96875L15.8691-7.96875L15.8691-11.9141Q15.8691-12.3242 15.6104-12.583Q15.3516-12.8418 14.9512-12.8418Q14.5605-12.8418 14.3115-12.583Q14.0625-12.3242 14.0625-11.9141L14.0625-7.96875L10.1172-7.96875Q9.70703-7.96875 9.45312-7.71484Q9.19922-7.46094 9.19922-7.05078Z"/>
  </g>
  <text style="stroke:none;fill:black;font-family:sans-serif;font-size:13;font-weight:bold;" transform="matrix(1 0 0 1 263 1953)">Design Variations</text>
  <text style="stroke:none;fill:black;font-family:sans-serif;font-size:13;" transform="matrix(1 0 0 1 263 1971)">Symbols are supported in up to nine weights and three scales.</text>
  <text style="stroke:none;fill:black;font-family:sans-serif;font-size:13;" transform="matrix(1 0 0 1 263 1989)">For optimal layout with text and other symbols, vertically align</text>
  <text style="stroke:none;fill:black;font-family:sans-serif;font-size:13;" transform="matrix(1 0 0 1 263 2007)">symbols with the adjacent text.</text>
  <line style="fill:none;stroke:#00AEEF;stroke-width:0.5;opacity:1.0;" x1="776" x2="776" y1="1919" y2="1933"/>
  <g transform="matrix(1 0 0 1 776 1933)">
   <path d="M3.31055 0.15625Q3.70117 0.15625 3.91602-0.00976562Q4.13086-0.175781 4.26758-0.585938L5.52734-4.0332L11.2891-4.0332L12.5488-0.585938Q12.6855-0.175781 12.9004-0.00976562Q13.1152 0.15625 13.4961 0.15625Q13.8867 0.15625 14.1162-0.0585938Q14.3457-0.273438 14.3457-0.644531Q14.3457-0.869141 14.2383-1.17188L9.6582-13.3691Q9.48242-13.8184 9.17969-14.043Q8.87695-14.2676 8.4082-14.2676Q7.5-14.2676 7.17773-13.3789L2.59766-1.16211Q2.49023-0.859375 2.49023-0.634766Q2.49023-0.263672 2.70996-0.0537109Q2.92969 0.15625 3.31055 0.15625ZM6.00586-5.51758L8.37891-12.0898L8.42773-12.0898L10.8008-5.51758Z"/>
  </g>
  <line style="fill:none;stroke:#00AEEF;stroke-width:0.5;opacity:1.0;" x1="793.197" x2="793.197" y1="1919" y2="1933"/>
  <text style="stroke:none;fill:black;font-family:sans-serif;font-size:13;font-weight:bold;" transform="matrix(1 0 0 1 776 1953)">Margins</text>
  <text style="stroke:none;fill:black;font-family:sans-serif;font-size:13;" transform="matrix(1 0 0 1 776 1971)">Leading and trailing margins on the left and right side of each symbol</text>
  <text style="stroke:none;fill:black;font-family:sans-serif;font-size:13;" transform="matrix(1 0 0 1 776 1989)">can be adjusted by modifying the x-location of the margin guidelines.</text>
  <text style="stroke:none;fill:black;font-family:sans-serif;font-size:13;" transform="matrix(1 0 0 1 776 2007)">Modifications are automatically applied proportionally to all</text>
  <text style="stroke:none;fill:black;font-family:sans-serif;font-size:13;" transform="matrix(1 0 0 1 776 2025)">scales and weights.</text>
  <g transform="matrix(1 0 0 1 1289 1933)">
   <path d="M2.8418 1.86523L4.54102 3.57422Q5.18555 4.22852 5.90332 4.17969Q6.62109 4.13086 7.31445 3.35938L18.0078-8.42773L17.041-9.4043L6.42578 2.27539Q6.16211 2.57812 5.89355 2.61719Q5.625 2.65625 5.27344 2.30469L4.10156 1.14258Q3.75 0.791016 3.79395 0.522461Q3.83789 0.253906 4.14062-0.0195312L15.6152-10.8203L14.6387-11.7871L3.04688-0.898438Q2.30469-0.214844 2.25098 0.498047Q2.19727 1.21094 2.8418 1.86523ZM9.25781-16.3281Q8.94531-16.0254 8.90625-15.6348Q8.86719-15.2441 9.04297-14.9512Q9.21875-14.6777 9.55566-14.541Q9.89258-14.4043 10.3809-14.5215Q11.4746-14.7754 12.5977-14.7314Q13.7207-14.6875 14.7949-13.9844L14.209-12.5293Q13.9551-11.9043 14.0674-11.4404Q14.1797-10.9766 14.5801-10.5664L16.875-8.25195Q17.2363-7.88086 17.5781-7.82227Q17.9199-7.76367 18.3398-7.8418L19.4043-8.03711L20.0684-7.36328L20.0293-6.80664Q20-6.43555 20.1221-6.12305Q20.2441-5.81055 20.6055-5.44922L21.3672-4.70703Q21.7285-4.3457 22.1533-4.33105Q22.5781-4.31641 22.9297-4.66797L25.8398-7.58789Q26.1914-7.93945 26.1816-8.35449Q26.1719-8.76953 25.8105-9.13086L25.0391-9.89258Q24.6875-10.2539 24.3799-10.3857Q24.0723-10.5176 23.7109-10.4883L23.1348-10.4395L22.4902-11.0742L22.7344-12.1973Q22.832-12.6172 22.6953-12.9834Q22.5586-13.3496 22.1191-13.7891L19.9219-15.9766Q18.6719-17.2168 17.2607-17.8369Q15.8496-18.457 14.4189-18.4814Q12.9883-18.5059 11.665-17.959Q10.3418-17.4121 9.25781-16.3281ZM10.752-15.957Q11.6602-16.6211 12.7002-16.9043Q13.7402-17.1875 14.8047-17.085Q15.8691-16.9824 16.8701-16.5137Q17.8711-16.0449 18.7012-15.2051L21.1328-12.793Q21.3086-12.6172 21.3525-12.4512Q21.3965-12.2852 21.3379-12.0312L21.0156-10.5469L22.5195-9.0625L23.5059-9.12109Q23.6914-9.13086 23.7891-9.09668Q23.8867-9.0625 24.0332-8.91602L24.6094-8.33984L22.168-5.89844L21.5918-6.47461Q21.4453-6.62109 21.4062-6.71875Q21.3672-6.81641 21.377-7.01172L21.4453-7.98828L19.9512-9.47266L18.4277-9.21875Q18.1836-9.16992 18.042-9.2041Q17.9004-9.23828 17.7148-9.41406L15.7129-11.416Q15.5176-11.5918 15.4932-11.7529Q15.4688-11.9141 15.5859-12.1875L16.4648-14.2773Q15.293-15.3711 13.8281-15.791Q12.3633-16.2109 10.8398-15.7617Q10.7227-15.7324 10.6885-15.8057Q10.6543-15.8789 10.752-15.957Z"/>
  </g>
  <text style="stroke:none;fill:black;font-family:sans-serif;font-size:13;font-weight:bold;" transform="matrix(1 0 0 1 1289 1953)">Exporting</text>
  <text style="stroke:none;fill:black;font-family:sans-serif;font-size:13;" transform="matrix(1 0 0 1 1289 1971)">Symbols should be outlined when exporting to ensure the</text>
  <text style="stroke:none;fill:black;font-family:sans-serif;font-size:13;" transform="matrix(1 0 0 1 1289 1989)">design is preserved when submitting to Xcode.</text>
  <text id="template-version" style="stroke:none;fill:black;font-family:sans-serif;font-size:13;text-anchor:end;" transform="matrix(1 0 0 1 3036 1933)">Template v.3.0</text>
  <text style="stroke:none;fill:black;font-family:sans-serif;font-size:13;text-anchor:end;" transform="matrix(1 0 0 1 3036 1951)">Requires Xcode 13 or greater</text>
  <text id="descriptive-name" style="stroke:none;fill:black;font-family:sans-serif;font-size:13;text-anchor:end;" transform="matrix(1 0 0 1 3036 1969)">Generated from xmark</text>
  <text style="stroke:none;fill:black;font-family:sans-serif;font-size:13;text-anchor:end;" transform="matrix(1 0 0 1 3036 1987)">Typeset at 100 points</text>
  <text style="stroke:none;fill:black;font-family:sans-serif;font-size:13;" transform="matrix(1 0 0 1 263 726)">Small</text>
  <text style="stroke:none;fill:black;font-family:sans-serif;font-size:13;" transform="matrix(1 0 0 1 263 1156)">Medium</text>
  <text style="stroke:none;fill:black;font-family:sans-serif;font-size:13;" transform="matrix(1 0 0 1 263 1586)">Large</text>
 </g>
 <g id="Guides">
  <g id="H-reference" style="fill:#27AAE1;stroke:none;" transform="matrix(1 0 0 1 339 696)">
   <path d="M0.993347 0L3.6377 0L29.3282-67.1326L30.0301-67.1326L30.0301-70.459L28.1227-70.459ZM11.6882-24.4797L46.9818-24.4797L46.2311-26.7288L12.4382-26.7288ZM55.1193 0L57.7637 0L30.6381-70.459L29.4327-70.459L29.4327-67.1326Z"/>
  </g>
  <line id="Baseline-S" style="fill:none;stroke:#27AAE1;opacity:1;stroke-width:0.5;" x1="263" x2="3036" y1="696" y2="696"/>
  <line id="Capline-S" style="fill:none;stroke:#27AAE1;opacity:1;stroke-width:0.5;" x1="263" x2="3036" y1="625.541" y2="625.541"/>
  <g id="H-reference" style="fill:#27AAE1;stroke:none;" transform="matrix(1 0 0 1 339 1126)">
   <path d="M0.993347 0L3.6377 0L29.3282-67.1326L30.0301-67.1326L30.0301-70.459L28.1227-70.459ZM11.6882-24.4797L46.9818-24.4797L46.2311-26.7288L12.4382-26.7288ZM55.1193 0L57.7637 0L30.6381-70.459L29.4327-70.459L29.4327-67.1326Z"/>
  </g>
  <line id="Baseline-M" style="fill:none;stroke:#27AAE1;opacity:1;stroke-width:0.5;" x1="263" x2="3036" y1="1126" y2="1126"/>
  <line id="Capline-M" style="fill:none;stroke:#27AAE1;opacity:1;stroke-width:0.5;" x1="263" x2="3036" y1="1055.54" y2="1055.54"/>
  <g id="H-reference" style="fill:#27AAE1;stroke:none;" transform="matrix(1 0 0 1 339 1556)">
   <path d="M0.993347 0L3.6377 0L29.3282-67.1326L30.0301-67.1326L30.0301-70.459L28.1227-70.459ZM11.6882-24.4797L46.9818-24.4797L46.2311-26.7288L12.4382-26.7288ZM55.1193 0L57.7637 0L30.6381-70.459L29.4327-70.459L29.4327-67.1326Z"/>
  </g>
  <line id="Baseline-L" style="fill:none;stroke:#27AAE1;opacity:1;stroke-width:0.5;" x1="263" x2="3036" y1="1556" y2="1556"/>
  <line id="Capline-L" style="fill:none;stroke:#27AAE1;opacity:1;stroke-width:0.5;" x1="263" x2="3036" y1="1485.54" y2="1485.54"/>
  <line id="left-margin-Ultralight-S" style="fill:none;stroke:#00AEEF;stroke-width:0.5;opacity:1.0;" x1="521.143" x2="521.143" y1="600.785" y2="720.121"/>
  <line id="right-margin-Ultralight-S" style="fill:none;stroke:#00AEEF;stroke-width:0.5;opacity:1.0;" x1="598.279" x2="598.279" y1="600.785" y2="720.121"/>
  <line id="left-margin-Thin-S" style="fill:none;stroke:#00AEEF;stroke-width:0.5;opacity:1.0;" x1="817.434" x2="817.434" y1="600.785" y2="720.121"/>
  <line id="right-margin-Thin-S" style="fill:none;stroke:#00AEEF;stroke-width:0.5;opacity:1.0;" x1="895.411" x2="895.411" y1="600.785" y2="720.121"/>
  <line id="left-margin-Light-S" style="fill:none;stroke:#00AEEF;stroke-width:0.5;opacity:1.0;" x1="1113.32" x2="1113.32" y1="600.785" y2="720.121"/>
  <line id="right-margin-Light-S" style="fill:none;stroke:#00AEEF;stroke-width:0.5;opacity:1.0;" x1="1192.94" x2="1192.94" y1="600.785" y2="720.121"/>
  <line id="left-margin-Regular-S" style="fill:none;stroke:#00AEEF;stroke-width:0.5;opacity:1.0;" x1="1409.41" x2="1409.41" y1="600.785" y2="720.121"/>
  <line id="right-margin-Regular-S" style="fill:none;stroke:#00AEEF;stroke-width:0.5;opacity:1.0;" x1="1490.27" x2="1490.27" y1="600.785" y2="720.121"/>
  <line id="left-margin-Medium-S" style="fill:none;stroke:#00AEEF;stroke-width:0.5;opacity:1.0;" x1="1705.67" x2="1705.67" y1="600.785" y2="720.121"/>
  <line id="right-margin-Medium-S" style="fill:none;stroke:#00AEEF;stroke-width:0.5;opacity:1.0;" x1="1787.44" x2="1787.44" y1="600.785" y2="720.121"/>
  <line id="left-margin-Semibold-S" style="fill:none;stroke:#00AEEF;stroke-width:0.5;opacity:1.0;" x1="2002.04" x2="2002.04" y1="600.785" y2="720.121"/>
  <line id="right-margin-Semibold-S" style="fill:none;stroke:#00AEEF;stroke-width:0.5;opacity:1.0;" x1="2084.5" x2="2084.5" y1="600.785" y2="720.121"/>
  <line id="left-margin-Bold-S" style="fill:none;stroke:#00AEEF;stroke-width:0.5;opacity:1.0;" x1="2298.29" x2="2298.29" y1="600.785" y2="720.121"/>
  <line id="right-margin-Bold-S" style="fill:none;stroke:#00AEEF;stroke-width:0.5;opacity:1.0;" x1="2381.66" x2="2381.66" y1="600.785" y2="720.121"/>
  <line id="left-margin-Heavy-S" style="fill:none;stroke:#00AEEF;stroke-width:0.5;opacity:1.0;" x1="2594.34" x2="2594.34" y1="600.785" y2="720.121"/>
  <line id="right-margin-Heavy-S" style="fill:none;stroke:#00AEEF;stroke-width:0.5;opacity:1.0;" x1="2679.04" x2="2679.04" y1="600.785" y2="720.121"/>
  <line id="left-margin-Black-S" style="fill:none;stroke:#00AEEF;stroke-width:0.5;opacity:1.0;" x1="2890.46" x2="2890.46" y1="600.785" y2="720.121"/>
  <line id="right-margin-Black-S" style="fill:none;stroke:#00AEEF;stroke-width:0.5;opacity:1.0;" x1="2976.34" x2="2976.34" y1="600.785" y2="720.121"/>
  <line id="left-margin-Ultralight-M" style="fill:none;stroke:#00AEEF;stroke-width:0.5;opacity:1.0;" x1="510.651" x2="510.651" y1="1030.79" y2="1150.12"/>
  <line id="right-margin-Ultralight-M" style="fill:none;stroke:#00AEEF;stroke-width:0.5;opacity:1.0;" x1="608.771" x2="608.771" y1="1030.79" y2="1150.12"/>
  <line id="left-margin-Thin-M" style="fill:none;stroke:#00AEEF;stroke-width:0.5;opacity:1.0;" x1="806.885" x2="806.885" y1="1030.79" y2="1150.12"/>
  <line id="right-margin-Thin-M" style="fill:none;stroke:#00AEEF;stroke-width:0.5;opacity:1.0;" x1="905.959" x2="905.959" y1="1030.79" y2="1150.12"/>
  <line id="left-margin-Light-M" style="fill:none;stroke:#00AEEF;stroke-width:0.5;opacity:1.0;" x1="1102.67" x2="1102.67" y1="1030.79" y2="1150.12"/>
  <line id="right-margin-Light-M" style="fill:none;stroke:#00AEEF;stroke-width:0.5;opacity:1.0;" x1="1203.6" x2="1203.6" y1="1030.79" y2="1150.12"/>
  <line id="left-margin-Regular-M" style="fill:none;stroke:#00AEEF;stroke-width:0.5;opacity:1.0;" x1="1398.67" x2="1398.67" y1="1030.79" y2="1150.12"/>
  <line id="right-margin-Regular-M" style="fill:none;stroke:#00AEEF;stroke-width:0.5;opacity:1.0;" x1="1501.02" x2="1501.02" y1="1030.79" y2="1150.12"/>
  <line id="left-margin-Medium-M" style="fill:none;stroke:#00AEEF;stroke-width:0.5;opacity:1.0;" x1="1694.78" x2="1694.78" y1="1030.79" y2="1150.12"/>
  <line id="right-margin-Medium-M" style="fill:none;stroke:#00AEEF;stroke-width:0.5;opacity:1.0;" x1="1798.33" x2="1798.33" y1="1030.79" y2="1150.12"/>
  <line id="left-margin-Semibold-M" style="fill:none;stroke:#00AEEF;stroke-width:0.5;opacity:1.0;" x1="1991.03" x2="1991.03" y1="1030.79" y2="1150.12"/>
  <line id="right-margin-Semibold-M" style="fill:none;stroke:#00AEEF;stroke-width:0.5;opacity:1.0;" x1="2095.5" x2="2095.5" y1="1030.79" y2="1150.12"/>
  <line id="left-margin-Bold-M" style="fill:none;stroke:#00AEEF;stroke-width:0.5;opacity:1.0;" x1="2287.13" x2="2287.13" y1="1030.79" y2="1150.12"/>
  <line id="right-margin-Bold-M" style="fill:none;stroke:#00AEEF;stroke-width:0.5;opacity:1.0;" x1="2392.82" x2="2392.82" y1="1030.79" y2="1150.12"/>
  <line id="left-margin-Heavy-M" style="fill:none;stroke:#00AEEF;stroke-width:0.5;opacity:1.0;" x1="2582.96" x2="2582.96" y1="1030.79" y2="1150.12"/>
  <line id="right-margin-Heavy-M" style="fill:none;stroke:#00AEEF;stroke-width:0.5;opacity:1.0;" x1="2690.42" x2="2690.42" y1="1030.79" y2="1150.12"/>
  <line id="left-margin-Black-M" style="fill:none;stroke:#00AEEF;stroke-width:0.5;opacity:1.0;" x1="2878.88" x2="2878.88" y1="1030.79" y2="1150.12"/>
  <line id="right-margin-Black-M" style="fill:none;stroke:#00AEEF;stroke-width:0.5;opacity:1.0;" x1="2987.92" x2="2987.92" y1="1030.79" y2="1150.12"/>
  <line id="left-margin-Ultralight-L" style="fill:none;stroke:#00AEEF;stroke-width:0.5;opacity:1.0;" x1="496.618" x2="496.618" y1="1460.79" y2="1580.12"/>
  <line id="right-margin-Ultralight-L" style="fill:none;stroke:#00AEEF;stroke-width:0.5;opacity:1.0;" x1="622.804" x2="622.804" y1="1460.79" y2="1580.12"/>
  <line id="left-margin-Thin-L" style="fill:none;stroke:#00AEEF;stroke-width:0.5;opacity:1.0;" x1="792.796" x2="792.796" y1="1460.79" y2="1580.12"/>
  <line id="right-margin-Thin-L" style="fill:none;stroke:#00AEEF;stroke-width:0.5;opacity:1.0;" x1="920.048" x2="920.048" y1="1460.79" y2="1580.12"/>
  <line id="left-margin-Light-L" style="fill:none;stroke:#00AEEF;stroke-width:0.5;opacity:1.0;" x1="1088.47" x2="1088.47" y1="1460.79" y2="1580.12"/>
  <line id="right-margin-Light-L" style="fill:none;stroke:#00AEEF;stroke-width:0.5;opacity:1.0;" x1="1217.8" x2="1217.8" y1="1460.79" y2="1580.12"/>
  <line id="left-margin-Regular-L" style="fill:none;stroke:#00AEEF;stroke-width:0.5;opacity:1.0;" x1="1384.39" x2="1384.39" y1="1460.79" y2="1580.12"/>
  <line id="right-margin-Regular-L" style="fill:none;stroke:#00AEEF;stroke-width:0.5;opacity:1.0;" x1="1515.3" x2="1515.3" y1="1460.79" y2="1580.12"/>
  <line id="left-margin-Medium-L" style="fill:none;stroke:#00AEEF;stroke-width:0.5;opacity:1.0;" x1="1680.35" x2="1680.35" y1="1460.79" y2="1580.12"/>
  <line id="right-margin-Medium-L" style="fill:none;stroke:#00AEEF;stroke-width:0.5;opacity:1.0;" x1="1812.76" x2="1812.76" y1="1460.79" y2="1580.12"/>
  <line id="left-margin-Semibold-L" style="fill:none;stroke:#00AEEF;stroke-width:0.5;opacity:1.0;" x1="1976.49" x2="1976.49" y1="1460.79" y2="1580.12"/>
  <line id="right-margin-Semibold-L" style="fill:none;stroke:#00AEEF;stroke-width:0.5;opacity:1.0;" x1="2110.04" x2="2110.04" y1="1460.79" y2="1580.12"/>
  <line id="left-margin-Bold-L" style="fill:none;stroke:#00AEEF;stroke-width:0.5;opacity:1.0;" x1="2272.45" x2="2272.45" y1="1460.79" y2="1580.12"/>
  <line id="right-margin-Bold-L" style="fill:none;stroke:#00AEEF;stroke-width:0.5;opacity:1.0;" x1="2407.51" x2="2407.51" y1="1460.79" y2="1580.12"/>
  <line id="left-margin-Heavy-L" style="fill:none;stroke:#00AEEF;stroke-width:0.5;opacity:1.0;" x1="2568.06" x2="2568.06" y1="1460.79" y2="1580.12"/>
  <line id="right-margin-Heavy-L" style="fill:none;stroke:#00AEEF;stroke-width:0.5;opacity:1.0;" x1="2705.31" x2="2705.31" y1="1460.79" y2="1580.12"/>
  <line id="left-margin-Black-L" style="fill:none;stroke:#00AEEF;stroke-width:0.5;opacity:1.0;" x1="2863.8" x2="2863.8" y1="1460.79" y2="1580.12"/>
  <line id="right-margin-Black-L" style="fill:none;stroke:#00AEEF;stroke-width:0.5;opacity:1.0;" x1="3003" x2="3003" y1="1460.79" y2="1580.12"/>
 </g>
 <g id="Symbols">
  <g id="Black-L" transform="matrix(1 0 0 1 2863.8 1556)">
   <path class="multicolor-0:systemRedColor SFSymbolsPreviewFF3B30" d="M19.4824 14.9414Q21.8262 17.2363 24.9756 17.9932Q28.125 18.75 31.2012 17.9932Q34.2773 17.2363 36.4258 15.1367L69.6289-18.0664L102.734 15.0879Q104.98 17.334 108.057 18.0664Q111.133 18.7988 114.233 17.9932Q117.334 17.1875 119.629 14.8926Q121.973 12.5488 122.754 9.44824Q123.535 6.34766 122.803 3.27148Q122.07 0.195312 119.824-2.05078L86.7188-35.2051L119.824-68.2617Q122.07-70.5078 122.803-73.6084Q123.535-76.709 122.754-79.8096Q121.973-82.9102 119.629-85.2051Q117.334-87.5 114.233-88.3057Q111.133-89.1113 108.057-88.3789Q104.98-87.6465 102.734-85.4004L69.6289-52.2949L36.4258-85.4492Q34.2773-87.5977 31.2012-88.3301Q28.125-89.0625 24.9512-88.3301Q21.7773-87.5977 19.4824-85.2539Q17.1875-82.959 16.4551-79.8096Q15.7227-76.6602 16.4551-73.5596Q17.1875-70.459 19.3359-68.3594L52.5391-35.2051L19.3359-2.00195Q17.1875 0.146484 16.4307 3.24707Q15.6738 6.34766 16.4307 9.49707Q17.1875 12.6465 19.4824 14.9414Z"/>
  </g>
  <g id="Heavy-L" transform="matrix(1 0 0 1 2568.06 1556)">
   <path class="multicolor-0:systemRedColor SFSymbolsPreviewFF3B30" d="M18.9987 14.4455Q21.0197 16.4185 23.7137 17.0658Q26.4076 17.7132 29.0459 17.0658Q31.6841 16.4185 33.5449 14.595L68.6378-20.5093L103.668 14.5576Q105.603 16.4925 108.241 17.1211Q110.88 17.7498 113.536 17.0654Q116.193 16.3811 118.166 14.4089Q120.175 12.3993 120.841 9.73663Q121.507 7.07397 120.878 4.43573Q120.249 1.79749 118.314-0.125885L83.2962-35.1936L118.314-70.1866Q120.249-72.11 120.884-74.7726Q121.519-77.4353 120.847-80.0922Q120.175-82.7492 118.166-84.7214Q116.193-86.6936 113.536-87.3779Q110.88-88.0623 108.241-87.4336Q105.603-86.805 103.668-84.8701L68.6378-49.8405L33.5449-84.9075Q31.6841-86.7676 29.0459-87.4023Q26.4076-88.0371 23.6893-87.4023Q20.9709-86.7676 18.9987-84.758Q17.038-82.7858 16.4032-80.0861Q15.7684-77.3865 16.4032-74.7295Q17.038-72.0726 18.8866-70.2606L53.9909-35.1936L18.8866-0.088501Q17.038 1.7601 16.3849 4.42276Q15.7318 7.08542 16.3792 9.77936Q17.0265 12.4733 18.9987 14.4455Z"/>
  </g>
  <g id="Bold-L" transform="matrix(1 0 0 1 2272.45 1556)">
   <path class="multicolor-0:systemRedColor SFSymbolsPreviewFF3B30" d="M18.457 13.8916Q20.1172 15.5029 22.3022 16.0278Q24.4873 16.5527 26.6357 16.0278Q28.7842 15.5029 30.3223 13.9893L67.5293-23.2422L104.712 13.9648Q106.299 15.5518 108.447 16.0645Q110.596 16.5771 112.756 16.0278Q114.917 15.4785 116.528 13.8672Q118.164 12.2314 118.701 10.0586Q119.238 7.88574 118.726 5.7373Q118.213 3.58887 116.626 2.02637L79.4678-35.1807L116.626-72.3389Q118.213-73.9014 118.738-76.0742Q119.263-78.2471 118.713-80.4077Q118.164-82.5684 116.528-84.1797Q114.917-85.791 112.756-86.3403Q110.596-86.8896 108.447-86.377Q106.299-85.8643 104.712-84.2773L67.5293-47.0947L30.3223-84.3018Q28.7842-85.8398 26.6357-86.3647Q24.4873-86.8896 22.2778-86.3647Q20.0684-85.8398 18.457-84.2041Q16.8701-82.5928 16.3452-80.3955Q15.8203-78.1982 16.3452-76.0376Q16.8701-73.877 18.3838-72.3877L55.6152-35.1807L18.3838 2.05078Q16.8701 3.56445 16.333 5.7373Q15.7959 7.91016 16.3208 10.0952Q16.8457 12.2803 18.457 13.8916Z"/>
  </g>
  <g id="Semibold-L" transform="matrix(1 0 0 1 1976.49 1556)">
   <path class="multicolor-0:systemRedColor SFSymbolsPreviewFF3B30" d="M18.084 13.5094Q19.4954 14.872 21.3291 15.3126Q23.1628 15.7532 24.9737 15.3126Q26.7845 14.872 28.1006 13.5719L66.7648-25.1259L105.432 13.5559Q106.779 14.9033 108.59 15.3358Q110.4 15.7684 112.219 15.3126Q114.037 14.8567 115.4 13.4941Q116.778 12.1162 117.226 10.281Q117.674 8.44574 117.242 6.6349Q116.809 4.82407 115.462 3.51028L76.828-35.1715L115.462-73.8228Q116.809-75.1366 117.258-76.9718Q117.708-78.8071 117.243-80.6255Q116.778-82.444 115.4-83.8066Q114.037-85.1692 112.219-85.6251Q110.4-86.0809 108.59-85.6483Q106.779-85.2158 105.432-83.8684L66.7648-45.2019L28.1006-83.8844Q26.7845-85.1997 24.9737-85.6491Q23.1628-86.0985 21.3047-85.6491Q19.4466-85.1997 18.084-83.8219Q16.7549-82.4593 16.3055-80.6087Q15.8562-78.7582 16.3055-76.9398Q16.7549-75.1213 18.0374-73.8541L56.7352-35.1715L18.0374 3.52631Q16.7549 4.80881 16.2975 6.64406Q15.8401 8.47931 16.2807 10.313Q16.7213 12.1468 18.084 13.5094Z"/>
  </g>
  <g id="Medium-L" transform="matrix(1 0 0 1 1680.35 1556)">
   <path class="multicolor-0:systemRedColor SFSymbolsPreviewFF3B30" d="M17.8009 13.2195Q19.0231 14.3936 20.591 14.7701Q22.1588 15.1466 23.7137 14.7701Q25.2686 14.3936 26.416 13.2545L66.1858-26.5549L105.978 13.2462Q107.143 14.4112 108.697 14.7831Q110.252 15.155 111.811 14.7697Q113.37 14.3845 114.544 13.2111Q115.726 12.0285 116.107 10.4492Q116.488 8.86993 116.116 7.31544Q115.744 5.76096 114.579 4.63562L74.8268-35.1654L114.579-74.9481Q115.744-76.0735 116.136-77.6524Q116.528-79.2313 116.127-80.7903Q115.726-82.3494 114.544-83.5236Q113.37-84.697 111.811-85.0822Q110.252-85.4675 108.697-85.0956Q107.143-84.7237 105.978-83.5587L66.1858-43.7668L26.416-83.567Q25.2686-84.7145 23.7137-85.1067Q22.1588-85.4988 20.5666-85.1067Q18.9743-84.7145 17.8009-83.532Q16.6672-82.3586 16.275-80.7705Q15.8829-79.1824 16.275-77.6234Q16.6672-76.0643 17.7742-74.9657L57.5844-35.1654L17.7742 4.64478Q16.6672 5.7518 16.2704 7.33109Q15.8737 8.91037 16.2502 10.4782Q16.6267 12.0461 17.8009 13.2195Z"/>
  </g>
  <g id="Regular-L" transform="matrix(1 0 0 1 1384.39 1556)">
   <path class="multicolor-0:systemRedColor SFSymbolsPreviewFF3B30" d="M17.4316 12.8418Q18.4082 13.7695 19.6289 14.0625Q20.8496 14.3555 22.0703 14.0625Q23.291 13.7695 24.2188 12.8418L65.4297-28.418L106.689 12.8418Q107.617 13.7695 108.838 14.0625Q110.059 14.3555 111.279 14.0625Q112.5 13.7695 113.428 12.8418Q114.355 11.9141 114.648 10.6689Q114.941 9.42383 114.648 8.20312Q114.355 6.98242 113.428 6.10352L72.2168-35.1562L113.428-76.416Q114.355-77.2949 114.673-78.54Q114.99-79.7852 114.673-81.0059Q114.355-82.2266 113.428-83.1543Q112.5-84.082 111.279-84.375Q110.059-84.668 108.838-84.375Q107.617-84.082 106.689-83.1543L65.4297-41.8945L24.2188-83.1543Q23.291-84.082 22.0703-84.3994Q20.8496-84.7168 19.6045-84.3994Q18.3594-84.082 17.4316-83.1543Q16.5527-82.2266 16.2354-80.9814Q15.918-79.7363 16.2354-78.5156Q16.5527-77.2949 17.4316-76.416L58.6914-35.1562L17.4316 6.10352Q16.5527 6.98242 16.2354 8.22754Q15.918 9.47266 16.2109 10.6934Q16.5039 11.9141 17.4316 12.8418Z"/>
  </g>
  <g id="Light-L" transform="matrix(1 0 0 1 1088.47 1556)">
   <path class="multicolor-0:systemRedColor SFSymbolsPreviewFF3B30" d="M17.099 12.4176Q17.8329 13.1187 18.7508 13.3434Q19.6686 13.5681 20.5791 13.3434Q21.4897 13.1187 22.1901 12.4176L64.6576-30.0827L107.143 12.4176Q107.845 13.1187 108.762 13.3358Q109.68 13.5529 110.591 13.3358Q111.501 13.1187 112.202 12.4176Q112.902 11.7172 113.127 10.7826Q113.352 9.84802 113.127 8.93745Q112.902 8.02689 112.202 7.36008L69.7495-35.141L112.202-77.6268Q112.902-78.2936 113.144-79.2286Q113.386-80.1636 113.144-81.0741Q112.902-81.9847 112.202-82.6851Q111.501-83.3855 110.591-83.6105Q109.68-83.8356 108.762-83.6105Q107.845-83.3855 107.143-82.6851L64.6576-40.1993L22.1901-82.6851Q21.4897-83.3855 20.5791-83.6273Q19.6686-83.8692 18.734-83.6273Q17.7994-83.3855 17.099-82.6851Q16.4314-81.9847 16.19-81.0574Q15.9485-80.13 16.19-79.2118Q16.4314-78.2936 17.099-77.6268L59.5993-35.141L17.099 7.36008Q16.4314 8.02689 16.19 8.95424Q15.9485 9.88159 16.1732 10.7994Q16.3979 11.7172 17.099 12.4176Z"/>
  </g>
  <g id="Thin-L" transform="matrix(1 0 0 1 792.796 1556)">
   <path class="multicolor-0:systemRedColor SFSymbolsPreviewFF3B30" d="M16.658 11.8576Q17.0723 12.2581 17.59 12.3928Q18.1076 12.5275 18.6077 12.3928Q19.1078 12.2581 19.5084 11.8576L63.6368-32.2853L107.744 11.8576Q108.144 12.2581 108.662 12.3753Q109.18 12.4924 109.68 12.3753Q110.18 12.2581 110.58 11.8576Q110.981 11.4571 111.116 10.9325Q111.25 10.408 111.116 9.90791Q110.981 9.40781 110.58 9.021L66.4864-35.1212L110.58-79.2282Q110.981-79.615 111.123-80.1395Q111.264-80.6641 111.123-81.1642Q110.981-81.6643 110.58-82.0648Q110.18-82.4646 109.68-82.5996Q109.18-82.7347 108.662-82.5996Q108.144-82.4646 107.744-82.0648L63.6368-37.957L19.5084-82.0648Q19.1078-82.4646 18.6077-82.6065Q18.1076-82.7484 17.5831-82.6065Q17.0586-82.4646 16.658-82.0648Q16.2712-81.6643 16.1297-81.1573Q15.9882-80.6503 16.1297-80.1327Q16.2712-79.615 16.658-79.2282L60.8009-35.1212L16.658 9.021Q16.2712 9.40781 16.1297 9.91478Q15.9882 10.4218 16.1228 10.9394Q16.2575 11.4571 16.658 11.8576Z"/>
  </g>
  <g id="Ultralight-L" transform="matrix(1 0 0 1 496.618 1556)">
   <path class="multicolor-0:systemRedColor SFSymbolsPreviewFF3B30" d="M16.433 11.57Q16.6824 11.8172 16.9949 11.9057Q17.3073 11.9942 17.5972 11.9057Q17.8871 11.8172 18.1335 11.57L63.1142-33.4129L108.052 11.57Q108.298 11.8172 108.611 11.8828Q108.923 11.9484 109.213 11.8828Q109.503 11.8172 109.75 11.57Q109.996 11.3235 110.085 11.0096Q110.173 10.6956 110.085 10.4057Q109.996 10.1158 109.75 9.87244L64.8148-35.1105L109.75-80.0491Q109.996-80.2917 110.086-80.6061Q110.177-80.9204 110.086-81.2103Q109.996-81.5002 109.75-81.7467Q109.503-81.9931 109.213-82.0816Q108.923-82.1701 108.611-82.0816Q108.298-81.9931 108.052-81.7467L63.1142-36.8088L18.1335-81.7467Q17.8871-81.9931 17.5972-82.0835Q17.3073-82.1739 16.9933-82.0835Q16.6794-81.9931 16.433-81.7467Q16.1896-81.5002 16.0992-81.2088Q16.0088-80.9174 16.0992-80.6046Q16.1896-80.2917 16.433-80.0491L61.4159-35.1105L16.433 9.87244Q16.1896 10.1158 16.0992 10.4073Q16.0088 10.6987 16.0973 11.0111Q16.1858 11.3235 16.433 11.57Z"/>
  </g>
  <g id="Black-M" transform="matrix(1 0 0 1 2878.88 1126)">
   <path class="multicolor-0:systemRedColor SFSymbolsPreviewFF3B30" d="M15.3809 3.95508Q17.3828 5.95703 20.1172 6.5918Q22.8516 7.22656 25.5127 6.5918Q28.1738 5.95703 30.0293 4.10156L54.541-20.4102L78.9551 4.05273Q80.9082 6.00586 83.5693 6.61621Q86.2305 7.22656 88.8916 6.54297Q91.5527 5.85938 93.5547 3.90625Q95.5566 1.9043 96.2402-0.78125Q96.9238-3.4668 96.2891-6.12793Q95.6543-8.78906 93.75-10.7422L69.3359-35.2051L93.75-59.6191Q95.6543-61.5723 96.2891-64.2334Q96.9238-66.8945 96.2402-69.5557Q95.5566-72.2168 93.5547-74.2188Q91.5527-76.2207 88.8916-76.9043Q86.2305-77.5879 83.5693-76.9531Q80.9082-76.3184 78.9551-74.4141L54.541-50L30.0293-74.4629Q28.1738-76.2695 25.5127-76.9043Q22.8516-77.5391 20.1172-76.9043Q17.3828-76.2695 15.3809-74.2676Q13.4277-72.2656 12.793-69.5557Q12.1582-66.8457 12.793-64.1602Q13.4277-61.4746 15.2344-59.668L39.7461-35.2051L15.2344-10.6445Q13.4277-8.83789 12.7686-6.17676Q12.1094-3.51562 12.7686-0.78125Q13.4277 1.95312 15.3809 3.95508Z"/>
  </g>
  <g id="Heavy-M" transform="matrix(1 0 0 1 2582.96 1126)">
   <path class="multicolor-0:systemRedColor SFSymbolsPreviewFF3B30" d="M14.9887 3.55148Q16.7259 5.27725 19.08 5.83115Q21.434 6.38504 23.732 5.83115Q26.03 5.27725 27.6436 3.66364L53.746-22.4388L79.7729 3.62625Q81.4613 5.31464 83.7593 5.84984Q86.0573 6.38504 88.3614 5.79948Q90.6654 5.21393 92.3904 3.5141Q94.1162 1.78909 94.7018-0.527573Q95.2873-2.84424 94.7392-5.14259Q94.191-7.44095 92.54-9.12857L66.5123-35.2051L92.54-61.2328Q94.191-62.9204 94.7449-65.2187Q95.2988-67.5171 94.7075-69.8151Q94.1162-72.113 92.3904-73.8388Q90.654-75.5753 88.3556-76.1608Q86.0573-76.7464 83.7593-76.1982Q81.4613-75.65 79.7729-73.9876L53.746-47.9599L27.6436-74.025Q26.03-75.6126 23.7263-76.1608Q21.4226-76.709 19.0685-76.1608Q16.7145-75.6126 14.9887-73.8754Q13.3011-72.1504 12.7525-69.8151Q12.204-67.4797 12.7525-65.163Q13.3011-62.8464 14.8773-61.2701L40.979-35.2051L14.8773-9.0538Q13.3011-7.47833 12.7281-5.17998Q12.1552-2.88162 12.7224-0.527573Q13.2896 1.82648 14.9887 3.55148Z"/>
  </g>
  <g id="Bold-M" transform="matrix(1 0 0 1 2287.13 1126)">
   <path class="multicolor-0:systemRedColor SFSymbolsPreviewFF3B30" d="M14.5508 3.10059Q15.9912 4.5166 17.9199 4.98047Q19.8486 5.44434 21.7407 4.98047Q23.6328 4.5166 24.9756 3.17383L52.8564-24.707L80.6885 3.14941Q82.0801 4.54102 83.9722 4.99268Q85.8643 5.44434 87.7686 4.96826Q89.6729 4.49219 91.0889 3.07617Q92.5049 1.66016 92.981-0.244141Q93.457-2.14844 93.0054-4.04053Q92.5537-5.93262 91.1865-7.32422L63.3545-35.2051L91.1865-63.0371Q92.5537-64.4287 93.0176-66.3208Q93.4814-68.2129 92.9932-70.105Q92.5049-71.9971 91.0889-73.4131Q89.6484-74.8535 87.7563-75.3296Q85.8643-75.8057 83.9722-75.354Q82.0801-74.9023 80.6885-73.5107L52.8564-45.6787L24.9756-73.5352Q23.6328-74.8779 21.7285-75.3296Q19.8242-75.7812 17.8955-75.3296Q15.9668-74.8779 14.5508-73.4375Q13.1592-72.0215 12.7075-70.105Q12.2559-68.1885 12.7075-66.2842Q13.1592-64.3799 14.4775-63.0615L42.3584-35.2051L14.4775-7.27539Q13.1592-5.95703 12.6831-4.06494Q12.207-2.17285 12.6709-0.244141Q13.1348 1.68457 14.5508 3.10059Z"/>
  </g>
  <g id="Semibold-M" transform="matrix(1 0 0 1 1991.03 1126)">
   <path class="multicolor-0:systemRedColor SFSymbolsPreviewFF3B30" d="M14.2487 2.78931Q15.4846 3.99246 17.12 4.39415Q18.7553 4.79584 20.3674 4.39415Q21.9795 3.99246 23.1361 2.83585L52.243-26.2711L81.3194 2.82059Q82.5066 4.00772 84.1187 4.40178Q85.7307 4.79584 87.3596 4.39529Q88.9885 3.99475 90.1917 2.77405Q91.394 1.57166 91.7946-0.0484467Q92.1951-1.66855 91.8102-3.28064Q91.4253-4.89273 90.2534-6.07986L61.1771-35.2051L90.2534-64.2815Q91.4253-65.4686 91.827-67.0807Q92.2287-68.6928 91.8114-70.3049Q91.394-71.917 90.1917-73.1201Q88.9549-74.3561 87.3428-74.7566Q85.7307-75.1572 84.1187-74.7719Q82.5066-74.3866 81.3194-73.1819L52.243-44.1055L23.1361-73.1972Q21.9795-74.3713 20.351-74.7562Q18.7225-75.1411 17.0868-74.7562Q15.451-74.3713 14.2487-73.1354Q13.0615-71.933 12.6766-70.3053Q12.2917-68.6775 12.6766-67.0574Q13.0615-65.4373 14.2021-64.2967L43.309-35.2051L14.2021-6.04935Q13.0615-4.90799 12.6522-3.2959Q12.2429-1.68381 12.6354-0.0484467Q13.028 1.58691 14.2487 2.78931Z"/>
  </g>
  <g id="Medium-M" transform="matrix(1 0 0 1 1694.78 1126)">
   <path class="multicolor-0:systemRedColor SFSymbolsPreviewFF3B30" d="M14.0198 2.55356Q15.1009 3.59497 16.5138 3.94936Q17.9268 4.30374 19.3268 3.94936Q20.7268 3.59497 21.7415 2.58026L51.7784-27.4574L81.7978 2.57111Q82.83 3.60336 84.23 3.95355Q85.63 4.30374 87.0499 3.96042Q88.4697 3.6171 89.5103 2.54517Q90.5518 1.50375 90.8951 0.0995636Q91.2384-1.30463 90.9039-2.70462Q90.5693-4.10461 89.5462-5.13687L59.5261-35.2051L89.5462-65.2245Q90.5693-66.2567 90.9237-67.6567Q91.2781-69.0567 90.9149-70.4567Q90.5518-71.8567 89.5103-72.8973Q88.43-73.9784 87.03-74.3217Q85.63-74.6651 84.23-74.3305Q82.83-73.996 81.7978-72.9324L51.7784-42.9131L21.7415-72.9416Q20.7268-73.9876 19.3066-74.3217Q17.8864-74.6559 16.4734-74.3217Q15.0604-73.9876 14.0198-72.9065Q12.9875-71.8651 12.653-70.4563Q12.3184-69.0475 12.653-67.6434Q12.9875-66.2392 13.9931-65.2336L44.03-35.2051L13.9931-5.11932Q12.9875-4.11301 12.6286-2.71339Q12.2696-1.31378 12.6083 0.0995636Q12.9471 1.51291 14.0198 2.55356Z"/>
  </g>
  <g id="Regular-M" transform="matrix(1 0 0 1 1398.67 1126)">
   <path class="multicolor-0:systemRedColor SFSymbolsPreviewFF3B30" d="M13.7207 2.24609Q14.5996 3.07617 15.7227 3.36914Q16.8457 3.66211 17.9688 3.36914Q19.0918 3.07617 19.9219 2.24609L51.1719-29.0039L82.4219 2.24609Q83.252 3.07617 84.375 3.36914Q85.498 3.66211 86.6455 3.39355Q87.793 3.125 88.623 2.24609Q89.4531 1.41602 89.7217 0.292969Q89.9902-0.830078 89.7217-1.95312Q89.4531-3.07617 88.623-3.90625L57.373-35.2051L88.623-66.4551Q89.4531-67.2852 89.7461-68.4082Q90.0391-69.5312 89.7461-70.6543Q89.4531-71.7773 88.623-72.6074Q87.7441-73.4863 86.6211-73.7549Q85.498-74.0234 84.375-73.7549Q83.252-73.4863 82.4219-72.6074L51.1719-41.3574L19.9219-72.6074Q19.0918-73.4863 17.9443-73.7549Q16.7969-74.0234 15.6738-73.7549Q14.5508-73.4863 13.7207-72.6074Q12.8906-71.7773 12.6221-70.6543Q12.3535-69.5312 12.6221-68.4082Q12.8906-67.2852 13.7207-66.4551L44.9707-35.2051L13.7207-3.90625Q12.8906-3.07617 12.5977-1.95312Q12.3047-0.830078 12.5732 0.292969Q12.8418 1.41602 13.7207 2.24609Z"/>
  </g>
  <g id="Light-M" transform="matrix(1 0 0 1 1102.67 1126)">
   <path class="multicolor-0:systemRedColor SFSymbolsPreviewFF3B30" d="M13.4178 1.86768Q14.0846 2.50092 14.9277 2.72598Q15.7707 2.95105 16.6214 2.72598Q17.4721 2.50092 18.1053 1.86768L50.4753-30.4871L82.8308 1.86768Q83.4641 2.50092 84.3147 2.72598Q85.1654 2.95105 86.0252 2.74277Q86.8851 2.53448 87.5183 1.86768Q88.1516 1.23444 88.3595 0.391388Q88.5674-0.45166 88.3595-1.30234Q88.1516-2.15302 87.5183-2.78625L55.1628-35.1746L87.5183-67.5446Q88.1516-68.1786 88.3762-69.0289Q88.6009-69.8792 88.3762-70.7222Q88.1516-71.5652 87.5183-72.1985Q86.8507-72.8661 86.0081-73.074Q85.1654-73.2819 84.3147-73.074Q83.4641-72.8661 82.8308-72.1985L50.4753-39.8438L18.1053-72.1985Q17.4721-72.8661 16.6046-73.074Q15.7372-73.2819 14.8941-73.074Q14.0511-72.8661 13.4178-72.1985Q12.7846-71.5652 12.5767-70.7222Q12.3688-69.8792 12.5767-69.0289Q12.7846-68.1786 13.4178-67.5446L45.7733-35.1746L13.4178-2.78625Q12.7846-2.15302 12.5599-1.30234Q12.3352-0.45166 12.5431 0.391388Q12.751 1.23444 13.4178 1.86768Z"/>
  </g>
  <g id="Thin-M" transform="matrix(1 0 0 1 806.885 1126)">
   <path class="multicolor-0:systemRedColor SFSymbolsPreviewFF3B30" d="M13.0173 1.36719Q13.4041 1.74026 13.8767 1.87492Q14.3494 2.00958 14.8399 1.87492Q15.3305 1.74026 15.7036 1.36719L49.5544-32.4493L83.371 1.36719Q83.744 1.74026 84.2342 1.87492Q84.7244 2.00958 85.2039 1.88179Q85.6834 1.754 86.0565 1.36719Q86.4296 0.99411 86.5578 0.521469Q86.6859 0.0488281 86.5578-0.44136Q86.4296-0.931549 86.0565-1.30463L52.2408-35.1349L86.0565-68.9865Q86.4296-69.3596 86.5646-69.8498Q86.6997-70.34 86.5646-70.8126Q86.4296-71.2852 86.0565-71.6583Q85.6697-72.0451 85.1971-72.1729Q84.7244-72.3007 84.2342-72.1729Q83.744-72.0451 83.371-71.6583L49.5544-37.8418L15.7036-71.6583Q15.3305-72.0451 14.8335-72.1729Q14.3364-72.3007 13.8634-72.1729Q13.3904-72.0451 13.0173-71.6583Q12.6442-71.2852 12.5164-70.8126Q12.3886-70.34 12.5164-69.8498Q12.6442-69.3596 13.0173-68.9865L46.8338-35.1349L13.0173-1.30463Q12.6442-0.931549 12.5095-0.44136Q12.3749 0.0488281 12.5031 0.521469Q12.6312 0.99411 13.0173 1.36719Z"/>
  </g>
  <g id="Ultralight-M" transform="matrix(1 0 0 1 510.651 1126)">
   <path class="multicolor-0:systemRedColor SFSymbolsPreviewFF3B30" d="M12.8128 1.11084Q13.0554 1.3504 13.3385 1.43929Q13.6215 1.52817 13.9271 1.43929Q14.2326 1.3504 14.473 1.11084L49.0829-33.4541L83.6479 1.11084Q83.8875 1.3504 84.1934 1.43929Q84.4994 1.52817 84.7839 1.44119Q85.0685 1.35422 85.3081 1.11084Q85.5476 0.871277 85.6346 0.588226Q85.7216 0.305176 85.6346-0.00038147Q85.5476-0.305939 85.3081-0.546265L50.7431-35.1143L85.3081-69.7243Q85.5476-69.9646 85.6365-70.2702Q85.7254-70.5757 85.6365-70.8588Q85.5476-71.1418 85.3081-71.3814Q85.0647-71.6248 84.782-71.7117Q84.4994-71.7987 84.1934-71.7117Q83.8875-71.6248 83.6479-71.3814L49.0829-36.8164L14.473-71.3814Q14.2326-71.6248 13.9256-71.7117Q13.6185-71.7987 13.3354-71.7117Q13.0524-71.6248 12.8128-71.3814Q12.5725-71.1418 12.4859-70.8588Q12.3993-70.5757 12.4859-70.2702Q12.5725-69.9646 12.8128-69.7243L47.3778-35.1143L12.8128-0.546265Q12.5725-0.305939 12.484-0.00038147Q12.3955 0.305176 12.4825 0.588226Q12.5694 0.871277 12.8128 1.11084Z"/>
  </g>
  <g id="Black-S" transform="matrix(1 0 0 1 2890.46 696)">
   <path class="multicolor-0:systemRedColor SFSymbolsPreviewFF3B30" d="M12.207-4.44336Q14.6484-2.00195 18.2861-2.02637Q21.9238-2.05078 24.1699-4.29688L42.9688-23.0957L61.6699-4.3457Q64.0137-1.95312 67.5781-2.00195Q71.1426-2.05078 73.6328-4.49219Q76.0742-6.93359 76.0986-10.498Q76.123-14.0625 73.7793-16.4551L55.0781-35.2051L73.7793-53.9062Q76.123-56.2988 76.0986-59.8633Q76.0742-63.4277 73.6328-65.8691Q71.1426-68.3105 67.5781-68.3594Q64.0137-68.4082 61.6699-66.0156L42.9688-47.3145L24.1699-66.0645Q21.9238-68.3105 18.2861-68.335Q14.6484-68.3594 12.207-65.918Q9.7168-63.4766 9.76562-59.8389Q9.81445-56.2012 12.0605-53.9551L30.8594-35.2051L12.0605-16.4062Q9.81445-14.1602 9.76562-10.5225Q9.7168-6.88477 12.207-4.44336Z"/>
  </g>
  <g id="Heavy-S" transform="matrix(1 0 0 1 2594.34 696)">
   <path class="multicolor-0:systemRedColor SFSymbolsPreviewFF3B30" d="M11.8958-4.73175Q14.0373-2.60086 17.2085-2.61955Q20.3796-2.63824 22.3602-4.6196L42.3698-24.6399L62.3154-4.65698Q64.3707-2.56424 67.4858-2.59552Q70.6009-2.6268 72.7684-4.76913Q74.8985-6.91071 74.9172-10.0197Q74.9359-13.1287 72.8806-15.2222L52.9343-35.2051L72.8806-55.1392Q74.9359-57.2441 74.9229-60.3588Q74.91-63.4735 72.7684-65.6044Q70.5894-67.7345 67.4801-67.7719Q64.3707-67.8093 62.3154-65.7158L42.3698-45.7703L22.3602-65.7532Q20.3796-67.7345 17.2028-67.7532Q14.0259-67.7719 11.8958-65.641Q9.72824-63.4995 9.76562-60.3344Q9.80301-57.1693 11.7836-55.1765L31.8047-35.2051L11.7836-15.1848Q9.80301-13.2034 9.76562-10.0327Q9.72824-6.86188 11.8958-4.73175Z"/>
  </g>
  <g id="Bold-S" transform="matrix(1 0 0 1 2298.29 696)">
   <path class="multicolor-0:systemRedColor SFSymbolsPreviewFF3B30" d="M11.5479-5.05371Q13.3545-3.27148 16.0034-3.28369Q18.6523-3.2959 20.3369-4.98047L41.6992-26.3672L63.0371-5.00488Q64.7705-3.24707 67.3828-3.25928Q69.9951-3.27148 71.8018-5.07812Q73.584-6.88477 73.5962-9.48486Q73.6084-12.085 71.875-13.8428L50.5371-35.2051L71.875-56.5186Q73.6084-58.3008 73.6084-60.9131Q73.6084-63.5254 71.8018-65.3076Q69.9707-67.0898 67.3706-67.1143Q64.7705-67.1387 63.0371-65.3809L41.6992-44.043L20.3369-65.4053Q18.6523-67.0898 15.9912-67.1021Q13.3301-67.1143 11.5479-65.332Q9.74121-63.5254 9.76562-60.8887Q9.79004-58.252 11.4746-56.543L32.8613-35.2051L11.4746-13.8184Q9.79004-12.1338 9.76562-9.48486Q9.74121-6.83594 11.5479-5.05371Z"/>
  </g>
  <g id="Semibold-S" transform="matrix(1 0 0 1 2002.04 696)">
   <path class="multicolor-0:systemRedColor SFSymbolsPreviewFF3B30" d="M11.3075-5.27573Q12.8838-3.73383 15.1726-3.74146Q17.4614-3.74908 18.9415-5.22919L41.2369-27.5581L63.5345-5.24521Q65.0459-3.7178 67.3119-3.71666Q69.5778-3.71552 71.1349-5.29175Q72.6776-6.86722 72.6852-9.11598Q72.6929-11.3647 71.1815-12.8922L48.8838-35.2051L71.1815-57.4692Q72.6929-59.0294 72.702-61.2953Q72.7112-63.5612 71.1349-65.1031Q69.5442-66.6458 67.2951-66.6611Q65.0459-66.6763 63.5345-65.1497L41.2369-42.852L18.9415-65.1649Q17.4614-66.6458 15.1558-66.6534Q12.8502-66.6611 11.3075-65.1184Q9.75037-63.5429 9.76562-61.2705Q9.78088-58.9981 11.261-57.4852L33.5899-35.2051L11.261-12.8761Q9.78088-11.396 9.76562-9.10721Q9.75037-6.81839 11.3075-5.27573Z"/>
  </g>
  <g id="Medium-S" transform="matrix(1 0 0 1 1705.67 696)">
   <path class="multicolor-0:systemRedColor SFSymbolsPreviewFF3B30" d="M11.1259-5.44434Q12.5267-4.08401 14.5428-4.08859Q16.5588-4.09317 17.8841-5.41763L40.8867-28.4607L63.9122-5.42679Q65.255-4.07486 67.2577-4.0638Q69.2604-4.05273 70.6299-5.45349Q71.9902-6.85349 71.9948-8.83636Q71.9994-10.8192 70.6566-12.1712L47.6311-35.2051L70.6566-58.1902Q71.9994-59.5818 72.0146-61.5849Q72.0299-63.588 70.6299-64.9483Q69.2207-66.3086 67.2379-66.3174Q65.255-66.3261 63.9122-64.975L40.8867-41.9495L17.8841-64.9834Q16.5588-66.3086 14.5226-66.3132Q12.4863-66.3177 11.1259-64.9567Q9.75647-63.5567 9.76562-61.5604Q9.77478-59.5642 11.0992-58.1993L34.1423-35.2051L11.0992-12.162Q9.77478-10.8368 9.76562-8.82072Q9.75647-6.80466 11.1259-5.44434Z"/>
  </g>
  <g id="Regular-S" transform="matrix(1 0 0 1 1409.41 696)">
   <path class="multicolor-0:systemRedColor SFSymbolsPreviewFF3B30" d="M10.8887-5.66406Q12.0605-4.54102 13.7207-4.54102Q15.3809-4.54102 16.5039-5.66406L40.4297-29.6387L64.4043-5.66406Q65.5273-4.54102 67.1875-4.5166Q68.8477-4.49219 69.9707-5.66406Q71.0938-6.83594 71.0938-8.47168Q71.0938-10.1074 69.9707-11.2305L45.9961-35.2051L69.9707-59.1309Q71.0938-60.3027 71.1182-61.9629Q71.1426-63.623 69.9707-64.7461Q68.7988-65.8691 67.1631-65.8691Q65.5273-65.8691 64.4043-64.7461L40.4297-40.7715L16.5039-64.7461Q15.3809-65.8691 13.6963-65.8691Q12.0117-65.8691 10.8887-64.7461Q9.76562-63.5742 9.76562-61.9385Q9.76562-60.3027 10.8887-59.1309L34.8633-35.2051L10.8887-11.2305Q9.76562-10.1074 9.76562-8.44727Q9.76562-6.78711 10.8887-5.66406Z"/>
  </g>
  <g id="Light-S" transform="matrix(1 0 0 1 1113.32 696)">
   <path class="multicolor-0:systemRedColor SFSymbolsPreviewFF3B30" d="M10.6316-5.9967Q11.5158-5.14679 12.7747-5.14679Q14.0335-5.14679 14.8994-5.9967L39.8094-30.9555L64.7675-5.9967Q65.6181-5.14679 66.8774-5.12962Q68.1366-5.11246 69.0018-5.9967Q69.8524-6.89621 69.8524-8.13866Q69.8524-9.3811 69.0018-10.2463L44.0437-35.1898L69.0018-60.0998Q69.8524-60.9993 69.8692-62.2581Q69.886-63.517 69.0018-64.3677Q68.1023-65.2336 66.8602-65.2336Q65.6181-65.2336 64.7675-64.3677L39.8094-39.4241L14.8994-64.3677Q14.0335-65.2336 12.7579-65.2336Q11.4822-65.2336 10.6316-64.3677Q9.76562-63.4834 9.76562-62.2414Q9.76562-60.9993 10.6316-60.0998L35.5743-35.1898L10.6316-10.2463Q9.76562-9.3811 9.76562-8.12187Q9.76562-6.86264 10.6316-5.9967Z"/>
  </g>
  <g id="Thin-S" transform="matrix(1 0 0 1 817.434 696)">
   <path class="multicolor-0:systemRedColor SFSymbolsPreviewFF3B30" d="M10.2913-6.43768Q10.7948-5.94711 11.5234-5.94711Q12.252-5.94711 12.7777-6.43768L38.9885-32.6973L65.2481-6.43768Q65.7379-5.94711 66.4665-5.94025Q67.1951-5.93338 67.7208-6.43768Q68.2114-6.97632 68.2114-7.69806Q68.2114-8.4198 67.7208-8.94547L41.4612-35.17L67.7208-61.3808Q68.2114-61.9202 68.2182-62.6484Q68.2251-63.3766 67.7208-63.8672Q67.1814-64.3929 66.4597-64.3929Q65.7379-64.3929 65.2481-63.8672L38.9885-37.6427L12.7777-63.8672Q12.252-64.3929 11.5166-64.3929Q10.7811-64.3929 10.2913-63.8672Q9.76562-63.3636 9.76562-62.6419Q9.76562-61.9202 10.2913-61.3808L36.5158-35.17L10.2913-8.94547Q9.76562-8.4198 9.76562-7.69119Q9.76562-6.96259 10.2913-6.43768Z"/>
  </g>
  <g id="Ultralight-S" transform="matrix(1 0 0 1 521.143 696)">
   <path class="multicolor-0:systemRedColor SFSymbolsPreviewFF3B30" d="M10.1166-6.66275Q10.4256-6.35757 10.8826-6.35757Q11.3396-6.35757 11.6905-6.66275L38.5681-33.5892L65.4938-6.66275Q65.7997-6.35757 66.2567-6.35567Q66.7137-6.35376 67.0647-6.66275Q67.3698-7.01752 67.3698-7.47261Q67.3698-7.9277 67.0647-8.27866L40.1382-35.1593L67.0647-62.0369Q67.3698-62.3917 67.3717-62.8483Q67.3737-63.3049 67.0647-63.6108Q66.7099-63.9618 66.2548-63.9618Q65.7997-63.9618 65.4938-63.6108L38.5681-36.7302L11.6905-63.6108Q11.3396-63.9618 10.881-63.9618Q10.4225-63.9618 10.1166-63.6108Q9.76562-63.3018 9.76562-62.8468Q9.76562-62.3917 10.1166-62.0369L36.9972-35.1593L10.1166-8.27866Q9.76562-7.9277 9.76562-7.47108Q9.76562-7.01447 10.1166-6.66275Z"/>
  </g>
 </g>
</svg>
