<?xml version="1.0" encoding="UTF-8"?>
<!--Generator: Apple Native CoreSVG 175-->
<!DOCTYPE svg
PUBLIC "-//W3C//DTD SVG 1.1//EN"
       "http://www.w3.org/Graphics/SVG/1.1/DTD/svg11.dtd">
<svg version="1.1" xmlns="http://www.w3.org/2000/svg" xmlns:xlink="http://www.w3.org/1999/xlink" width="3300" height="2200">
 <!--glyph: "uni1003C5.medium", point size: 100.0, font version: "17.0d12e1", template writer version: "65.1"-->
 <g id="Notes">
  <rect height="2200" id="artboard" style="fill:white;opacity:1" width="3300" x="0" y="0"/>
  <line style="fill:none;stroke:black;opacity:1;stroke-width:0.5;" x1="263" x2="3036" y1="292" y2="292"/>
  <text style="stroke:none;fill:black;font-family:sans-serif;font-size:13;font-weight:bold;" transform="matrix(1 0 0 1 263 322)">Weight/Scale Variations</text>
  <text style="stroke:none;fill:black;font-family:sans-serif;font-size:13;text-anchor:middle;" transform="matrix(1 0 0 1 559.711 322)">Ultralight</text>
  <text style="stroke:none;fill:black;font-family:sans-serif;font-size:13;text-anchor:middle;" transform="matrix(1 0 0 1 856.422 322)">Thin</text>
  <text style="stroke:none;fill:black;font-family:sans-serif;font-size:13;text-anchor:middle;" transform="matrix(1 0 0 1 1153.13 322)">Light</text>
  <text style="stroke:none;fill:black;font-family:sans-serif;font-size:13;text-anchor:middle;" transform="matrix(1 0 0 1 1449.84 322)">Regular</text>
  <text style="stroke:none;fill:black;font-family:sans-serif;font-size:13;text-anchor:middle;" transform="matrix(1 0 0 1 1746.56 322)">Medium</text>
  <text style="stroke:none;fill:black;font-family:sans-serif;font-size:13;text-anchor:middle;" transform="matrix(1 0 0 1 2043.27 322)">Semibold</text>
  <text style="stroke:none;fill:black;font-family:sans-serif;font-size:13;text-anchor:middle;" transform="matrix(1 0 0 1 2339.98 322)">Bold</text>
  <text style="stroke:none;fill:black;font-family:sans-serif;font-size:13;text-anchor:middle;" transform="matrix(1 0 0 1 2636.69 322)">Heavy</text>
  <text style="stroke:none;fill:black;font-family:sans-serif;font-size:13;text-anchor:middle;" transform="matrix(1 0 0 1 2933.4 322)">Black</text>
  <line style="fill:none;stroke:black;opacity:1;stroke-width:0.5;" x1="263" x2="3036" y1="1903" y2="1903"/>
  <g transform="matrix(1 0 0 1 263 1933)">
   <path d="M9.24805 0.830078Q10.8691 0.830078 12.2949 0.214844Q13.7207-0.400391 14.8096-1.49414Q15.8984-2.58789 16.5186-4.01367Q17.1387-5.43945 17.1387-7.05078Q17.1387-8.66211 16.5186-10.0879Q15.8984-11.5137 14.8047-12.6074Q13.7109-13.7012 12.2852-14.3164Q10.8594-14.9316 9.23828-14.9316Q7.62695-14.9316 6.20117-14.3164Q4.77539-13.7012 3.69141-12.6074Q2.60742-11.5137 1.9873-10.0879Q1.36719-8.66211 1.36719-7.05078Q1.36719-5.43945 1.9873-4.01367Q2.60742-2.58789 3.69629-1.49414Q4.78516-0.400391 6.21094 0.214844Q7.63672 0.830078 9.24805 0.830078ZM9.24805-0.654297Q7.91992-0.654297 6.7627-1.14746Q5.60547-1.64062 4.73145-2.51953Q3.85742-3.39844 3.36426-4.56055Q2.87109-5.72266 2.87109-7.05078Q2.87109-8.37891 3.35938-9.54102Q3.84766-10.7031 4.72168-11.582Q5.5957-12.4609 6.75293-12.9541Q7.91016-13.4473 9.23828-13.4473Q10.5762-13.4473 11.7334-12.9541Q12.8906-12.4609 13.7695-11.582Q14.6484-10.7031 15.1465-9.54102Q15.6445-8.37891 15.6445-7.05078Q15.6445-5.72266 15.1514-4.56055Q14.6582-3.39844 13.7842-2.51953Q12.9102-1.64062 11.748-1.14746Q10.5859-0.654297 9.24805-0.654297ZM5.6543-7.05078Q5.6543-6.72852 5.85938-6.52832Q6.06445-6.32812 6.40625-6.32812L8.51562-6.32812L8.51562-4.20898Q8.51562-3.88672 8.71094-3.67676Q8.90625-3.4668 9.23828-3.4668Q9.56055-3.4668 9.77051-3.67676Q9.98047-3.88672 9.98047-4.20898L9.98047-6.32812L12.0898-6.32812Q12.4219-6.32812 12.627-6.52832Q12.832-6.72852 12.832-7.05078Q12.832-7.38281 12.627-7.58789Q12.4219-7.79297 12.0898-7.79297L9.98047-7.79297L9.98047-9.90234Q9.98047-10.2344 9.77051-10.4443Q9.56055-10.6543 9.23828-10.6543Q8.90625-10.6543 8.71094-10.4443Q8.51562-10.2344 8.51562-9.90234L8.51562-7.79297L6.40625-7.79297Q6.06445-7.79297 5.85938-7.58789Q5.6543-7.38281 5.6543-7.05078Z"/>
  </g>
  <g transform="matrix(1 0 0 1 281.867 1933)">
   <path d="M11.709 2.91016Q13.75 2.91016 15.5518 2.12891Q17.3535 1.34766 18.7305-0.0292969Q20.1074-1.40625 20.8887-3.20801Q21.6699-5.00977 21.6699-7.05078Q21.6699-9.0918 20.8887-10.8936Q20.1074-12.6953 18.7305-14.0723Q17.3535-15.4492 15.5469-16.2305Q13.7402-17.0117 11.6992-17.0117Q9.6582-17.0117 7.85645-16.2305Q6.05469-15.4492 4.68262-14.0723Q3.31055-12.6953 2.5293-10.8936Q1.74805-9.0918 1.74805-7.05078Q1.74805-5.00977 2.5293-3.20801Q3.31055-1.40625 4.6875-0.0292969Q6.06445 1.34766 7.86621 2.12891Q9.66797 2.91016 11.709 2.91016ZM11.709 1.25Q9.98047 1.25 8.47656 0.605469Q6.97266-0.0390625 5.83496-1.17676Q4.69727-2.31445 4.05762-3.81836Q3.41797-5.32227 3.41797-7.05078Q3.41797-8.7793 4.05762-10.2832Q4.69727-11.7871 5.83008-12.9297Q6.96289-14.0723 8.4668-14.7119Q9.9707-15.3516 11.6992-15.3516Q13.4277-15.3516 14.9316-14.7119Q16.4355-14.0723 17.5781-12.9297Q18.7207-11.7871 19.3652-10.2832Q20.0098-8.7793 20.0098-7.05078Q20.0098-5.32227 19.3701-3.81836Q18.7305-2.31445 17.5928-1.17676Q16.4551-0.0390625 14.9463 0.605469Q13.4375 1.25 11.709 1.25ZM7.17773-7.05078Q7.17773-6.69922 7.41211-6.47461Q7.64648-6.25 8.01758-6.25L10.8887-6.25L10.8887-3.36914Q10.8887-2.99805 11.1133-2.76855Q11.3379-2.53906 11.6895-2.53906Q12.0605-2.53906 12.29-2.76855Q12.5195-2.99805 12.5195-3.36914L12.5195-6.25L15.4004-6.25Q15.7715-6.25 16.001-6.47461Q16.2305-6.69922 16.2305-7.05078Q16.2305-7.42188 16.001-7.65137Q15.7715-7.88086 15.4004-7.88086L12.5195-7.88086L12.5195-10.752Q12.5195-11.1328 12.29-11.3623Q12.0605-11.5918 11.6895-11.5918Q11.3379-11.5918 11.1133-11.3574Q10.8887-11.123 10.8887-10.752L10.8887-7.88086L8.01758-7.88086Q7.63672-7.88086 7.40723-7.65137Q7.17773-7.42188 7.17773-7.05078Z"/>
  </g>
  <g transform="matrix(1 0 0 1 305.646 1933)">
   <path d="M14.9707 5.66406Q17.0605 5.66406 18.96 5.01465Q20.8594 4.36523 22.4512 3.19336Q24.043 2.02148 25.2197 0.429688Q26.3965-1.16211 27.0459-3.06641Q27.6953-4.9707 27.6953-7.05078Q27.6953-9.14062 27.0459-11.04Q26.3965-12.9395 25.2197-14.5312Q24.043-16.123 22.4512-17.2998Q20.8594-18.4766 18.9551-19.126Q17.0508-19.7754 14.9609-19.7754Q12.8711-19.7754 10.9717-19.126Q9.07227-18.4766 7.48535-17.2998Q5.89844-16.123 4.72168-14.5312Q3.54492-12.9395 2.90039-11.04Q2.25586-9.14062 2.25586-7.05078Q2.25586-4.9707 2.90527-3.06641Q3.55469-1.16211 4.72656 0.429688Q5.89844 2.02148 7.49023 3.19336Q9.08203 4.36523 10.9814 5.01465Q12.8809 5.66406 14.9707 5.66406ZM14.9707 3.84766Q13.1641 3.84766 11.5283 3.2959Q9.89258 2.74414 8.53516 1.74805Q7.17773 0.751953 6.17676-0.610352Q5.17578-1.97266 4.62891-3.6084Q4.08203-5.24414 4.08203-7.05078Q4.08203-8.86719 4.62891-10.5029Q5.17578-12.1387 6.17188-13.501Q7.16797-14.8633 8.52539-15.8594Q9.88281-16.8555 11.5186-17.4023Q13.1543-17.9492 14.9609-17.9492Q16.7773-17.9492 18.4131-17.4023Q20.0488-16.8555 21.4111-15.8594Q22.7734-14.8633 23.7695-13.501Q24.7656-12.1387 25.3174-10.5029Q25.8691-8.86719 25.8691-7.05078Q25.8789-5.24414 25.332-3.6084Q24.7852-1.97266 23.7842-0.610352Q22.7832 0.751953 21.4209 1.74805Q20.0586 2.74414 18.4229 3.2959Q16.7871 3.84766 14.9707 3.84766ZM9.19922-7.05078Q9.19922-6.66992 9.45801-6.4209Q9.7168-6.17188 10.1172-6.17188L14.0625-6.17188L14.0625-2.2168Q14.0625-1.81641 14.3115-1.55762Q14.5605-1.29883 14.9512-1.29883Q15.3516-1.29883 15.6104-1.55273Q15.8691-1.80664 15.8691-2.2168L15.8691-6.17188L19.8242-6.17188Q20.2246-6.17188 20.4785-6.4209Q20.7324-6.66992 20.7324-7.05078Q20.7324-7.46094 20.4785-7.71484Q20.2246-7.96875 19.8242-7.96875L15.8691-7.96875L15.8691-11.9141Q15.8691-12.3242 15.6104-12.583Q15.3516-12.8418 14.9512-12.8418Q14.5605-12.8418 14.3115-12.583Q14.0625-12.3242 14.0625-11.9141L14.0625-7.96875L10.1172-7.96875Q9.70703-7.96875 9.45312-7.71484Q9.19922-7.46094 9.19922-7.05078Z"/>
  </g>
  <text style="stroke:none;fill:black;font-family:sans-serif;font-size:13;font-weight:bold;" transform="matrix(1 0 0 1 263 1953)">Design Variations</text>
  <text style="stroke:none;fill:black;font-family:sans-serif;font-size:13;" transform="matrix(1 0 0 1 263 1971)">Symbols are supported in up to nine weights and three scales.</text>
  <text style="stroke:none;fill:black;font-family:sans-serif;font-size:13;" transform="matrix(1 0 0 1 263 1989)">For optimal layout with text and other symbols, vertically align</text>
  <text style="stroke:none;fill:black;font-family:sans-serif;font-size:13;" transform="matrix(1 0 0 1 263 2007)">symbols with the adjacent text.</text>
  <line style="fill:none;stroke:#00AEEF;stroke-width:0.5;opacity:1.0;" x1="776" x2="776" y1="1919" y2="1933"/>
  <g transform="matrix(1 0 0 1 776 1933)">
   <path d="M3.31055 0.15625Q3.70117 0.15625 3.91602-0.00976562Q4.13086-0.175781 4.26758-0.585938L5.52734-4.0332L11.2891-4.0332L12.5488-0.585938Q12.6855-0.175781 12.9004-0.00976562Q13.1152 0.15625 13.4961 0.15625Q13.8867 0.15625 14.1162-0.0585938Q14.3457-0.273438 14.3457-0.644531Q14.3457-0.869141 14.2383-1.17188L9.6582-13.3691Q9.48242-13.8184 9.17969-14.043Q8.87695-14.2676 8.4082-14.2676Q7.5-14.2676 7.17773-13.3789L2.59766-1.16211Q2.49023-0.859375 2.49023-0.634766Q2.49023-0.263672 2.70996-0.0537109Q2.92969 0.15625 3.31055 0.15625ZM6.00586-5.51758L8.37891-12.0898L8.42773-12.0898L10.8008-5.51758Z"/>
  </g>
  <line style="fill:none;stroke:#00AEEF;stroke-width:0.5;opacity:1.0;" x1="793.197" x2="793.197" y1="1919" y2="1933"/>
  <text style="stroke:none;fill:black;font-family:sans-serif;font-size:13;font-weight:bold;" transform="matrix(1 0 0 1 776 1953)">Margins</text>
  <text style="stroke:none;fill:black;font-family:sans-serif;font-size:13;" transform="matrix(1 0 0 1 776 1971)">Leading and trailing margins on the left and right side of each symbol</text>
  <text style="stroke:none;fill:black;font-family:sans-serif;font-size:13;" transform="matrix(1 0 0 1 776 1989)">can be adjusted by modifying the x-location of the margin guidelines.</text>
  <text style="stroke:none;fill:black;font-family:sans-serif;font-size:13;" transform="matrix(1 0 0 1 776 2007)">Modifications are automatically applied proportionally to all</text>
  <text style="stroke:none;fill:black;font-family:sans-serif;font-size:13;" transform="matrix(1 0 0 1 776 2025)">scales and weights.</text>
  <g transform="matrix(1 0 0 1 1289 1933)">
   <path d="M2.8418 1.86523L4.54102 3.57422Q5.18555 4.22852 5.90332 4.17969Q6.62109 4.13086 7.31445 3.35938L18.0078-8.42773L17.041-9.4043L6.42578 2.27539Q6.16211 2.57812 5.89355 2.61719Q5.625 2.65625 5.27344 2.30469L4.10156 1.14258Q3.75 0.791016 3.79395 0.522461Q3.83789 0.253906 4.14062-0.0195312L15.6152-10.8203L14.6387-11.7871L3.04688-0.898438Q2.30469-0.214844 2.25098 0.498047Q2.19727 1.21094 2.8418 1.86523ZM9.25781-16.3281Q8.94531-16.0254 8.90625-15.6348Q8.86719-15.2441 9.04297-14.9512Q9.21875-14.6777 9.55566-14.541Q9.89258-14.4043 10.3809-14.5215Q11.4746-14.7754 12.5977-14.7314Q13.7207-14.6875 14.7949-13.9844L14.209-12.5293Q13.9551-11.9043 14.0674-11.4404Q14.1797-10.9766 14.5801-10.5664L16.875-8.25195Q17.2363-7.88086 17.5781-7.82227Q17.9199-7.76367 18.3398-7.8418L19.4043-8.03711L20.0684-7.36328L20.0293-6.80664Q20-6.43555 20.1221-6.12305Q20.2441-5.81055 20.6055-5.44922L21.3672-4.70703Q21.7285-4.3457 22.1533-4.33105Q22.5781-4.31641 22.9297-4.66797L25.8398-7.58789Q26.1914-7.93945 26.1816-8.35449Q26.1719-8.76953 25.8105-9.13086L25.0391-9.89258Q24.6875-10.2539 24.3799-10.3857Q24.0723-10.5176 23.7109-10.4883L23.1348-10.4395L22.4902-11.0742L22.7344-12.1973Q22.832-12.6172 22.6953-12.9834Q22.5586-13.3496 22.1191-13.7891L19.9219-15.9766Q18.6719-17.2168 17.2607-17.8369Q15.8496-18.457 14.4189-18.4814Q12.9883-18.5059 11.665-17.959Q10.3418-17.4121 9.25781-16.3281ZM10.752-15.957Q11.6602-16.6211 12.7002-16.9043Q13.7402-17.1875 14.8047-17.085Q15.8691-16.9824 16.8701-16.5137Q17.8711-16.0449 18.7012-15.2051L21.1328-12.793Q21.3086-12.6172 21.3525-12.4512Q21.3965-12.2852 21.3379-12.0312L21.0156-10.5469L22.5195-9.0625L23.5059-9.12109Q23.6914-9.13086 23.7891-9.09668Q23.8867-9.0625 24.0332-8.91602L24.6094-8.33984L22.168-5.89844L21.5918-6.47461Q21.4453-6.62109 21.4062-6.71875Q21.3672-6.81641 21.377-7.01172L21.4453-7.98828L19.9512-9.47266L18.4277-9.21875Q18.1836-9.16992 18.042-9.2041Q17.9004-9.23828 17.7148-9.41406L15.7129-11.416Q15.5176-11.5918 15.4932-11.7529Q15.4688-11.9141 15.5859-12.1875L16.4648-14.2773Q15.293-15.3711 13.8281-15.791Q12.3633-16.2109 10.8398-15.7617Q10.7227-15.7324 10.6885-15.8057Q10.6543-15.8789 10.752-15.957Z"/>
  </g>
  <text style="stroke:none;fill:black;font-family:sans-serif;font-size:13;font-weight:bold;" transform="matrix(1 0 0 1 1289 1953)">Exporting</text>
  <text style="stroke:none;fill:black;font-family:sans-serif;font-size:13;" transform="matrix(1 0 0 1 1289 1971)">Symbols should be outlined when exporting to ensure the</text>
  <text style="stroke:none;fill:black;font-family:sans-serif;font-size:13;" transform="matrix(1 0 0 1 1289 1989)">design is preserved when submitting to Xcode.</text>
  <text id="template-version" style="stroke:none;fill:black;font-family:sans-serif;font-size:13;text-anchor:end;" transform="matrix(1 0 0 1 3036 1933)">Template v.3.0</text>
  <text style="stroke:none;fill:black;font-family:sans-serif;font-size:13;text-anchor:end;" transform="matrix(1 0 0 1 3036 1951)">Requires Xcode 13 or greater</text>
  <text id="descriptive-name" style="stroke:none;fill:black;font-family:sans-serif;font-size:13;text-anchor:end;" transform="matrix(1 0 0 1 3036 1969)">Generated from photo</text>
  <text style="stroke:none;fill:black;font-family:sans-serif;font-size:13;text-anchor:end;" transform="matrix(1 0 0 1 3036 1987)">Typeset at 100 points</text>
  <text style="stroke:none;fill:black;font-family:sans-serif;font-size:13;" transform="matrix(1 0 0 1 263 726)">Small</text>
  <text style="stroke:none;fill:black;font-family:sans-serif;font-size:13;" transform="matrix(1 0 0 1 263 1156)">Medium</text>
  <text style="stroke:none;fill:black;font-family:sans-serif;font-size:13;" transform="matrix(1 0 0 1 263 1586)">Large</text>
 </g>
 <g id="Guides">
  <g id="H-reference" style="fill:#27AAE1;stroke:none;" transform="matrix(1 0 0 1 339 696)">
   <path d="M0.993347 0L3.6377 0L29.3282-67.1326L30.0301-67.1326L30.0301-70.459L28.1227-70.459ZM11.6882-24.4797L46.9818-24.4797L46.2311-26.7288L12.4382-26.7288ZM55.1193 0L57.7637 0L30.6381-70.459L29.4327-70.459L29.4327-67.1326Z"/>
  </g>
  <line id="Baseline-S" style="fill:none;stroke:#27AAE1;opacity:1;stroke-width:0.5;" x1="263" x2="3036" y1="696" y2="696"/>
  <line id="Capline-S" style="fill:none;stroke:#27AAE1;opacity:1;stroke-width:0.5;" x1="263" x2="3036" y1="625.541" y2="625.541"/>
  <g id="H-reference" style="fill:#27AAE1;stroke:none;" transform="matrix(1 0 0 1 339 1126)">
   <path d="M0.993347 0L3.6377 0L29.3282-67.1326L30.0301-67.1326L30.0301-70.459L28.1227-70.459ZM11.6882-24.4797L46.9818-24.4797L46.2311-26.7288L12.4382-26.7288ZM55.1193 0L57.7637 0L30.6381-70.459L29.4327-70.459L29.4327-67.1326Z"/>
  </g>
  <line id="Baseline-M" style="fill:none;stroke:#27AAE1;opacity:1;stroke-width:0.5;" x1="263" x2="3036" y1="1126" y2="1126"/>
  <line id="Capline-M" style="fill:none;stroke:#27AAE1;opacity:1;stroke-width:0.5;" x1="263" x2="3036" y1="1055.54" y2="1055.54"/>
  <g id="H-reference" style="fill:#27AAE1;stroke:none;" transform="matrix(1 0 0 1 339 1556)">
   <path d="M0.993347 0L3.6377 0L29.3282-67.1326L30.0301-67.1326L30.0301-70.459L28.1227-70.459ZM11.6882-24.4797L46.9818-24.4797L46.2311-26.7288L12.4382-26.7288ZM55.1193 0L57.7637 0L30.6381-70.459L29.4327-70.459L29.4327-67.1326Z"/>
  </g>
  <line id="Baseline-L" style="fill:none;stroke:#27AAE1;opacity:1;stroke-width:0.5;" x1="263" x2="3036" y1="1556" y2="1556"/>
  <line id="Capline-L" style="fill:none;stroke:#27AAE1;opacity:1;stroke-width:0.5;" x1="263" x2="3036" y1="1485.54" y2="1485.54"/>
  <line id="left-margin-Ultralight-S" style="fill:none;stroke:#00AEEF;stroke-width:0.5;opacity:1.0;" x1="505.702" x2="505.702" y1="600.785" y2="720.121"/>
  <line id="right-margin-Ultralight-S" style="fill:none;stroke:#00AEEF;stroke-width:0.5;opacity:1.0;" x1="613.72" x2="613.72" y1="600.785" y2="720.121"/>
  <line id="left-margin-Thin-S" style="fill:none;stroke:#00AEEF;stroke-width:0.5;opacity:1.0;" x1="802.177" x2="802.177" y1="600.785" y2="720.121"/>
  <line id="right-margin-Thin-S" style="fill:none;stroke:#00AEEF;stroke-width:0.5;opacity:1.0;" x1="910.667" x2="910.667" y1="600.785" y2="720.121"/>
  <line id="left-margin-Light-S" style="fill:none;stroke:#00AEEF;stroke-width:0.5;opacity:1.0;" x1="1098.43" x2="1098.43" y1="600.785" y2="720.121"/>
  <line id="right-margin-Light-S" style="fill:none;stroke:#00AEEF;stroke-width:0.5;opacity:1.0;" x1="1207.84" x2="1207.84" y1="600.785" y2="720.121"/>
  <line id="left-margin-Regular-S" style="fill:none;stroke:#00AEEF;stroke-width:0.5;opacity:1.0;" x1="1394.79" x2="1394.79" y1="600.785" y2="720.121"/>
  <line id="right-margin-Regular-S" style="fill:none;stroke:#00AEEF;stroke-width:0.5;opacity:1.0;" x1="1504.9" x2="1504.9" y1="600.785" y2="720.121"/>
  <line id="left-margin-Medium-S" style="fill:none;stroke:#00AEEF;stroke-width:0.5;opacity:1.0;" x1="1691.32" x2="1691.32" y1="600.785" y2="720.121"/>
  <line id="right-margin-Medium-S" style="fill:none;stroke:#00AEEF;stroke-width:0.5;opacity:1.0;" x1="1801.79" x2="1801.79" y1="600.785" y2="720.121"/>
  <line id="left-margin-Semibold-S" style="fill:none;stroke:#00AEEF;stroke-width:0.5;opacity:1.0;" x1="1987.89" x2="1987.89" y1="600.785" y2="720.121"/>
  <line id="right-margin-Semibold-S" style="fill:none;stroke:#00AEEF;stroke-width:0.5;opacity:1.0;" x1="2098.64" x2="2098.64" y1="600.785" y2="720.121"/>
  <line id="left-margin-Bold-S" style="fill:none;stroke:#00AEEF;stroke-width:0.5;opacity:1.0;" x1="2284.42" x2="2284.42" y1="600.785" y2="720.121"/>
  <line id="right-margin-Bold-S" style="fill:none;stroke:#00AEEF;stroke-width:0.5;opacity:1.0;" x1="2395.53" x2="2395.53" y1="600.785" y2="720.121"/>
  <line id="left-margin-Heavy-S" style="fill:none;stroke:#00AEEF;stroke-width:0.5;opacity:1.0;" x1="2580.87" x2="2580.87" y1="600.785" y2="720.121"/>
  <line id="right-margin-Heavy-S" style="fill:none;stroke:#00AEEF;stroke-width:0.5;opacity:1.0;" x1="2692.51" x2="2692.51" y1="600.785" y2="720.121"/>
  <line id="left-margin-Black-S" style="fill:none;stroke:#00AEEF;stroke-width:0.5;opacity:1.0;" x1="2877.35" x2="2877.35" y1="600.785" y2="720.121"/>
  <line id="right-margin-Black-S" style="fill:none;stroke:#00AEEF;stroke-width:0.5;opacity:1.0;" x1="2989.45" x2="2989.45" y1="600.785" y2="720.121"/>
  <line id="left-margin-Ultralight-M" style="fill:none;stroke:#00AEEF;stroke-width:0.5;opacity:1.0;" x1="490.872" x2="490.872" y1="1030.79" y2="1150.12"/>
  <line id="right-margin-Ultralight-M" style="fill:none;stroke:#00AEEF;stroke-width:0.5;opacity:1.0;" x1="628.55" x2="628.55" y1="1030.79" y2="1150.12"/>
  <line id="left-margin-Thin-M" style="fill:none;stroke:#00AEEF;stroke-width:0.5;opacity:1.0;" x1="787.317" x2="787.317" y1="1030.79" y2="1150.12"/>
  <line id="right-margin-Thin-M" style="fill:none;stroke:#00AEEF;stroke-width:0.5;opacity:1.0;" x1="925.528" x2="925.528" y1="1030.79" y2="1150.12"/>
  <line id="left-margin-Light-M" style="fill:none;stroke:#00AEEF;stroke-width:0.5;opacity:1.0;" x1="1083.51" x2="1083.51" y1="1030.79" y2="1150.12"/>
  <line id="right-margin-Light-M" style="fill:none;stroke:#00AEEF;stroke-width:0.5;opacity:1.0;" x1="1222.76" x2="1222.76" y1="1030.79" y2="1150.12"/>
  <line id="left-margin-Regular-M" style="fill:none;stroke:#00AEEF;stroke-width:0.5;opacity:1.0;" x1="1379.82" x2="1379.82" y1="1030.79" y2="1150.12"/>
  <line id="right-margin-Regular-M" style="fill:none;stroke:#00AEEF;stroke-width:0.5;opacity:1.0;" x1="1519.86" x2="1519.86" y1="1030.79" y2="1150.12"/>
  <line id="left-margin-Medium-M" style="fill:none;stroke:#00AEEF;stroke-width:0.5;opacity:1.0;" x1="1676.28" x2="1676.28" y1="1030.79" y2="1150.12"/>
  <line id="right-margin-Medium-M" style="fill:none;stroke:#00AEEF;stroke-width:0.5;opacity:1.0;" x1="1816.83" x2="1816.83" y1="1030.79" y2="1150.12"/>
  <line id="left-margin-Semibold-M" style="fill:none;stroke:#00AEEF;stroke-width:0.5;opacity:1.0;" x1="1972.8" x2="1972.8" y1="1030.79" y2="1150.12"/>
  <line id="right-margin-Semibold-M" style="fill:none;stroke:#00AEEF;stroke-width:0.5;opacity:1.0;" x1="2113.74" x2="2113.74" y1="1030.79" y2="1150.12"/>
  <line id="left-margin-Bold-M" style="fill:none;stroke:#00AEEF;stroke-width:0.5;opacity:1.0;" x1="2269.25" x2="2269.25" y1="1030.79" y2="1150.12"/>
  <line id="right-margin-Bold-M" style="fill:none;stroke:#00AEEF;stroke-width:0.5;opacity:1.0;" x1="2410.71" x2="2410.71" y1="1030.79" y2="1150.12"/>
  <line id="left-margin-Heavy-M" style="fill:none;stroke:#00AEEF;stroke-width:0.5;opacity:1.0;" x1="2565.59" x2="2565.59" y1="1030.79" y2="1150.12"/>
  <line id="right-margin-Heavy-M" style="fill:none;stroke:#00AEEF;stroke-width:0.5;opacity:1.0;" x1="2707.79" x2="2707.79" y1="1030.79" y2="1150.12"/>
  <line id="left-margin-Black-M" style="fill:none;stroke:#00AEEF;stroke-width:0.5;opacity:1.0;" x1="2861.96" x2="2861.96" y1="1030.79" y2="1150.12"/>
  <line id="right-margin-Black-M" style="fill:none;stroke:#00AEEF;stroke-width:0.5;opacity:1.0;" x1="3004.84" x2="3004.84" y1="1030.79" y2="1150.12"/>
  <line id="left-margin-Ultralight-L" style="fill:none;stroke:#00AEEF;stroke-width:0.5;opacity:1.0;" x1="471.012" x2="471.012" y1="1460.79" y2="1580.12"/>
  <line id="right-margin-Ultralight-L" style="fill:none;stroke:#00AEEF;stroke-width:0.5;opacity:1.0;" x1="648.411" x2="648.411" y1="1460.79" y2="1580.12"/>
  <line id="left-margin-Thin-L" style="fill:none;stroke:#00AEEF;stroke-width:0.5;opacity:1.0;" x1="767.42" x2="767.42" y1="1460.79" y2="1580.12"/>
  <line id="right-margin-Thin-L" style="fill:none;stroke:#00AEEF;stroke-width:0.5;opacity:1.0;" x1="945.424" x2="945.424" y1="1460.79" y2="1580.12"/>
  <line id="left-margin-Light-L" style="fill:none;stroke:#00AEEF;stroke-width:0.5;opacity:1.0;" x1="1063.54" x2="1063.54" y1="1460.79" y2="1580.12"/>
  <line id="right-margin-Light-L" style="fill:none;stroke:#00AEEF;stroke-width:0.5;opacity:1.0;" x1="1242.73" x2="1242.73" y1="1460.79" y2="1580.12"/>
  <line id="left-margin-Regular-L" style="fill:none;stroke:#00AEEF;stroke-width:0.5;opacity:1.0;" x1="1359.81" x2="1359.81" y1="1460.79" y2="1580.12"/>
  <line id="right-margin-Regular-L" style="fill:none;stroke:#00AEEF;stroke-width:0.5;opacity:1.0;" x1="1539.88" x2="1539.88" y1="1460.79" y2="1580.12"/>
  <line id="left-margin-Medium-L" style="fill:none;stroke:#00AEEF;stroke-width:0.5;opacity:1.0;" x1="1656.18" x2="1656.18" y1="1460.79" y2="1580.12"/>
  <line id="right-margin-Medium-L" style="fill:none;stroke:#00AEEF;stroke-width:0.5;opacity:1.0;" x1="1836.93" x2="1836.93" y1="1460.79" y2="1580.12"/>
  <line id="left-margin-Semibold-L" style="fill:none;stroke:#00AEEF;stroke-width:0.5;opacity:1.0;" x1="1952.64" x2="1952.64" y1="1460.79" y2="1580.12"/>
  <line id="right-margin-Semibold-L" style="fill:none;stroke:#00AEEF;stroke-width:0.5;opacity:1.0;" x1="2133.9" x2="2133.9" y1="1460.79" y2="1580.12"/>
  <line id="left-margin-Bold-L" style="fill:none;stroke:#00AEEF;stroke-width:0.5;opacity:1.0;" x1="2249.01" x2="2249.01" y1="1460.79" y2="1580.12"/>
  <line id="right-margin-Bold-L" style="fill:none;stroke:#00AEEF;stroke-width:0.5;opacity:1.0;" x1="2430.94" x2="2430.94" y1="1460.79" y2="1580.12"/>
  <line id="left-margin-Heavy-L" style="fill:none;stroke:#00AEEF;stroke-width:0.5;opacity:1.0;" x1="2545.23" x2="2545.23" y1="1460.79" y2="1580.12"/>
  <line id="right-margin-Heavy-L" style="fill:none;stroke:#00AEEF;stroke-width:0.5;opacity:1.0;" x1="2728.15" x2="2728.15" y1="1460.79" y2="1580.12"/>
  <line id="left-margin-Black-L" style="fill:none;stroke:#00AEEF;stroke-width:0.5;opacity:1.0;" x1="2841.51" x2="2841.51" y1="1460.79" y2="1580.12"/>
  <line id="right-margin-Black-L" style="fill:none;stroke:#00AEEF;stroke-width:0.5;opacity:1.0;" x1="3025.29" x2="3025.29" y1="1460.79" y2="1580.12"/>
 </g>
 <g id="Symbols">
  <g id="Black-L" transform="matrix(1 0 0 1 2841.51 1556)">
   <path d="M160.645-1.9043L123.779-36.377Q121.729-38.2324 119.336-39.1602Q116.943-40.0879 114.502-40.0879Q112.012-40.0879 109.668-39.209Q107.324-38.3301 105.176-36.4746L76.9043-11.1328L65.3809-21.4355Q63.3789-23.1934 61.2061-24.0723Q59.0332-24.9512 56.8848-24.9512Q54.541-24.9512 52.6611-24.0967Q50.7812-23.2422 48.8281-21.4844L25.7812-1.46484Q25.7812 4.78516 28.3691 9.15527Q30.957 13.5254 35.8887 15.8203Q40.8203 18.1152 47.8516 18.1152L137.695 18.1152Q146.143 18.1152 151.66 15.7959Q157.178 13.4766 159.497 9.00879Q161.816 4.54102 160.645-1.9043ZM71.3379-32.2266Q75.6836-32.2266 79.2969-34.3994Q82.9102-36.5723 85.083-40.21Q87.2559-43.8477 87.2559-48.2422Q87.2559-52.5879 85.083-56.2256Q82.9102-59.8633 79.2969-62.0361Q75.6836-64.209 71.3379-64.209Q66.9434-64.209 63.3057-62.0361Q59.668-59.8633 57.5195-56.2256Q55.3711-52.5879 55.3711-48.2422Q55.3711-43.8477 57.5195-40.21Q59.668-36.5723 63.3057-34.3994Q66.9434-32.2266 71.3379-32.2266ZM39.9902 26.5137L143.799 26.5137Q155.225 26.5137 161.475 20.3125Q167.725 14.1113 167.725 2.68555L167.725-73.0957Q167.725-84.4727 161.475-90.6738Q155.225-96.875 143.799-96.875L39.9902-96.875Q28.5645-96.875 22.3145-90.6738Q16.0645-84.4727 16.0645-73.0957L16.0645 2.68555Q16.0645 14.1113 22.3145 20.3125Q28.5645 26.5137 39.9902 26.5137ZM42.6758 6.29883Q39.5508 6.29883 37.9395 4.78516Q36.3281 3.27148 36.3281-0.146484L36.3281-70.2148Q36.3281-73.6328 37.9395-75.1465Q39.5508-76.6602 42.6758-76.6602L141.064-76.6602Q144.238-76.6602 145.85-75.1465Q147.461-73.6328 147.461-70.2148L147.461-0.146484Q147.461 3.27148 145.85 4.78516Q144.238 6.29883 141.064 6.29883Z"/>
  </g>
  <g id="Heavy-L" transform="matrix(1 0 0 1 2545.23 1556)">
   <path d="M160.161-1.18942L123.03-35.881Q120.934-37.7487 118.541-38.7051Q116.148-39.6614 113.66-39.6614Q111.124-39.6614 108.781-38.7653Q106.437-37.8693 104.277-35.9787L75.9247-10.5911L64.344-20.9976Q62.3421-22.7669 60.1807-23.6572Q58.0193-24.5476 55.8357-24.5476Q53.5271-24.5476 51.6239-23.6816Q49.7208-22.8157 47.7676-21.0579L24.5255-0.623322Q24.6056 5.44205 26.9516 9.62219Q29.2976 13.8023 33.7681 15.9702Q38.2385 18.1381 44.6938 18.1381L138.779 18.1381Q146.535 18.1381 151.603 15.8939Q156.67 13.6497 158.863 9.33723Q161.056 5.02472 160.161-1.18942ZM69.2749-32.7454Q73.5512-32.7454 77.1069-34.8778Q80.6625-37.0102 82.7953-40.5846Q84.9281-44.1589 84.9281-48.484Q84.9281-52.7611 82.7953-56.3412Q80.6625-59.9213 77.1069-62.0594Q73.5512-64.1975 69.2749-64.1975Q64.9498-64.1975 61.3754-62.0594Q57.8011-59.9213 55.6873-56.3412Q53.5736-52.7611 53.5736-48.484Q53.5736-44.1589 55.6873-40.5846Q57.8011-37.0102 61.3754-34.8778Q64.9498-32.7454 69.2749-32.7454ZM38.826 25.4883L144.076 25.4883Q155.04 25.4883 160.944 19.6327Q166.849 13.7772 166.849 2.84653L166.849-73.2567Q166.849-84.1499 160.944-90.0112Q155.04-95.8725 144.076-95.8725L38.826-95.8725Q27.8732-95.8725 21.9688-90.0169Q16.0645-84.1614 16.0645-73.2567L16.0645 2.84653Q16.0645 13.7886 21.9688 19.6384Q27.8732 25.4883 38.826 25.4883ZM40.9241 8.00476Q37.3268 8.00476 35.4561 6.21452Q33.5854 4.42429 33.5854 0.56839L33.5854-70.9526Q33.5854-74.8085 35.4561-76.5987Q37.3268-78.389 40.9241-78.389L141.952-78.389Q145.564-78.389 147.44-76.5987Q149.316-74.8085 149.316-70.9526L149.316 0.56839Q149.316 4.42429 147.44 6.21452Q145.564 8.00476 141.952 8.00476Z"/>
  </g>
  <g id="Bold-L" transform="matrix(1 0 0 1 2249.01 1556)">
   <path d="M159.619-0.390625L122.192-35.3271Q120.044-37.207 117.651-38.1958Q115.259-39.1846 112.72-39.1846Q110.132-39.1846 107.788-38.269Q105.444-37.3535 103.271-35.4248L74.8291-9.98535L63.1836-20.5078Q61.1816-22.29 59.0332-23.1934Q56.8848-24.0967 54.6631-24.0967Q52.3926-24.0967 50.4639-23.2178Q48.5352-22.3389 46.582-20.5811L23.1201 0.317383Q23.291 6.17676 25.3662 10.144Q27.4414 14.1113 31.3965 16.1377Q35.3516 18.1641 41.1621 18.1641L139.99 18.1641Q146.973 18.1641 151.538 16.0034Q156.104 13.8428 158.154 9.70459Q160.205 5.56641 159.619-0.390625ZM66.9678-33.3252Q71.167-33.3252 74.6582-35.4126Q78.1494-37.5 80.2368-41.0034Q82.3242-44.5068 82.3242-48.7549Q82.3242-52.9541 80.2368-56.4697Q78.1494-59.9854 74.6582-62.085Q71.167-64.1846 66.9678-64.1846Q62.7197-64.1846 59.2163-62.085Q55.7129-59.9854 53.6377-56.4697Q51.5625-52.9541 51.5625-48.7549Q51.5625-44.5068 53.6377-41.0034Q55.7129-37.5 59.2163-35.4126Q62.7197-33.3252 66.9678-33.3252ZM37.5244 24.3408L144.385 24.3408Q154.834 24.3408 160.352 18.8721Q165.869 13.4033 165.869 3.02734L165.869-73.4375Q165.869-83.7891 160.352-89.27Q154.834-94.751 144.385-94.751L37.5244-94.751Q27.0996-94.751 21.582-89.2822Q16.0645-83.8135 16.0645-73.4375L16.0645 3.02734Q16.0645 13.4277 21.582 18.8843Q27.0996 24.3408 37.5244 24.3408ZM38.9648 9.91211Q34.8389 9.91211 32.6782 7.8125Q30.5176 5.71289 30.5176 1.36719L30.5176-71.7773Q30.5176-76.123 32.6782-78.2227Q34.8389-80.3223 38.9648-80.3223L142.944-80.3223Q147.046-80.3223 149.219-78.2227Q151.392-76.123 151.392-71.7773L151.392 1.36719Q151.392 5.71289 149.219 7.8125Q147.046 9.91211 142.944 9.91211Z"/>
  </g>
  <g id="Semibold-L" transform="matrix(1 0 0 1 1952.64 1556)">
   <path d="M159.246 0.160217L121.615-34.9449Q119.431-36.834 117.038-37.8448Q114.645-38.8557 112.071-38.8557Q109.447-38.8557 107.104-37.9269Q104.76-36.998 102.578-35.0426L74.0738-9.56802L62.384-20.1698Q60.3821-21.9612 58.2424-22.8733Q56.1028-23.7854 53.8544-23.7854Q51.6106-23.7854 49.6639-22.8977Q47.7173-22.01 45.7642-20.2522L22.1512 0.965881Q22.3846 6.68335 24.2733 10.5042Q26.162 14.325 29.7615 16.2533Q33.3611 18.1816 38.7268 18.1816L140.826 18.1816Q147.275 18.1816 151.493 16.0789Q155.712 13.9763 157.665 9.95789Q159.618 5.93948 159.246 0.160217ZM65.377-33.725Q69.5229-33.725 72.9698-35.7815Q76.4168-37.838 78.4729-41.2926Q80.529-44.7472 80.529-48.9418Q80.529-53.0876 78.4729-56.5586Q76.4168-60.0296 72.9698-62.1025Q69.5229-64.1754 65.377-64.1754Q61.1824-64.1754 57.7278-62.1025Q54.2732-60.0296 52.2247-56.5586Q50.1762-53.0876 50.1762-48.9418Q50.1762-44.7472 52.2247-41.2926Q54.2732-37.838 57.7278-35.7815Q61.1824-33.725 65.377-33.725ZM36.6272 23.5497L144.598 23.5497Q154.692 23.5497 159.943 18.3475Q165.194 13.1454 165.194 3.1517L165.194-73.5619Q165.194-83.5403 159.943-88.7592Q154.692-93.9781 144.598-93.9781L36.6272-93.9781Q26.5663-93.9781 21.3154-88.7756Q16.0645-83.5732 16.0645-73.5619L16.0645 3.1517Q16.0645 13.179 21.3154 18.3643Q26.5663 23.5497 36.6272 23.5497ZM37.6137 11.2274Q33.1238 11.2274 30.7632 8.91457Q28.4027 6.60172 28.4027 1.91803L28.4027-72.3465Q28.4027-77.0294 30.7632-79.3423Q33.1238-81.6551 37.6137-81.6551L143.629-81.6551Q148.068-81.6551 150.445-79.3423Q152.822-77.0294 152.822-72.3465L152.822 1.91803Q152.822 6.60172 150.445 8.91457Q148.068 11.2274 143.629 11.2274Z"/>
  </g>
  <g id="Medium-L" transform="matrix(1 0 0 1 1656.18 1556)">
   <path d="M158.963 0.578308L121.177-34.655Q118.966-36.5509 116.573-37.5786Q114.181-38.6063 111.579-38.6063Q108.929-38.6063 106.585-37.6675Q104.241-36.7287 102.053-34.7527L73.5008-9.25064L61.7775-19.9142Q59.7755-21.7117 57.6427-22.6307Q55.5099-23.5497 53.241-23.5497Q51.0178-23.5497 49.0578-22.6551Q47.0978-21.7606 45.1447-20.0027L21.4172 1.45798Q21.6972 7.06711 23.4444 10.7769Q25.1915 14.4867 28.5213 16.341Q31.8512 18.1953 36.8805 18.1953L141.459 18.1953Q147.504 18.1953 151.46 16.1362Q155.416 14.077 157.295 10.1498Q159.174 6.22253 158.963 0.578308ZM64.1708-34.0286Q68.2762-34.0286 71.6892-36.0611Q75.1022-38.0936 77.1351-41.5112Q79.1679-44.9287 79.1679-49.0829Q79.1679-53.1883 77.1351-56.6257Q75.1022-60.0632 71.6892-62.1162Q68.2762-64.1693 64.1708-64.1693Q60.0166-64.1693 56.599-62.1162Q53.1815-60.0632 51.1532-56.6257Q49.1249-53.1883 49.1249-49.0829Q49.1249-44.9287 51.1532-41.5112Q53.1815-38.0936 56.599-36.0611Q60.0166-34.0286 64.1708-34.0286ZM35.9459 22.95L144.76 22.95Q154.584 22.95 159.632 17.9501Q164.681 12.9501 164.681 3.24631L164.681-73.6565Q164.681-83.3519 159.632-88.3717Q154.584-93.3914 144.76-93.3914L35.9459-93.3914Q26.162-93.3914 21.1132-88.3915Q16.0645-83.3916 16.0645-73.6565L16.0645 3.24631Q16.0645 12.9906 21.1132 17.9703Q26.162 22.95 35.9459 22.95ZM36.5898 12.2246Q31.823 12.2246 29.311 9.74998Q26.799 7.27539 26.799 2.33612L26.799-72.7776Q26.799-77.7168 29.311-80.1914Q31.823-82.666 36.5898-82.666L144.147-82.666Q148.843-82.666 151.375-80.1914Q153.907-77.7168 153.907-72.7776L153.907 2.33612Q153.907 7.27539 151.375 9.74998Q148.843 12.2246 144.147 12.2246Z"/>
  </g>
  <g id="Regular-L" transform="matrix(1 0 0 1 1359.81 1556)">
   <path d="M158.594 1.12305L120.605-34.2773Q118.359-36.1816 115.967-37.2314Q113.574-38.2812 110.938-38.2812Q108.252-38.2812 105.908-37.3291Q103.564-36.377 101.367-34.375L72.7539-8.83789L60.9863-19.5801Q58.9844-21.3867 56.8604-22.3145Q54.7363-23.2422 52.4414-23.2422Q50.2441-23.2422 48.2666-22.3389Q46.2891-21.4355 44.3359-19.6777L20.459 2.09961Q20.8008 7.56836 22.3633 11.1328Q23.9258 14.6973 26.9043 16.4551Q29.8828 18.2129 34.4727 18.2129L142.285 18.2129Q147.803 18.2129 151.416 16.2109Q155.029 14.209 156.812 10.4004Q158.594 6.5918 158.594 1.12305ZM62.5977-34.4238Q66.6504-34.4238 70.0195-36.4258Q73.3887-38.4277 75.3906-41.7969Q77.3926-45.166 77.3926-49.2676Q77.3926-53.3203 75.3906-56.7139Q73.3887-60.1074 70.0195-62.1338Q66.6504-64.1602 62.5977-64.1602Q58.4961-64.1602 55.127-62.1338Q51.7578-60.1074 49.7559-56.7139Q47.7539-53.3203 47.7539-49.2676Q47.7539-45.166 49.7559-41.7969Q51.7578-38.4277 55.127-36.4258Q58.4961-34.4238 62.5977-34.4238ZM35.0586 22.168L144.971 22.168Q154.443 22.168 159.229 17.4316Q164.014 12.6953 164.014 3.36914L164.014-73.7793Q164.014-83.1055 159.229-87.8662Q154.443-92.627 144.971-92.627L35.0586-92.627Q25.6348-92.627 20.8496-87.8906Q16.0645-83.1543 16.0645-73.7793L16.0645 3.36914Q16.0645 12.7441 20.8496 17.4561Q25.6348 22.168 35.0586 22.168ZM35.2539 13.5254Q30.127 13.5254 27.417 10.8398Q24.707 8.1543 24.707 2.88086L24.707-73.3398Q24.707-78.6133 27.417-81.2988Q30.127-83.9844 35.2539-83.9844L144.824-83.9844Q149.854-83.9844 152.588-81.2988Q155.322-78.6133 155.322-73.3398L155.322 2.88086Q155.322 8.1543 152.588 10.8398Q149.854 13.5254 144.824 13.5254Z"/>
  </g>
  <g id="Light-L" transform="matrix(1 0 0 1 1063.54 1556)">
   <path d="M159.184 2.8183L120.454-32.93Q118.087-34.8495 115.71-35.9749Q113.332-37.1002 110.529-37.1002Q107.767-37.1002 105.424-36.0954Q103.08-35.0906 100.807-33.0276L72.0276-7.35474L60.0929-18.3846Q58.091-20.2057 56.0051-21.1639Q53.9192-22.1222 51.5335-22.1222Q49.2302-22.1222 47.2904-21.1884Q45.3506-20.2545 43.3823-18.4669L19.7174 3.4317Q20.256 8.55255 21.7278 11.784Q23.1995 15.0154 25.9811 16.5535Q28.7628 18.0916 33.1863 18.0916L143.98 18.0916Q149.286 18.0916 152.634 16.2033Q155.983 14.315 157.576 10.8925Q159.169 7.46994 159.184 2.8183ZM62.0682-34.1362Q66.1209-34.1362 69.4901-36.1458Q72.8592-38.1554 74.8611-41.5245Q76.8631-44.8936 76.8631-48.9952Q76.8631-53.0479 74.8611-56.4415Q72.8592-59.8351 69.4901-61.8614Q66.1209-63.8878 62.0682-63.8878Q57.9666-63.8878 54.5975-61.8614Q51.2283-59.8351 49.2188-56.4415Q47.2092-53.0479 47.2092-48.9952Q47.2092-44.8936 49.2188-41.5245Q51.2283-38.1554 54.5975-36.1458Q57.9666-34.1362 62.0682-34.1362ZM34.0294 21.3203L145.122 21.3203Q154.034 21.3203 158.577 16.7809Q163.12 12.2414 163.12 3.47519L163.12-73.9304Q163.12-82.6965 158.577-87.2532Q154.034-91.8098 145.122-91.8098L34.0294-91.8098Q25.1503-91.8098 20.6074-87.2929Q16.0645-82.7759 16.0645-73.9304L16.0645 3.47519Q16.0645 12.3199 20.6074 16.8201Q25.1503 21.3203 34.0294 21.3203ZM34.2094 14.7064Q28.5675 14.7064 25.6229 11.7786Q22.6784 8.85086 22.6784 3.10822L22.6784-73.597Q22.6784-79.3396 25.6229-82.2674Q28.5675-85.1952 34.2094-85.1952L144.975-85.1952Q150.474-85.1952 153.473-82.2674Q156.473-79.3396 156.473-73.597L156.473 3.10822Q156.473 8.85086 153.473 11.7786Q150.474 14.7064 144.975 14.7064Z"/>
  </g>
  <g id="Thin-L" transform="matrix(1 0 0 1 767.42 1556)">
   <path d="M159.965 5.06058L120.254-31.1485Q117.727-33.0879 115.369-34.3136Q113.012-35.5392 109.988-35.5392Q107.127-35.5392 104.784-34.4639Q102.44-33.3885 100.066-31.2462L71.0663-5.39246L58.9119-16.803Q56.9099-18.6447 54.874-19.6426Q52.8381-20.6406 50.3319-20.6406Q47.8889-20.6406 45.9991-19.6671Q44.1093-18.6935 42.1211-16.8655L18.7363 5.19333Q19.5351 9.85336 20.8866 12.6446Q22.2382 15.4358 24.7597 16.6836Q27.2812 17.9314 31.4842 17.9314L146.223 17.9314Q151.248 17.9314 154.246 16.1934Q157.244 14.4554 158.587 11.5433Q159.93 8.63113 159.965 5.06058ZM61.367-33.7563Q65.4198-33.7563 68.7889-35.7758Q72.1581-37.7953 74.16-41.1644Q76.162-44.5335 76.162-48.6351Q76.162-52.6878 74.16-56.0814Q72.1581-59.4749 68.7889-61.5013Q65.4198-63.5277 61.367-63.5277Q57.2655-63.5277 53.8963-61.5013Q50.5272-59.4749 48.5077-56.0814Q46.4882-52.6878 46.4882-48.6351Q46.4882-44.5335 48.5077-41.1644Q50.5272-37.7953 53.8963-35.7758Q57.2655-33.7563 61.367-33.7563ZM32.6683 20.1996L145.322 20.1996Q153.494 20.1996 157.717 15.9203Q161.939 11.6409 161.939 3.61557L161.939-74.131Q161.939-82.1564 157.717-86.4426Q153.494-90.7288 145.322-90.7288L32.6683-90.7288Q24.5102-90.7288 20.2873-86.5021Q16.0645-82.2754 16.0645-74.131L16.0645 3.61557Q16.0645 11.7599 20.2873 15.9798Q24.5102 20.1996 32.6683 20.1996ZM32.8285 16.2674Q26.506 16.2674 23.2513 13.0196Q19.9966 9.77173 19.9966 3.40805L19.9966-73.9372Q19.9966-80.3009 23.2513-83.5487Q26.506-86.7966 32.8285-86.7966L145.176-86.7966Q151.295-86.7966 154.644-83.5487Q157.994-80.3009 157.994-73.9372L157.994 3.40805Q157.994 9.77173 154.644 13.0196Q151.295 16.2674 145.176 16.2674Z"/>
  </g>
  <g id="Ultralight-L" transform="matrix(1 0 0 1 471.012 1556)">
   <path d="M160.365 6.2088L120.152-30.2361Q117.542-32.1854 115.195-33.4621Q112.848-34.7389 109.711-34.7389Q106.799-34.7389 104.455-33.6281Q102.111-32.5172 99.6872-30.3337L70.5742-4.38766L58.3069-15.9927Q56.3049-17.8444 54.2946-18.8633Q52.2842-19.8822 49.7169-19.8822Q47.2015-19.8822 45.3377-18.8877Q43.4738-17.8932 41.4749-16.0446L18.2343 6.09589Q19.1658 10.5202 20.4559 13.0856Q21.7461 15.6509 24.1344 16.7503Q26.5228 17.8497 30.6129 17.8497L147.371 17.8497Q152.253 17.8497 155.072 16.1884Q157.89 14.5271 159.105 11.8763Q160.32 9.22546 160.365 6.2088ZM61.0085-33.5609Q65.0612-33.5609 68.4303-35.5858Q71.7995-37.6106 73.8014-40.9798Q75.8034-44.3489 75.8034-48.4505Q75.8034-52.5032 73.8014-55.8968Q71.7995-59.2903 68.4303-61.3167Q65.0612-63.343 61.0085-63.343Q56.9069-63.343 53.5378-61.3167Q50.1686-59.2903 48.1438-55.8968Q46.1189-52.5032 46.1189-48.4505Q46.1189-44.3489 48.1438-40.9798Q50.1686-37.6106 53.5378-35.5858Q56.9069-33.5609 61.0085-33.5609ZM31.971 19.6251L145.425 19.6251Q153.217 19.6251 157.276 15.4789Q161.334 11.3327 161.334 3.68729L161.334-74.2332Q161.334-81.8794 157.276-86.0271Q153.217-90.1749 145.425-90.1749L31.971-90.1749Q24.1814-90.1749 20.1229-86.097Q16.0645-82.019 16.0645-74.2332L16.0645 3.68729Q16.0645 11.4723 20.1229 15.5487Q24.1814 19.6251 31.971 19.6251ZM32.1205 17.0677Q25.4494 17.0677 22.0356 13.6555Q18.6218 10.2432 18.6218 3.56216L18.6218-74.1119Q18.6218-80.793 22.0356-84.2052Q25.4494-87.6175 32.1205-87.6175L145.278-87.6175Q151.715-87.6175 155.244-84.2052Q158.773-80.793 158.773-74.1119L158.773 3.56216Q158.773 10.2432 155.244 13.6555Q151.715 17.0677 145.278 17.0677Z"/>
  </g>
  <g id="Black-M" transform="matrix(1 0 0 1 2861.96 1126)">
   <path d="M125.098-9.42383L96.5332-36.084Q94.9219-37.5488 93.0664-38.2568Q91.2109-38.9648 89.3555-38.9648Q87.4023-38.9648 85.5713-38.2812Q83.7402-37.5977 82.1289-36.1328L60.1562-16.5039L51.2695-24.5117Q49.707-25.8301 48.0225-26.5381Q46.3379-27.2461 44.6777-27.2461Q42.7734-27.2461 41.3574-26.5869Q39.9414-25.9277 38.4277-24.5605L20.8008-9.32617Q20.8008-2.05078 25.6592 1.97754Q30.5176 6.00586 39.3555 6.00586L106.348 6.00586Q116.992 6.00586 121.899 1.97754Q126.807-2.05078 125.098-9.42383ZM56.8848-32.373Q60.3027-32.373 63.1592-34.082Q66.0156-35.791 67.7246-38.6719Q69.4336-41.5527 69.4336-45.0195Q69.4336-48.4375 67.7246-51.2939Q66.0156-54.1504 63.1592-55.8838Q60.3027-57.6172 56.8848-57.6172Q53.418-57.6172 50.5371-55.8838Q47.6562-54.1504 45.9473-51.2939Q44.2383-48.4375 44.2383-45.0195Q44.2383-41.5527 45.9473-38.6719Q47.6562-35.791 50.5371-34.082Q53.418-32.373 56.8848-32.373ZM31.5918 13.2324L111.279 13.2324Q120.312 13.2324 125.366 8.17871Q130.42 3.125 130.42-5.9082L130.42-64.4531Q130.42-73.5352 125.366-78.5645Q120.312-83.5938 111.279-83.5938L31.5918-83.5938Q22.5586-83.5938 17.5049-78.5645Q12.4512-73.5352 12.4512-64.4531L12.4512-5.9082Q12.4512 3.125 17.5049 8.17871Q22.5586 13.2324 31.5918 13.2324ZM34.2285-4.10156Q31.9824-4.10156 30.8838-5.12695Q29.7852-6.15234 29.7852-8.59375L29.7852-61.8164Q29.7852-64.2578 30.8838-65.2588Q31.9824-66.2598 34.2285-66.2598L108.643-66.2598Q110.889-66.2598 111.987-65.2588Q113.086-64.2578 113.086-61.8164L113.086-8.59375Q113.086-6.15234 111.987-5.12695Q110.889-4.10156 108.643-4.10156Z"/>
  </g>
  <g id="Heavy-M" transform="matrix(1 0 0 1 2565.59 1126)">
   <path d="M124.499-9.08966L95.8305-35.8879Q94.207-37.3528 92.3515-38.0783Q90.4961-38.8039 88.6063-38.8039Q86.6417-38.8039 84.8164-38.1084Q82.991-37.413 81.3568-35.9482L59.3613-16.2964L50.4395-24.3385Q48.8892-25.6691 47.2046-26.3771Q45.52-27.0851 43.8477-27.0851Q42.0013-27.0851 40.5506-26.4198Q39.0999-25.7545 37.5862-24.3874L19.7289-8.78448Q19.7868-1.65863 24.144 2.20833Q28.5011 6.07529 36.5433 6.07529L107.039 6.07529Q116.739 6.07529 121.272 2.1389Q125.804-1.79749 124.499-9.08966ZM54.9835-32.9376Q58.3435-32.9376 61.1366-34.6062Q63.9297-36.2747 65.604-39.098Q67.2783-41.9212 67.2783-45.3194Q67.2783-48.6679 65.604-51.4725Q63.9297-54.277 61.1366-55.97Q58.3435-57.663 54.9835-57.663Q51.5854-57.663 48.7679-55.97Q45.9503-54.277 44.276-51.4725Q42.6018-48.6679 42.6018-45.3194Q42.6018-41.9212 44.276-39.098Q45.9503-36.2747 48.7679-34.6062Q51.5854-32.9376 54.9835-32.9376ZM30.6931 12.4023L111.51 12.4023Q120.232 12.4023 124.992 7.64847Q129.752 2.89459 129.752-5.78156L129.752-64.5912Q129.752-73.3047 124.992-78.046Q120.232-82.7873 111.51-82.7873L30.6931-82.7873Q21.9826-82.7873 17.2169-78.0518Q12.4512-73.3162 12.4512-64.5912L12.4512-5.78156Q12.4512 2.89459 17.2169 7.64847Q21.9826 12.4023 30.6931 12.4023ZM32.7301-2.69547Q30.1498-2.69547 28.8498-3.9341Q27.5497-5.17273 27.5497-7.93686L27.5497-62.4733Q27.5497-65.2374 28.8498-66.4631Q30.1498-67.6888 32.7301-67.6888L109.473-67.6888Q112.041-67.6888 113.347-66.4631Q114.653-65.2374 114.653-62.4733L114.653-7.93686Q114.653-5.17273 113.347-3.9341Q112.041-2.69547 109.473-2.69547Z"/>
  </g>
  <g id="Bold-M" transform="matrix(1 0 0 1 2269.25 1126)">
   <path d="M123.828-8.71582L95.0439-35.6689Q93.4082-37.1338 91.5527-37.8784Q89.6973-38.623 87.7686-38.623Q85.791-38.623 83.9722-37.915Q82.1533-37.207 80.4932-35.7422L58.4717-16.0645L49.5117-24.1455Q47.9736-25.4883 46.2891-26.1963Q44.6045-26.9043 42.9199-26.9043Q41.1377-26.9043 39.6484-26.2329Q38.1592-25.5615 36.6455-24.1943L18.5303-8.17871Q18.6523-1.2207 22.4487 2.46582Q26.2451 6.15234 33.3984 6.15234L107.812 6.15234Q116.455 6.15234 120.569 2.31934Q124.683-1.51367 123.828-8.71582ZM52.8564-33.5693Q56.1523-33.5693 58.8745-35.1929Q61.5967-36.8164 63.2324-39.5752Q64.8682-42.334 64.8682-45.6543Q64.8682-48.9258 63.2324-51.6724Q61.5967-54.4189 58.8745-56.0669Q56.1523-57.7148 52.8564-57.7148Q49.5361-57.7148 46.7896-56.0669Q44.043-54.4189 42.4072-51.6724Q40.7715-48.9258 40.7715-45.6543Q40.7715-42.334 42.4072-39.5752Q44.043-36.8164 46.7896-35.1929Q49.5361-33.5693 52.8564-33.5693ZM29.6875 11.4746L111.768 11.4746Q120.142 11.4746 124.573 7.05566Q129.004 2.63672 129.004-5.63965L129.004-64.7461Q129.004-73.0469 124.573-77.4658Q120.142-81.8848 111.768-81.8848L29.6875-81.8848Q21.3379-81.8848 16.8945-77.478Q12.4512-73.0713 12.4512-64.7461L12.4512-5.63965Q12.4512 2.63672 16.8945 7.05566Q21.3379 11.4746 29.6875 11.4746ZM31.0547-1.12305Q28.1006-1.12305 26.5747-2.6001Q25.0488-4.07715 25.0488-7.20215L25.0488-63.208Q25.0488-66.333 26.5747-67.8101Q28.1006-69.2871 31.0547-69.2871L110.4-69.2871Q113.33-69.2871 114.868-67.8101Q116.406-66.333 116.406-63.208L116.406-7.20215Q116.406-4.07715 114.868-2.6001Q113.33-1.12305 110.4-1.12305Z"/>
  </g>
  <g id="Semibold-M" transform="matrix(1 0 0 1 1972.8 1126)">
   <path d="M123.366-8.45795L94.5015-35.5179Q92.8574-36.9827 91.0019-37.7407Q89.1464-38.4987 87.191-38.4987Q85.2043-38.4987 83.39-37.7819Q81.5758-37.0651 79.8981-35.6003L57.8583-15.9042L48.8716-24.012Q47.3427-25.3639 45.6581-26.0719Q43.9735-26.7799 42.2798-26.7799Q40.5426-26.7799 39.0266-26.104Q37.5107-25.428 35.997-24.0608L17.704-7.76138Q17.8703-0.918579 21.2803 2.64359Q24.6902 6.20575 31.2302 6.20575L108.346 6.20575Q116.26 6.20575 120.085 2.4437Q123.91-1.31836 123.366-8.45795ZM51.3901-34.005Q54.6417-34.005 57.3151-35.5972Q59.9884-37.1895 61.5974-39.904Q63.2065-42.6186 63.2065-45.8855Q63.2065-49.1035 61.5974-51.8101Q59.9884-54.5166 57.3151-56.1337Q54.6417-57.7507 51.3901-57.7507Q48.1232-57.7507 45.4254-56.1337Q42.7277-54.5166 41.1186-51.8101Q39.5096-49.1035 39.5096-45.8855Q39.5096-42.6186 41.1186-39.904Q42.7277-37.1895 45.4254-35.5972Q48.1232-34.005 51.3901-34.005ZM28.994 10.8345L111.945 10.8345Q120.079 10.8345 124.284 6.64673Q128.488 2.45895 128.488-5.54199L128.488-64.8529Q128.488-72.8691 124.284-77.066Q120.079-81.263 111.945-81.263L28.994-81.263Q20.8939-81.263 16.6725-77.0828Q12.4512-72.9027 12.4512-64.8529L12.4512-5.54199Q12.4512 2.45895 16.6725 6.64673Q20.8939 10.8345 28.994 10.8345ZM29.8996-0.0389099Q26.6876-0.0389099 25.0061-1.68037Q23.3246-3.32184 23.3246-6.69556L23.3246-63.7146Q23.3246-67.0883 25.0061-68.7386Q26.6876-70.3888 29.8996-70.3888L111.04-70.3888Q114.219-70.3888 115.917-68.7386Q117.615-67.0883 117.615-63.7146L117.615-6.69556Q117.615-3.32184 115.917-1.68037Q114.219-0.0389099 111.04-0.0389099Z"/>
  </g>
  <g id="Medium-M" transform="matrix(1 0 0 1 1676.28 1126)">
   <path d="M123.016-8.26263L94.091-35.4034Q92.4393-36.8683 90.5838-37.6362Q88.7283-38.4041 86.7531-38.4041Q84.7595-38.4041 82.9487-37.6804Q81.1378-36.9568 79.4464-35.4919L57.3936-15.7829L48.3864-23.9113Q46.8643-25.2693 45.1797-25.9773Q43.4952-26.6853 41.7946-26.6853Q40.0909-26.6853 38.5548-26.0063Q37.0186-25.3273 35.5049-23.9601L17.0769-7.444Q17.2775-0.689697 20.3941 2.77824Q23.5107 6.24619 29.586 6.24619L108.75 6.24619Q116.111 6.24619 119.717 2.5383Q123.323-1.16959 123.016-8.26263ZM50.2785-34.3353Q53.4958-34.3353 56.1321-35.9039Q58.7685-37.4725 60.3573-40.1531Q61.9461-42.8337 61.9461-46.0602Q61.9461-49.2386 60.3573-51.9146Q58.7685-54.5906 56.1321-56.184Q53.4958-57.7774 50.2785-57.7774Q47.052-57.7774 44.3913-56.184Q41.7305-54.5906 40.1417-51.9146Q38.5529-49.2386 38.5529-46.0602Q38.5529-42.8337 40.1417-40.1531Q41.7305-37.4725 44.3913-35.9039Q47.052-34.3353 50.2785-34.3353ZM28.4691 10.3493L112.08 10.3493Q120.033 10.3493 124.065 6.33659Q128.098 2.32391 128.098-5.46799L128.098-64.9338Q128.098-72.7341 124.065-76.7624Q120.033-80.7907 112.08-80.7907L28.4691-80.7907Q20.5566-80.7907 16.5039-76.7826Q12.4512-72.7745 12.4512-64.9338L12.4512-5.46799Q12.4512 2.32391 16.5039 6.33659Q20.5566 10.3493 28.4691 10.3493ZM29.0237 0.783539Q25.6165 0.783539 23.8171-0.982666Q22.0177-2.74887 22.0177-6.3118L22.0177-64.0984Q22.0177-67.6613 23.8171-69.4431Q25.6165-71.225 29.0237-71.225L111.526-71.225Q114.893-71.225 116.712-69.4431Q118.531-67.6613 118.531-64.0984L118.531-6.3118Q118.531-2.74887 116.712-0.982666Q114.893 0.783539 111.526 0.783539Z"/>
  </g>
  <g id="Regular-M" transform="matrix(1 0 0 1 1379.82 1126)">
   <path d="M122.559-8.00781L93.5547-35.2539Q91.8945-36.7188 90.0391-37.5Q88.1836-38.2812 86.1816-38.2812Q84.1797-38.2812 82.373-37.5488Q80.5664-36.8164 78.8574-35.3516L56.7871-15.625L47.7539-23.7793Q46.2402-25.1465 44.5557-25.8545Q42.8711-26.5625 41.1621-26.5625Q39.502-26.5625 37.9395-25.8789Q36.377-25.1953 34.8633-23.8281L16.2598-7.03125Q16.5039-0.390625 19.2383 2.9541Q21.9727 6.29883 27.4414 6.29883L109.277 6.29883Q115.918 6.29883 119.238 2.66113Q122.559-0.976562 122.559-8.00781ZM48.8281-34.7656Q52.002-34.7656 54.5898-36.3037Q57.1777-37.8418 58.7402-40.4785Q60.3027-43.1152 60.3027-46.2891Q60.3027-49.4141 58.7402-52.0508Q57.1777-54.6875 54.5898-56.25Q52.002-57.8125 48.8281-57.8125Q45.6543-57.8125 43.042-56.25Q40.4297-54.6875 38.8672-52.0508Q37.3047-49.4141 37.3047-46.2891Q37.3047-43.1152 38.8672-40.4785Q40.4297-37.8418 43.042-36.3037Q45.6543-34.7656 48.8281-34.7656ZM27.7832 9.7168L112.256 9.7168Q119.971 9.7168 123.779 5.93262Q127.588 2.14844 127.588-5.37109L127.588-65.0391Q127.588-72.5586 123.779-76.3672Q119.971-80.1758 112.256-80.1758L27.7832-80.1758Q20.1172-80.1758 16.2842-76.3916Q12.4512-72.6074 12.4512-65.0391L12.4512-5.37109Q12.4512 2.14844 16.2842 5.93262Q20.1172 9.7168 27.7832 9.7168ZM27.8809 1.85547Q24.2188 1.85547 22.2656-0.0732422Q20.3125-2.00195 20.3125-5.81055L20.3125-64.5996Q20.3125-68.4082 22.2656-70.3613Q24.2188-72.3145 27.8809-72.3145L112.158-72.3145Q115.771-72.3145 117.749-70.3613Q119.727-68.4082 119.727-64.5996L119.727-5.81055Q119.727-2.00195 117.749-0.0732422Q115.771 1.85547 112.158 1.85547Z"/>
  </g>
  <g id="Light-M" transform="matrix(1 0 0 1 1083.51 1126)">
   <path d="M123.088-6.49414L93.4181-34.0431Q91.6374-35.5232 89.7968-36.3647Q87.9562-37.2063 85.8185-37.2063Q83.741-37.2063 81.9344-36.4437Q80.1277-35.6812 78.3577-34.1408L56.1516-14.2929L46.9666-22.7043Q45.4376-24.102 43.7912-24.8329Q42.1448-25.5638 40.345-25.5638Q38.5941-25.5638 37.0693-24.8497Q35.5446-24.1356 34.0309-22.7531L15.5937-5.85022Q16.095 0.335693 18.5646 3.25661Q21.0342 6.17752 26.2909 6.17752L110.806 6.17752Q117.144 6.17752 120.109 2.80495Q123.074-0.567627 123.088-6.49414ZM48.3437-34.5085Q51.5175-34.5085 54.1054-36.0542Q56.6933-37.5999 58.2558-40.229Q59.8183-42.8581 59.8183-46.032Q59.8183-49.1722 58.2558-51.8013Q56.6933-54.4304 54.1054-55.9929Q51.5175-57.5554 48.3437-57.5554Q45.1698-57.5554 42.5575-55.9929Q39.9452-54.4304 38.3827-51.8013Q36.8202-49.1722 36.8202-46.032Q36.8202-42.8581 38.3827-40.229Q39.9452-37.5999 42.5575-36.0542Q45.1698-34.5085 48.3437-34.5085ZM26.8448 8.95996L112.392 8.95996Q119.592 8.95996 123.196 5.35736Q126.801 1.75476 126.801-5.2803L126.801-65.1756Q126.801-72.1954 123.196-75.8224Q119.592-79.4495 112.392-79.4495L26.8448-79.4495Q19.693-79.4495 16.0721-75.8545Q12.4512-72.2595 12.4512-65.1756L12.4512-5.2803Q12.4512 1.78528 16.0721 5.37262Q19.693 8.95996 26.8448 8.95996ZM26.9577 2.93045Q22.8264 2.93045 20.6612 0.774384Q18.4959-1.38168 18.4959-5.61371L18.4959-64.8415Q18.4959-69.0742 20.6612-71.2391Q22.8264-73.4039 26.9577-73.4039L112.295-73.4039Q116.331-73.4039 118.544-71.2391Q120.756-69.0742 120.756-64.8415L120.756-5.61371Q120.756-1.38168 118.544 0.774384Q116.331 2.93045 112.295 2.93045Z"/>
  </g>
  <g id="Thin-M" transform="matrix(1 0 0 1 787.317 1126)">
   <path d="M123.789-4.49219L93.2381-32.4417Q91.2971-33.9417 89.4768-34.8633Q87.6564-35.7849 85.3378-35.7849Q83.1604-35.7849 81.3538-34.9823Q79.5471-34.1797 77.697-32.5394L55.3108-12.5313L45.9259-21.283Q44.3771-22.7211 42.7803-23.4818Q41.1835-24.2424 39.2639-24.2424Q37.3924-24.2424 35.918-23.4886Q34.4437-22.7348 32.93-21.3318L14.7133-4.28925Q15.5548 1.297 17.6739 3.65715Q19.7929 6.0173 24.7696 6.0173L112.828 6.0173Q118.765 6.0173 121.26 2.99492Q123.754-0.0274658 123.789-4.49219ZM47.7036-34.1682Q50.8774-34.1682 53.4653-35.7239Q56.0532-37.2795 57.6157-39.8987Q59.1782-42.5179 59.1782-45.6917Q59.1782-48.8518 57.6157-51.4709Q56.0532-54.0901 53.4653-55.6526Q50.8774-57.2151 47.7036-57.2151Q44.5297-57.2151 41.9174-55.6526Q39.3051-54.0901 37.7426-51.4709Q36.1801-48.8518 36.1801-45.6917Q36.1801-42.5179 37.7426-39.8987Q39.3051-37.2795 41.9174-35.7239Q44.5297-34.1682 47.7036-34.1682ZM25.6035 7.95898L112.572 7.95898Q119.092 7.95898 122.426 4.59671Q125.76 1.23444 125.76-5.16052L125.76-65.3557Q125.76-71.7148 122.426-75.1015Q119.092-78.4882 112.572-78.4882L25.6035-78.4882Q19.133-78.4882 15.7921-75.1434Q12.4512-71.7987 12.4512-65.3557L12.4512-5.16052Q12.4512 1.30463 15.7921 4.63181Q19.133 7.95898 25.6035 7.95898ZM25.7362 4.35181Q20.9846 4.35181 18.5394 1.89552Q16.0942-0.56076 16.0942-5.35355L16.0942-65.1619Q16.0942-69.9547 18.5394-72.4003Q20.9846-74.8459 25.7362-74.8459L112.475-74.8459Q117.072-74.8459 119.595-72.4003Q122.117-69.9547 122.117-65.1619L122.117-5.35355Q122.117-0.56076 119.595 1.89552Q117.072 4.35181 112.475 4.35181Z"/>
  </g>
  <g id="Ultralight-M" transform="matrix(1 0 0 1 490.872 1126)">
   <path d="M124.148-3.4668L93.1458-31.6208Q91.1224-33.1314 89.3124-34.0942Q87.5023-35.0571 85.0922-35.0571Q82.8629-35.0571 81.0562-34.2339Q79.2496-33.4106 77.359-31.7184L54.8798-11.6287L45.3926-20.5551Q43.8332-22.0131 42.2623-22.7894Q40.6914-23.5657 38.71-23.5657Q36.7775-23.5657 35.3283-22.7913Q33.8791-22.0169 32.3654-20.6039L14.2616-3.48892Q15.2779 1.78909 17.2176 3.86238Q19.1574 5.93567 23.9906 5.93567L113.863 5.93567Q119.596 5.93567 121.849 3.09258Q124.103 0.249481 124.148-3.4668ZM47.3747-33.9935Q50.5486-33.9935 53.1364-35.5545Q55.7243-37.1155 57.2868-39.7293Q58.8493-42.3431 58.8493-45.517Q58.8493-48.6877 57.2868-51.3016Q55.7243-53.9154 53.1364-55.4779Q50.5486-57.0404 47.3747-57.0404Q44.2009-57.0404 41.5886-55.4779Q38.9763-53.9154 37.4138-51.3016Q35.8513-48.6877 35.8513-45.517Q35.8513-42.3431 37.4138-39.7293Q38.9763-37.1155 41.5886-35.5545Q44.2009-33.9935 47.3747-33.9935ZM24.968 7.44629L112.665 7.44629Q118.835 7.44629 122.031 4.20685Q125.227 0.967407 125.227-5.09872L125.227-65.448Q125.227-71.4691 122.031-74.7326Q118.835-77.9961 112.665-77.9961L24.968-77.9961Q18.8454-77.9961 15.6483-74.7795Q12.4512-71.563 12.4512-65.448L12.4512-5.09872Q12.4512 1.05896 15.6483 4.25262Q18.8454 7.44629 24.968 7.44629ZM25.1106 5.07965Q20.0409 5.07965 17.4522 2.46964Q14.8636-0.140381 14.8636-5.22003L14.8636-65.3259Q14.8636-70.4063 17.4522-72.995Q20.0409-75.5836 25.1106-75.5836L112.567-75.5836Q117.451-75.5836 120.133-72.995Q122.814-70.4063 122.814-65.3259L122.814-5.22003Q122.814-0.140381 120.133 2.46964Q117.451 5.07965 112.567 5.07965Z"/>
  </g>
  <g id="Black-S" transform="matrix(1 0 0 1 2877.35 696)">
   <path d="M98.2422-15.0391L75.8301-35.8887Q74.6094-37.0117 73.1445-37.5732Q71.6797-38.1348 70.2148-38.1348Q68.7012-38.1348 67.2607-37.5977Q65.8203-37.0605 64.5508-35.9375L47.3633-20.5566L40.3809-26.8066Q39.1602-27.8809 37.8418-28.418Q36.5234-28.9551 35.2051-28.9551Q33.6914-28.9551 32.6172-28.4424Q31.543-27.9297 30.3223-26.8555L16.6016-15.0391Q16.6016-9.27734 20.5566-6.10352Q24.5117-2.92969 31.6406-2.92969L83.2031-2.92969Q91.7969-2.92969 95.752-6.10352Q99.707-9.27734 98.2422-15.0391ZM45.1172-32.8125Q49.1699-32.8125 52.0996-35.7422Q55.0293-38.6719 55.0293-42.7734Q55.0293-46.8262 52.0996-49.7803Q49.1699-52.7344 45.1172-52.7344Q41.0156-52.7344 38.0859-49.7803Q35.1562-46.8262 35.1562-42.7734Q35.1562-38.6719 38.0859-35.7422Q41.0156-32.8125 45.1172-32.8125ZM25 2.92969L87.1094 2.92969Q94.2871 2.92969 98.3154-1.09863Q102.344-5.12695 102.344-12.3047L102.344-58.1055Q102.344-65.2832 98.3154-69.3115Q94.2871-73.3398 87.1094-73.3398L25-73.3398Q17.8223-73.3398 13.7939-69.3115Q9.76562-65.2832 9.76562-58.1055L9.76562-12.3047Q9.76562-5.12695 13.7939-1.09863Q17.8223 2.92969 25 2.92969ZM27.2461-11.2305Q25.5859-11.2305 24.7559-11.9873Q23.9258-12.7441 23.9258-14.5508L23.9258-55.8594Q23.9258-57.7148 24.7559-58.4473Q25.5859-59.1797 27.2461-59.1797L84.8633-59.1797Q86.5723-59.1797 87.3779-58.4473Q88.1836-57.7148 88.1836-55.8594L88.1836-14.5508Q88.1836-12.7441 87.3779-11.9873Q86.5723-11.2305 84.8633-11.2305Z"/>
  </g>
  <g id="Heavy-S" transform="matrix(1 0 0 1 2580.87 696)">
   <path d="M97.6662-14.9467L75.2541-35.8772Q74.0219-37.0003 72.5571-37.5675Q71.0922-38.1348 69.6274-38.1348Q68.1023-38.1348 66.6676-37.5977Q65.2328-37.0605 63.9519-35.9261L46.7644-20.5452L39.7697-26.8066Q38.5612-27.8694 37.2429-28.4122Q35.9245-28.9551 34.594-28.9551Q33.1497-28.9551 32.0351-28.4367Q30.9204-27.9182 29.7112-26.8555L15.7715-14.7278Q15.7837-9.04694 19.3409-5.9536Q22.8981-2.86026 29.3816-2.86026L83.6067-2.86026Q91.4284-2.86026 95.1069-5.98831Q98.7854-9.11636 97.6662-14.9467ZM43.5501-33.3199Q47.522-33.3199 50.3826-36.1858Q53.2433-39.0518 53.2433-43.0618Q53.2433-47.0337 50.3826-49.9187Q47.522-52.8038 43.5501-52.8038Q39.5409-52.8038 36.6745-49.9187Q33.8081-47.0337 33.8081-43.0618Q33.8081-39.0518 36.6745-36.1858Q39.5409-33.3199 43.5501-33.3199ZM24.3431 2.33078L87.294 2.33078Q94.2642 2.33078 98.0679-1.47285Q101.871-5.27649 101.871-12.2124L101.871-58.1978Q101.871-65.1337 98.0679-68.9373Q94.2642-72.7409 87.294-72.7409L24.3431-72.7409Q17.3958-72.7409 13.5807-68.9373Q9.76562-65.1337 9.76562-58.1978L9.76562-12.2124Q9.76562-5.27649 13.5807-1.47285Q17.3958 2.33078 24.3431 2.33078ZM26.0818-10.1585Q24.1913-10.1585 23.2174-11.071Q22.2435-11.9835 22.2435-14.0091L22.2435-56.4011Q22.2435-58.4755 23.2174-59.3636Q24.1913-60.2516 26.0818-60.2516L85.5545-60.2516Q87.4825-60.2516 88.438-59.3636Q89.3936-58.4755 89.3936-56.4011L89.3936-14.0091Q89.3936-11.9835 88.438-11.071Q87.4825-10.1585 85.5545-10.1585Z"/>
  </g>
  <g id="Bold-S" transform="matrix(1 0 0 1 2284.42 696)">
   <path d="M97.0215-14.8438L74.6094-35.8643Q73.3643-36.9873 71.8994-37.561Q70.4346-38.1348 68.9697-38.1348Q67.4316-38.1348 66.0034-37.5977Q64.5752-37.0605 63.2812-35.9131L46.0938-20.5322L39.0869-26.8066Q37.8906-27.8564 36.5723-28.4058Q35.2539-28.9551 33.9111-28.9551Q32.5439-28.9551 31.3843-28.4302Q30.2246-27.9053 29.0283-26.8555L14.8438-14.3799Q14.8682-8.78906 17.981-5.78613Q21.0938-2.7832 26.8555-2.7832L84.0576-2.7832Q91.0156-2.7832 94.3848-5.85938Q97.7539-8.93555 97.0215-14.8438ZM41.7969-33.8867Q45.6787-33.8867 48.4619-36.6821Q51.2451-39.4775 51.2451-43.3838Q51.2451-47.2656 48.4619-50.0732Q45.6787-52.8809 41.7969-52.8809Q37.8906-52.8809 35.0952-50.0732Q32.2998-47.2656 32.2998-43.3838Q32.2998-39.4775 35.0952-36.6821Q37.8906-33.8867 41.7969-33.8867ZM23.6084 1.66016L87.5 1.66016Q94.2383 1.66016 97.7905-1.89209Q101.343-5.44434 101.343-12.1094L101.343-58.3008Q101.343-64.9658 97.7905-68.5181Q94.2383-72.0703 87.5-72.0703L23.6084-72.0703Q16.9189-72.0703 13.3423-68.5181Q9.76562-64.9658 9.76562-58.3008L9.76562-12.1094Q9.76562-5.44434 13.3423-1.89209Q16.9189 1.66016 23.6084 1.66016ZM24.7803-8.95996Q22.6318-8.95996 21.4966-10.0464Q20.3613-11.1328 20.3613-13.4033L20.3613-57.0068Q20.3613-59.3262 21.4966-60.3882Q22.6318-61.4502 24.7803-61.4502L86.3281-61.4502Q88.501-61.4502 89.624-60.3882Q90.7471-59.3262 90.7471-57.0068L90.7471-13.4033Q90.7471-11.1328 89.624-10.0464Q88.501-8.95996 86.3281-8.95996Z"/>
  </g>
  <g id="Semibold-S" transform="matrix(1 0 0 1 1987.89 696)">
   <path d="M96.5775-14.7728L74.1653-35.8551Q72.9111-36.9781 71.4462-37.5565Q69.9814-38.1348 68.5165-38.1348Q66.9693-38.1348 65.5457-37.5977Q64.122-37.0605 62.8189-35.9039L45.6314-20.5231L38.6162-26.8066Q37.4283-27.8473 36.1099-28.4012Q34.7916-28.9551 33.4404-28.9551Q32.1266-28.9551 30.9357-28.4256Q29.7447-27.8961 28.5576-26.8555L14.2036-14.1396Q14.2372-8.6113 17.0433-5.67055Q19.8494-2.7298 25.1137-2.7298L84.3689-2.7298Q90.731-2.7298 93.8869-5.77049Q97.0428-8.81119 96.5775-14.7728ZM40.5884-34.2781Q44.4077-34.2781 47.1375-37.0243Q49.8672-39.7705 49.8672-43.6058Q49.8672-47.4258 47.1375-50.1801Q44.4077-52.9343 40.5884-52.9343Q36.7531-52.9343 34.0065-50.1801Q31.2599-47.4258 31.2599-43.6058Q31.2599-39.7705 34.0065-37.0243Q36.7531-34.2781 40.5884-34.2781ZM23.1018 1.19781L87.6419 1.19781Q94.2207 1.19781 97.5994-2.18086Q100.978-5.55954 100.978-12.0384L100.978-58.3717Q100.978-64.8506 97.5994-68.2293Q94.2207-71.608 87.6419-71.608L23.1018-71.608Q16.5901-71.608 13.1779-68.2293Q9.76562-64.8506 9.76562-58.3717L9.76562-12.0384Q9.76562-5.55954 13.1779-2.18086Q16.5901 1.19781 23.1018 1.19781ZM23.8831-8.1337Q21.5569-8.1337 20.3102-9.3399Q19.0636-10.5461 19.0636-12.986L19.0636-57.4242Q19.0636-59.9129 20.3102-61.0947Q21.5569-62.2765 23.8831-62.2765L86.8614-62.2765Q89.2029-62.2765 90.4415-61.0947Q91.6801-59.9129 91.6801-57.4242L91.6801-12.986Q91.6801-10.5461 90.4415-9.3399Q89.2029-8.1337 86.8614-8.1337Z"/>
  </g>
  <g id="Medium-S" transform="matrix(1 0 0 1 1691.32 696)">
   <path d="M96.2402-14.7186L73.8281-35.849Q72.5677-36.972 71.1029-37.5534Q69.6381-38.1348 68.1732-38.1348Q66.6191-38.1348 65.1989-37.5977Q63.7787-37.0605 62.4687-35.8978L45.2812-20.517L38.2591-26.8066Q37.0781-27.8412 35.7597-28.3981Q34.4414-28.9551 33.0833-28.9551Q31.8092-28.9551 30.595-28.4225Q29.3808-27.89 28.2005-26.8555L13.7184-13.958Q13.7589-8.47626 16.3326-5.58281Q18.9064-2.68936 23.793-2.68936L84.6046-2.68936Q90.5159-2.68936 93.5101-5.70297Q96.5042-8.71658 96.2402-14.7186ZM39.6721-34.5741Q43.4441-34.5741 46.1338-37.2837Q48.8235-39.9933 48.8235-43.7744Q48.8235-47.5471 46.1338-50.2609Q43.4441-52.9747 39.6721-52.9747Q35.891-52.9747 33.1814-50.2609Q30.4718-47.5471 30.4718-43.7744Q30.4718-39.9933 33.1814-37.2837Q35.891-34.5741 39.6721-34.5741ZM22.718 0.847626L87.7502 0.847626Q94.207 0.847626 97.4545-2.39983Q100.702-5.64728 100.702-11.9843L100.702-58.4259Q100.702-64.7629 97.4545-68.0103Q94.207-71.2578 87.7502-71.2578L22.718-71.2578Q16.3406-71.2578 13.0531-68.0103Q9.76562-64.7629 9.76562-58.4259L9.76562-11.9843Q9.76562-5.64728 13.0531-2.39983Q16.3406 0.847626 22.718 0.847626ZM23.2018-7.50656Q20.7413-7.50656 19.4107-8.80394Q18.0801-10.1013 18.0801-12.6686L18.0801-57.7415Q18.0801-60.3577 19.4107-61.6306Q20.7413-62.9036 23.2018-62.9036L87.2658-62.9036Q89.7354-62.9036 91.0614-61.6306Q92.3874-60.3577 92.3874-57.7415L92.3874-12.6686Q92.3874-10.1013 91.0614-8.80394Q89.7354-7.50656 87.2658-7.50656Z"/>
  </g>
  <g id="Regular-S" transform="matrix(1 0 0 1 1394.79 696)">
   <path d="M95.8008-14.6484L73.3887-35.8398Q72.1191-36.9629 70.6543-37.5488Q69.1895-38.1348 67.7246-38.1348Q66.1621-38.1348 64.7461-37.5977Q63.3301-37.0605 62.0117-35.8887L44.8242-20.5078L37.793-26.8066Q36.6211-27.832 35.3027-28.3936Q33.9844-28.9551 32.6172-28.9551Q31.3965-28.9551 30.1514-28.418Q28.9062-27.8809 27.7344-26.8555L13.0859-13.7207Q13.1348-8.30078 15.4053-5.46875Q17.6758-2.63672 22.0703-2.63672L84.9121-2.63672Q90.2344-2.63672 93.0176-5.61523Q95.8008-8.59375 95.8008-14.6484ZM38.4766-34.9609Q42.1875-34.9609 44.8242-37.6221Q47.4609-40.2832 47.4609-43.9941Q47.4609-47.7051 44.8242-50.3662Q42.1875-53.0273 38.4766-53.0273Q34.7656-53.0273 32.1045-50.3662Q29.4434-47.7051 29.4434-43.9941Q29.4434-40.2832 32.1045-37.6221Q34.7656-34.9609 38.4766-34.9609ZM22.2168 0.390625L87.8906 0.390625Q94.1895 0.390625 97.2656-2.68555Q100.342-5.76172 100.342-11.9141L100.342-58.4961Q100.342-64.6484 97.2656-67.7246Q94.1895-70.8008 87.8906-70.8008L22.2168-70.8008Q16.0156-70.8008 12.8906-67.7246Q9.76562-64.6484 9.76562-58.4961L9.76562-11.9141Q9.76562-5.76172 12.8906-2.68555Q16.0156 0.390625 22.2168 0.390625ZM22.3145-6.68945Q19.6777-6.68945 18.2373-8.10547Q16.7969-9.52148 16.7969-12.2559L16.7969-58.1543Q16.7969-60.9375 18.2373-62.3291Q19.6777-63.7207 22.3145-63.7207L87.793-63.7207Q90.4297-63.7207 91.8701-62.3291Q93.3105-60.9375 93.3105-58.1543L93.3105-12.2559Q93.3105-9.52148 91.8701-8.10547Q90.4297-6.68945 87.793-6.68945Z"/>
  </g>
  <g id="Light-S" transform="matrix(1 0 0 1 1098.43 696)">
   <path d="M96.27-13.3011L73.2674-34.7649Q71.8918-35.9032 70.4422-36.5498Q68.9926-37.1964 67.4065-37.1964Q65.7684-37.1964 64.3524-36.6215Q62.9364-36.0466 61.573-34.8137L44.249-19.3268L37.0964-25.853Q35.91-26.9089 34.6218-27.4853Q33.3336-28.0617 31.9061-28.0617Q30.5939-28.0617 29.3869-27.5021Q28.1799-26.9424 26.9928-25.9018L12.4954-12.661Q12.7716-7.64999 14.8151-5.19638Q16.8587-2.74277 21.0564-2.74277L86.2595-2.74277Q91.3239-2.74277 93.7893-5.48668Q96.2547-8.23059 96.27-13.3011ZM38.0524-34.7488Q41.7633-34.7488 44.4-37.4023Q47.0367-40.0558 47.0367-43.782Q47.0367-47.4777 44.4-50.1465Q41.7633-52.8152 38.0524-52.8152Q34.3414-52.8152 31.6803-50.1465Q29.0192-47.4777 29.0192-43.782Q29.0192-40.0558 31.6803-37.4023Q34.3414-34.7488 38.0524-34.7488ZM21.3997-0.29068L88.0119-0.29068Q93.8568-0.29068 96.751-3.20015Q99.6452-6.10962 99.6452-11.8233L99.6452-58.6174Q99.6452-64.3303 96.751-67.2401Q93.8568-70.15 88.0119-70.15L21.3997-70.15Q15.6219-70.15 12.6938-67.2554Q9.76562-64.3608 9.76562-58.6174L9.76562-11.8233Q9.76562-6.07986 12.6938-3.18527Q15.6219-0.29068 21.3997-0.29068ZM21.4973-5.75104Q18.4364-5.75104 16.8144-7.35626Q15.1924-8.96149 15.1924-12.0895L15.1924-58.3511Q15.1924-61.5128 16.8144-63.1012Q18.4364-64.6896 21.4973-64.6896L87.9143-64.6896Q90.9294-64.6896 92.5739-63.1012Q94.2184-61.5128 94.2184-58.3511L94.2184-12.0895Q94.2184-8.96149 92.5739-7.35626Q90.9294-5.75104 87.9143-5.75104Z"/>
  </g>
  <g id="Thin-S" transform="matrix(1 0 0 1 802.177 696)">
   <path d="M96.8903-11.5196L73.1071-33.3435Q71.5919-34.5024 70.1622-35.2287Q68.7325-35.955 66.9861-35.955Q65.2481-35.955 63.8321-35.3302Q62.4161-34.7054 60.9924-33.3923L43.4883-17.7658L36.1755-24.5918Q34.9686-25.6874 33.7208-26.284Q32.473-26.8806 30.9647-26.8806Q29.5334-26.8806 28.376-26.2909Q27.2186-25.7011 26.0117-24.6407L11.7149-11.2602Q12.291-6.7894 14.0343-4.83627Q15.7776-2.88315 19.7151-2.88315L88.0409-2.88315Q92.7658-2.88315 94.8105-5.31654Q96.8552-7.74994 96.8903-11.5196ZM37.4924-34.4688Q41.2033-34.4688 43.84-37.1124Q46.4767-39.756 46.4767-43.502Q46.4767-47.1779 43.84-49.8566Q41.2033-52.5352 37.4924-52.5352Q33.7814-52.5352 31.1203-49.8566Q28.4592-47.1779 28.4592-43.502Q28.4592-39.756 31.1203-37.1124Q33.7814-34.4688 37.4924-34.4688ZM20.3186-1.19171L88.1721-1.19171Q93.4158-1.19171 96.0701-3.88107Q98.7244-6.57043 98.7244-11.7035L98.7244-58.7776Q98.7244-63.9099 96.0701-66.5997Q93.4158-69.2894 88.1721-69.2894L20.3186-69.2894Q15.1016-69.2894 12.4336-66.6351Q9.76562-63.9809 9.76562-58.7776L9.76562-11.7035Q9.76562-6.50024 12.4336-3.84598Q15.1016-1.19171 20.3186-1.19171ZM20.4163-4.50974Q16.7953-4.50974 14.933-6.3652Q13.0707-8.22067 13.0707-11.869L13.0707-58.6113Q13.0707-62.2734 14.933-64.122Q16.7953-65.9706 20.4163-65.9706L88.0745-65.9706Q91.5901-65.9706 93.5051-64.122Q95.4201-62.2734 95.4201-58.6113L95.4201-11.869Q95.4201-8.22067 93.5051-6.3652Q91.5901-4.50974 88.0745-4.50974Z"/>
  </g>
  <g id="Ultralight-S" transform="matrix(1 0 0 1 505.702 696)">
   <path d="M97.2084-10.6071L73.0255-32.6157Q71.4378-33.7845 70.0184-34.552Q68.5989-35.3195 66.7709-35.3195Q64.9811-35.3195 63.5651-34.6687Q62.149-34.0179 60.6949-32.6645L43.0984-16.9655L35.704-23.9456Q34.4872-25.0618 33.2596-25.6687Q32.032-26.2756 30.4832-26.2756Q28.9894-26.2756 27.858-25.6706Q26.7265-25.0656 25.5096-23.9944L11.3152-10.5423Q12.0453-6.34842 13.6345-4.65164Q15.2237-2.95486 19.0277-2.95486L88.9534-2.95486Q93.5036-2.95486 95.3335-5.22957Q97.1634-7.50427 97.2084-10.6071ZM37.2047-34.3254Q40.9157-34.3254 43.5524-36.9637Q46.1891-39.6019 46.1891-43.3586Q46.1891-47.0238 43.5524-49.7078Q40.9157-52.3918 37.2047-52.3918Q33.4938-52.3918 30.8327-49.7078Q28.1715-47.0238 28.1715-43.3586Q28.1715-39.6019 30.8327-36.9637Q33.4938-34.3254 37.2047-34.3254ZM19.7647-1.65253L88.2538-1.65253Q93.1908-1.65253 95.7218-4.22935Q98.2529-6.80618 98.2529-11.6417L98.2529-58.8593Q98.2529-63.6948 95.7218-66.2716Q93.1908-68.8484 88.2538-68.8484L19.7647-68.8484Q14.8346-68.8484 12.3001-66.317Q9.76562-63.7856 9.76562-58.8593L9.76562-11.6417Q9.76562-6.71539 12.3001-4.18396Q14.8346-1.65253 19.7647-1.65253ZM19.8624-3.87421Q15.9538-3.87421 13.9687-5.85785Q11.9835-7.84149 11.9835-11.7561L11.9835-58.7448Q11.9835-62.6633 13.9687-64.645Q15.9538-66.6267 19.8624-66.6267L88.1561-66.6267Q91.9281-66.6267 93.9816-64.645Q96.035-62.6633 96.035-58.7448L96.035-11.7561Q96.035-7.84149 93.9816-5.85785Q91.9281-3.87421 88.1561-3.87421Z"/>
  </g>
 </g>
</svg>
